{
.appVersion = "1352";
DisplayStrings = (
"aáa/abreve/abreveacute/abrevedotbelow/abrevegrave/abrevehookabove/abrevetilde/acaron â/acircumflexacute/acircumflexdotbelow/acircumflexgrave/acircumflexhookabove/acircumflextilde/adblgrave ä/adotbelow à/ahookabove/ainvertedbreve/amacron/aogonek å/aringacute ã",
"OÓ/Obreve Ô/Ocircumflexacute/Ocircumflexdotbelow/Ocircumflexgrave/Ocircumflexhookabove/Ocircumflextilde/Odblgrave Ö/Odieresismacron/Odotaccentmacron/Odotbelow Ò/Ohookabove/Ohorn/Ohungarumlaut/Oinvertedbreve/Omacron/Oogonek Õ/Otildemacron",
"aá/abreve/abreveacute/abrevedotbelow/abrevegrave/abrevehookabove/abrevetilde/acaron â/acircumflexacute/acircumflexdotbelow/acircumflexgrave/acircumflexhookabove/acircumflextilde/adblgrave ä/adotbelow à/ahookabove/ainvertedbreve/amacron/aogonek å/aringacute ã",
"/dieresiscomb.case/dieresiscomb.case/Odieresismacron/dotaccentcomb.case/Odotaccentmacron/tildecomb.case/Otildemacron",
"nn/Placeholder no/Placeholder oo/space \012a/Placeholder a/space b/Placeholder b/space c/Placeholder c/space d/Placeholder d/space e/Placeholder e/space f/Placeholder f/space g/Placeholder g/space h/Placeholder h/space i/Placeholder i/space jjj/space k/Placeholder k/space l/Placeholder l/space m/Placeholder m/space n/Placeholder n/space o/Placeholder o/space p/Placeholder p/space q/Placeholder q/space r/Placeholder r/space s/Placeholder s/space t/Placeholder t/space u/Placeholder u/space v/Placeholder v/space w/Placeholder w/space x/Placeholder x/space y/Placeholder y/space z/Placeholder z\012anbcdefghynk/idotless ykijkvlrmn\012xopqvtrstuvwxeyz\012ovobcndnefongohijnknlmnopqrnsno/space fTD/space Twombli/space Tgmaiwan/space WcWd/space Twardock/space AWA/space Wrcnder/space/Abrevehookabove/space UVÁVb/cacute peavnaY/o.sc YdtnunonvonovowUIonoxonovonTVImaonz/space nn/Placeholder no/Placeholder oonn/space Yënçolnlomco/space on/space bon/space pmi/space mama/space me/space mima",

glyphs = (
{
glyphname = .notdef;
lastChange = "2021-08-12 01:25:21 +0000";
layers = (
{
background = {
paths = (
{
closed = 1;
nodes = (
"63 0 LINE",
"501 0 LINE",
"501 800 LINE",
"63 800 LINE",
"63 0 LINE"
);
},
{
closed = 1;
nodes = (
"125 63 LINE",
"280 374 LINE",
"434 63 LINE",
"125 63 LINE"
);
},
{
closed = 1;
nodes = (
"125 119 LINE",
"125 684 LINE",
"266 401 LINE",
"125 119 LINE"
);
},
{
closed = 1;
nodes = (
"438 110 LINE",
"293 401 LINE",
"438 693 LINE",
"438 110 LINE"
);
},
{
closed = 1;
nodes = (
"280 429 LINE",
"126 738 LINE",
"433 738 LINE",
"280 429 LINE"
);
}
);
};
layerId = "274E8830-0A80-4149-8BE8-CF3C4CCD3F6F";
paths = (
{
closed = 1;
nodes = (
"63 0 LINE",
"501 0 LINE",
"501 800 LINE",
"63 800 LINE",
"63 0 LINE"
);
},
{
closed = 1;
nodes = (
"125 63 LINE",
"280 374 LINE",
"434 63 LINE",
"125 63 LINE"
);
},
{
closed = 1;
nodes = (
"125 119 LINE",
"125 684 LINE",
"266 401 LINE",
"125 119 LINE"
);
},
{
closed = 1;
nodes = (
"438 110 LINE",
"293 401 LINE",
"438 693 LINE",
"438 110 LINE"
);
},
{
closed = 1;
nodes = (
"280 429 LINE",
"126 738 LINE",
"433 738 LINE",
"280 429 LINE"
);
}
);
width = 568;
}
);
note = .notdef;
},
{
color = 3;
glyphname = A;
lastChange = "2021-08-18 00:35:43 +0000";
layers = (
{
anchors = (
{
name = bottom;
position = "{315, 0}";
},
{
name = ogonek;
position = "{602, 11}";
},
{
name = top;
position = "{346, 670}";
}
);
background = {
anchors = (
{
name = bottom;
position = "{315, 0}";
},
{
name = ogonek;
position = "{602, 11}";
},
{
name = top;
position = "{346, 670}";
}
);
paths = (
{
closed = 1;
nodes = (
"220 19 LINE",
"165 19 OFFCURVE",
"137 28 OFFCURVE",
"137 47 CURVE SMOOTH",
"137 48 OFFCURVE",
"137 50 OFFCURVE",
"138 51 CURVE SMOOTH",
"142 72 OFFCURVE",
"163 127 OFFCURVE",
"199 216 CURVE SMOOTH",
"201 221 OFFCURVE",
"204 224 OFFCURVE",
"208 224 CURVE SMOOTH",
"438 224 LINE SMOOTH",
"443 224 OFFCURVE",
"446 221 OFFCURVE",
"447 216 CURVE",
"481 109 OFFCURVE",
"497 54 OFFCURVE",
"497 51 CURVE SMOOTH",
"499 29 OFFCURVE",
"475 18 OFFCURVE",
"424 18 CURVE",
"416 -3 LINE",
"421 -3 OFFCURVE",
"442 -2 OFFCURVE",
"481 0 CURVE SMOOTH",
"520 2 OFFCURVE",
"545 2 OFFCURVE",
"555 2 CURVE SMOOTH",
"565 2 OFFCURVE",
"608 1 OFFCURVE",
"684 -3 CURVE",
"694 19 LINE",
"677 20 OFFCURVE",
"660 22 OFFCURVE",
"643 23 CURVE",
"618 29 OFFCURVE",
"599 41 OFFCURVE",
"589 60 CURVE SMOOTH",
"570 95 OFFCURVE",
"540 169 OFFCURVE",
"500 283 CURVE SMOOTH",
"461 390 LINE SMOOTH",
"435 464 OFFCURVE",
"403 561 OFFCURVE",
"365 679 CURVE",
"346 666 OFFCURVE",
"327 651 OFFCURVE",
"306 633 CURVE SMOOTH",
"302 629 OFFCURVE",
"300 624 OFFCURVE",
"300 620 CURVE SMOOTH",
"300 618 OFFCURVE",
"300 616 OFFCURVE",
"301 614 CURVE SMOOTH",
"302 607 OFFCURVE",
"303 605 OFFCURVE",
"303 603 CURVE SMOOTH",
"303 587 OFFCURVE",
"298 565 OFFCURVE",
"287 538 CURVE SMOOTH",
"113 94 LINE SMOOTH",
"101 65 OFFCURVE",
"88 45 OFFCURVE",
"72 35 CURVE SMOOTH",
"60 28 OFFCURVE",
"37 23 OFFCURVE",
"3 18 CURVE",
"-6 -3 LINE",
"23 1 OFFCURVE",
"58 2 OFFCURVE",
"102 2 CURVE SMOOTH",
"147 2 OFFCURVE",
"183 1 OFFCURVE",
"210 -3 CURVE",
"210 -3 LINE"
);
},
{
closed = 1;
nodes = (
"222 257 LINE",
"219 257 OFFCURVE",
"217 259 OFFCURVE",
"217 261 CURVE SMOOTH",
"217 262 OFFCURVE",
"217 264 OFFCURVE",
"218 265 CURVE SMOOTH",
"324 537 LINE SMOOTH",
"325 540 OFFCURVE",
"327 541 OFFCURVE",
"328 541 CURVE SMOOTH",
"329 541 OFFCURVE",
"330 540 OFFCURVE",
"331 536 CURVE SMOOTH",
"429 265 LINE SMOOTH",
"430 264 OFFCURVE",
"430 262 OFFCURVE",
"430 261 CURVE SMOOTH",
"430 258 OFFCURVE",
"428 257 OFFCURVE",
"424 257 CURVE SMOOTH",
"222 257 LINE"
);
}
);
};
layerId = "274E8830-0A80-4149-8BE8-CF3C4CCD3F6F";
paths = (
{
closed = 1;
nodes = (
"220 19 LINE",
"165 19 OFFCURVE",
"137 28 OFFCURVE",
"137 47 CURVE SMOOTH",
"137 48 OFFCURVE",
"137 50 OFFCURVE",
"138 51 CURVE SMOOTH",
"142 72 OFFCURVE",
"163 127 OFFCURVE",
"199 216 CURVE SMOOTH",
"201 221 OFFCURVE",
"204 224 OFFCURVE",
"208 224 CURVE SMOOTH",
"438 224 LINE SMOOTH",
"443 224 OFFCURVE",
"446 221 OFFCURVE",
"447 216 CURVE",
"481 109 OFFCURVE",
"497 54 OFFCURVE",
"497 51 CURVE SMOOTH",
"499 29 OFFCURVE",
"475 18 OFFCURVE",
"424 18 CURVE",
"416 -3 LINE",
"421 -3 OFFCURVE",
"442 -2 OFFCURVE",
"481 0 CURVE SMOOTH",
"520 2 OFFCURVE",
"545 2 OFFCURVE",
"555 2 CURVE SMOOTH",
"565 2 OFFCURVE",
"608 1 OFFCURVE",
"684 -3 CURVE",
"694 19 LINE",
"677 20 OFFCURVE",
"660 22 OFFCURVE",
"643 23 CURVE",
"618 29 OFFCURVE",
"599 41 OFFCURVE",
"589 60 CURVE SMOOTH",
"570 95 OFFCURVE",
"540 169 OFFCURVE",
"500 283 CURVE SMOOTH",
"461 390 LINE SMOOTH",
"435 464 OFFCURVE",
"403 561 OFFCURVE",
"365 679 CURVE",
"346 666 OFFCURVE",
"327 651 OFFCURVE",
"306 633 CURVE SMOOTH",
"302 629 OFFCURVE",
"300 624 OFFCURVE",
"300 620 CURVE SMOOTH",
"300 618 OFFCURVE",
"300 616 OFFCURVE",
"301 614 CURVE SMOOTH",
"302 607 OFFCURVE",
"303 605 OFFCURVE",
"303 603 CURVE SMOOTH",
"303 587 OFFCURVE",
"298 565 OFFCURVE",
"287 538 CURVE SMOOTH",
"113 94 LINE SMOOTH",
"101 65 OFFCURVE",
"88 45 OFFCURVE",
"72 35 CURVE SMOOTH",
"60 28 OFFCURVE",
"37 23 OFFCURVE",
"3 18 CURVE",
"-6 -3 LINE",
"23 1 OFFCURVE",
"58 2 OFFCURVE",
"102 2 CURVE SMOOTH",
"147 2 OFFCURVE",
"183 1 OFFCURVE",
"210 -3 CURVE",
"210 -3 LINE"
);
},
{
closed = 1;
nodes = (
"222 257 LINE",
"219 257 OFFCURVE",
"217 259 OFFCURVE",
"217 261 CURVE SMOOTH",
"217 262 OFFCURVE",
"217 264 OFFCURVE",
"218 265 CURVE SMOOTH",
"324 537 LINE SMOOTH",
"325 540 OFFCURVE",
"327 541 OFFCURVE",
"328 541 CURVE SMOOTH",
"329 541 OFFCURVE",
"330 540 OFFCURVE",
"331 536 CURVE SMOOTH",
"429 265 LINE SMOOTH",
"430 264 OFFCURVE",
"430 262 OFFCURVE",
"430 261 CURVE SMOOTH",
"430 258 OFFCURVE",
"428 257 OFFCURVE",
"424 257 CURVE SMOOTH",
"222 257 LINE"
);
}
);
width = 688;
}
);
leftKerningGroup = A;
note = A;
rightKerningGroup = A;
unicode = 0041;
},
{
glyphname = AE;
lastChange = "2021-08-12 01:25:21 +0000";
layers = (
{
anchors = (
{
name = bottom;
position = "{451, 0}";
},
{
name = top;
position = "{554, 661}";
}
);
background = {
anchors = (
{
name = bottom;
position = "{451, 0}";
},
{
name = top;
position = "{554, 661}";
}
);
paths = (
{
closed = 1;
nodes = (
"838 -7 OFFCURVE",
"849 -3 OFFCURVE",
"857 5 CURVE SMOOTH",
"863 11 OFFCURVE",
"867 24 OFFCURVE",
"870 43 CURVE SMOOTH",
"875 77 OFFCURVE",
"884 109 OFFCURVE",
"897 138 CURVE",
"883 143 LINE",
"881 132 OFFCURVE",
"874 115 OFFCURVE",
"862 95 CURVE SMOOTH",
"849 73 OFFCURVE",
"837 59 OFFCURVE",
"826 51 CURVE SMOOTH",
"804 35 OFFCURVE",
"759 27 OFFCURVE",
"692 27 CURVE SMOOTH",
"675 27 OFFCURVE",
"659 28 OFFCURVE",
"643 30 CURVE SMOOTH",
"609 34 OFFCURVE",
"588 38 OFFCURVE",
"580 41 CURVE SMOOTH",
"570 45 OFFCURVE",
"564 53 OFFCURVE",
"561 66 CURVE SMOOTH",
"555 102 OFFCURVE",
"551 190 OFFCURVE",
"550 333 CURVE",
"561 334 OFFCURVE",
"573 334 OFFCURVE",
"588 334 CURVE SMOOTH",
"614 334 OFFCURVE",
"647 333 OFFCURVE",
"687 331 CURVE SMOOTH",
"729 330 OFFCURVE",
"749 314 OFFCURVE",
"748 287 CURVE",
"746 275 OFFCURVE",
"744 268 OFFCURVE",
"743 265 CURVE",
"763 270 LINE",
"762 283 OFFCURVE",
"762 291 OFFCURVE",
"762 294 CURVE SMOOTH",
"762 301 OFFCURVE",
"764 312 OFFCURVE",
"767 326 CURVE SMOOTH",
"770 340 OFFCURVE",
"772 349 OFFCURVE",
"772 354 CURVE SMOOTH",
"772 361 OFFCURVE",
"769 366 OFFCURVE",
"762 366 CURVE SMOOTH",
"550 364 LINE",
"550 500 OFFCURVE",
"555 587 OFFCURVE",
"565 623 CURVE",
"581 626 OFFCURVE",
"607 627 OFFCURVE",
"644 627 CURVE SMOOTH",
"659 627 LINE SMOOTH",
"687 627 OFFCURVE",
"709 626 OFFCURVE",
"722 625 CURVE SMOOTH",
"762 620 OFFCURVE",
"782 607 OFFCURVE",
"782 586 CURVE SMOOTH",
"782 578 OFFCURVE",
"776 559 OFFCURVE",
"766 530 CURVE",
"785 525 LINE",
"796 584 LINE SMOOTH",
"797 588 OFFCURVE",
"800 599 OFFCURVE",
"804 617 CURVE SMOOTH",
"808 632 OFFCURVE",
"810 642 OFFCURVE",
"810 649 CURVE SMOOTH",
"810 659 OFFCURVE",
"807 663 OFFCURVE",
"800 664 CURVE",
"700 663 OFFCURVE",
"605 662 OFFCURVE",
"515 661 CURVE SMOOTH",
"459 662 OFFCURVE",
"414 665 OFFCURVE",
"380 670 CURVE",
"371 651 LINE",
"376 651 OFFCURVE",
"381 651 OFFCURVE",
"386 651 CURVE SMOOTH",
"420 651 OFFCURVE",
"447 640 OFFCURVE",
"461 626 CURVE SMOOTH",
"463 623 OFFCURVE",
"458 648 OFFCURVE",
"460 641 CURVE",
"448 624 OFFCURVE",
"426 589 OFFCURVE",
"141 103 CURVE SMOOTH",
"125 76 OFFCURVE",
"101 45 OFFCURVE",
"86 35 CURVE SMOOTH",
"74 28 OFFCURVE",
"51 23 OFFCURVE",
"17 18 CURVE",
"8 -3 LINE",
"36 1 OFFCURVE",
"91 2 OFFCURVE",
"134 2 CURVE SMOOTH",
"180 2 OFFCURVE",
"216 1 OFFCURVE",
"242 -3 CURVE",
"252 19 LINE",
"197 19 OFFCURVE",
"169 28 OFFCURVE",
"169 47 CURVE SMOOTH",
"169 48 OFFCURVE",
"170 50 OFFCURVE",
"170 51 CURVE SMOOTH",
"174 72 OFFCURVE",
"207 138 OFFCURVE",
"263 228 CURVE SMOOTH",
"267 233 OFFCURVE",
"270 236 OFFCURVE",
"274 236 CURVE SMOOTH",
"477 236 LINE",
"476 152 OFFCURVE",
"473 88 OFFCURVE",
"468 66 CURVE SMOOTH",
"464 49 OFFCURVE",
"451 36 OFFCURVE",
"428 27 CURVE SMOOTH",
"411 20 OFFCURVE",
"392 16 OFFCURVE",
"372 16 CURVE SMOOTH",
"366 16 OFFCURVE",
"360 17 OFFCURVE",
"356 18 CURVE",
"348 -3 LINE",
"431 4 OFFCURVE",
"481 7 OFFCURVE",
"497 8 CURVE SMOOTH",
"514 9 OFFCURVE",
"533 10 OFFCURVE",
"553 10 CURVE SMOOTH",
"573 10 OFFCURVE",
"657 5 OFFCURVE",
"807 -6 CURVE SMOOTH",
"812 -7 OFFCURVE",
"816 -7 OFFCURVE",
"820 -7 CURVE",
"820 -7 LINE"
);
},
{
closed = 1;
nodes = (
"299 273 LINE",
"295 273 OFFCURVE",
"294 274 OFFCURVE",
"294 276 CURVE SMOOTH",
"294 277 OFFCURVE",
"294 279 OFFCURVE",
"296 281 CURVE SMOOTH",
"470 591 LINE",
"477 556 OFFCURVE",
"476 503 OFFCURVE",
"477 462 CURVE SMOOTH",
"477 450 OFFCURVE",
"477 404 OFFCURVE",
"477 292 CURVE SMOOTH",
"477 274 LINE",
"476 273 OFFCURVE",
"475 273 OFFCURVE",
"473 273 CURVE SMOOTH",
"299 273 LINE"
);
}
);
};
layerId = "274E8830-0A80-4149-8BE8-CF3C4CCD3F6F";
paths = (
{
closed = 1;
nodes = (
"838 -7 OFFCURVE",
"849 -3 OFFCURVE",
"857 5 CURVE SMOOTH",
"863 11 OFFCURVE",
"867 24 OFFCURVE",
"870 43 CURVE SMOOTH",
"875 77 OFFCURVE",
"884 109 OFFCURVE",
"897 138 CURVE",
"883 143 LINE",
"881 132 OFFCURVE",
"874 115 OFFCURVE",
"862 95 CURVE SMOOTH",
"849 73 OFFCURVE",
"837 59 OFFCURVE",
"826 51 CURVE SMOOTH",
"804 35 OFFCURVE",
"759 27 OFFCURVE",
"692 27 CURVE SMOOTH",
"675 27 OFFCURVE",
"659 28 OFFCURVE",
"643 30 CURVE SMOOTH",
"609 34 OFFCURVE",
"588 38 OFFCURVE",
"580 41 CURVE SMOOTH",
"570 45 OFFCURVE",
"564 53 OFFCURVE",
"561 66 CURVE SMOOTH",
"555 102 OFFCURVE",
"551 190 OFFCURVE",
"550 333 CURVE",
"561 334 OFFCURVE",
"573 334 OFFCURVE",
"588 334 CURVE SMOOTH",
"614 334 OFFCURVE",
"647 333 OFFCURVE",
"687 331 CURVE SMOOTH",
"729 330 OFFCURVE",
"749 314 OFFCURVE",
"748 287 CURVE",
"746 275 OFFCURVE",
"744 268 OFFCURVE",
"743 265 CURVE",
"763 270 LINE",
"762 283 OFFCURVE",
"762 291 OFFCURVE",
"762 294 CURVE SMOOTH",
"762 301 OFFCURVE",
"764 312 OFFCURVE",
"767 326 CURVE SMOOTH",
"770 340 OFFCURVE",
"772 349 OFFCURVE",
"772 354 CURVE SMOOTH",
"772 361 OFFCURVE",
"769 366 OFFCURVE",
"762 366 CURVE SMOOTH",
"550 364 LINE",
"550 500 OFFCURVE",
"555 587 OFFCURVE",
"565 623 CURVE",
"581 626 OFFCURVE",
"607 627 OFFCURVE",
"644 627 CURVE SMOOTH",
"659 627 LINE SMOOTH",
"687 627 OFFCURVE",
"709 626 OFFCURVE",
"722 625 CURVE SMOOTH",
"762 620 OFFCURVE",
"782 607 OFFCURVE",
"782 586 CURVE SMOOTH",
"782 578 OFFCURVE",
"776 559 OFFCURVE",
"766 530 CURVE",
"785 525 LINE",
"796 584 LINE SMOOTH",
"797 588 OFFCURVE",
"800 599 OFFCURVE",
"804 617 CURVE SMOOTH",
"808 632 OFFCURVE",
"810 642 OFFCURVE",
"810 649 CURVE SMOOTH",
"810 659 OFFCURVE",
"807 663 OFFCURVE",
"800 664 CURVE",
"700 663 OFFCURVE",
"605 662 OFFCURVE",
"515 661 CURVE SMOOTH",
"459 662 OFFCURVE",
"414 665 OFFCURVE",
"380 670 CURVE",
"371 651 LINE",
"376 651 OFFCURVE",
"381 651 OFFCURVE",
"386 651 CURVE SMOOTH",
"420 651 OFFCURVE",
"447 640 OFFCURVE",
"461 626 CURVE SMOOTH",
"463 623 OFFCURVE",
"458 648 OFFCURVE",
"460 641 CURVE",
"448 624 OFFCURVE",
"426 589 OFFCURVE",
"141 103 CURVE SMOOTH",
"125 76 OFFCURVE",
"101 45 OFFCURVE",
"86 35 CURVE SMOOTH",
"74 28 OFFCURVE",
"51 23 OFFCURVE",
"17 18 CURVE",
"8 -3 LINE",
"36 1 OFFCURVE",
"91 2 OFFCURVE",
"134 2 CURVE SMOOTH",
"180 2 OFFCURVE",
"216 1 OFFCURVE",
"242 -3 CURVE",
"252 19 LINE",
"197 19 OFFCURVE",
"169 28 OFFCURVE",
"169 47 CURVE SMOOTH",
"169 48 OFFCURVE",
"170 50 OFFCURVE",
"170 51 CURVE SMOOTH",
"174 72 OFFCURVE",
"207 138 OFFCURVE",
"263 228 CURVE SMOOTH",
"267 233 OFFCURVE",
"270 236 OFFCURVE",
"274 236 CURVE SMOOTH",
"477 236 LINE",
"476 152 OFFCURVE",
"473 88 OFFCURVE",
"468 66 CURVE SMOOTH",
"464 49 OFFCURVE",
"451 36 OFFCURVE",
"428 27 CURVE SMOOTH",
"411 20 OFFCURVE",
"392 16 OFFCURVE",
"372 16 CURVE SMOOTH",
"366 16 OFFCURVE",
"360 17 OFFCURVE",
"356 18 CURVE",
"348 -3 LINE",
"431 4 OFFCURVE",
"481 7 OFFCURVE",
"497 8 CURVE SMOOTH",
"514 9 OFFCURVE",
"533 10 OFFCURVE",
"553 10 CURVE SMOOTH",
"573 10 OFFCURVE",
"657 5 OFFCURVE",
"807 -6 CURVE SMOOTH",
"812 -7 OFFCURVE",
"816 -7 OFFCURVE",
"820 -7 CURVE",
"820 -7 LINE"
);
},
{
closed = 1;
nodes = (
"299 273 LINE",
"295 273 OFFCURVE",
"294 274 OFFCURVE",
"294 276 CURVE SMOOTH",
"294 277 OFFCURVE",
"294 279 OFFCURVE",
"296 281 CURVE SMOOTH",
"470 591 LINE",
"477 556 OFFCURVE",
"476 503 OFFCURVE",
"477 462 CURVE SMOOTH",
"477 450 OFFCURVE",
"477 404 OFFCURVE",
"477 292 CURVE SMOOTH",
"477 274 LINE",
"476 273 OFFCURVE",
"475 273 OFFCURVE",
"473 273 CURVE SMOOTH",
"299 273 LINE"
);
}
);
width = 902;
}
);
leftKerningGroup = AE;
note = AE;
rightKerningGroup = E;
unicode = 00C6;
},
{
color = 3;
glyphname = B;
lastChange = "2021-08-18 00:28:35 +0000";
layers = (
{
background = {
paths = (
{
closed = 1;
nodes = (
"20 -3 LINE",
"82 2 OFFCURVE",
"126 4 OFFCURVE",
"155 5 CURVE SMOOTH",
"182 5 OFFCURVE",
"203 5 OFFCURVE",
"218 5 CURVE SMOOTH",
"233 5 OFFCURVE",
"242 5 OFFCURVE",
"245 5 CURVE SMOOTH",
"285 2 OFFCURVE",
"318 0 OFFCURVE",
"343 0 CURVE SMOOTH",
"348 0 OFFCURVE",
"353 0 OFFCURVE",
"357 0 CURVE SMOOTH",
"427 2 OFFCURVE",
"483 20 OFFCURVE",
"525 52 CURVE SMOOTH",
"573 89 OFFCURVE",
"597 141 OFFCURVE",
"597 209 CURVE SMOOTH",
"597 256 OFFCURVE",
"587 293 OFFCURVE",
"567 318 CURVE SMOOTH",
"536 358 OFFCURVE",
"482 380 OFFCURVE",
"405 385 CURVE",
"437 398 OFFCURVE",
"463 418 OFFCURVE",
"481 444 CURVE SMOOTH",
"500 470 OFFCURVE",
"510 500 OFFCURVE",
"510 534 CURVE SMOOTH",
"510 577 OFFCURVE",
"494 609 OFFCURVE",
"463 630 CURVE SMOOTH",
"429 653 OFFCURVE",
"379 665 OFFCURVE",
"312 665 CURVE SMOOTH",
"296 665 OFFCURVE",
"278 664 OFFCURVE",
"260 663 CURVE SMOOTH",
"231 661 OFFCURVE",
"202 659 OFFCURVE",
"173 659 CURVE SMOOTH",
"130 659 OFFCURVE",
"87 662 OFFCURVE",
"43 667 CURVE",
"34 647 LINE",
"47 650 OFFCURVE",
"58 651 OFFCURVE",
"69 651 CURVE SMOOTH",
"89 651 OFFCURVE",
"106 646 OFFCURVE",
"119 635 CURVE",
"133 619 OFFCURVE",
"140 501 OFFCURVE",
"140 283 CURVE SMOOTH",
"140 163 OFFCURVE",
"136 90 OFFCURVE",
"128 63 CURVE SMOOTH",
"119 32 OFFCURVE",
"86 18 OFFCURVE",
"30 18 CURVE",
"20 -3 LINE"
);
},
{
closed = 1;
nodes = (
"297 21 OFFCURVE",
"271 22 OFFCURVE",
"261 24 CURVE SMOOTH",
"236 30 OFFCURVE",
"223 43 OFFCURVE",
"220 64 CURVE SMOOTH",
"215 110 OFFCURVE",
"212 175 OFFCURVE",
"212 259 CURVE SMOOTH",
"212 403 LINE SMOOTH",
"212 492 OFFCURVE",
"214 559 OFFCURVE",
"219 603 CURVE SMOOTH",
"221 617 OFFCURVE",
"231 626 OFFCURVE",
"251 630 CURVE SMOOTH",
"260 632 OFFCURVE",
"281 633 OFFCURVE",
"313 633 CURVE SMOOTH",
"354 633 OFFCURVE",
"386 621 OFFCURVE",
"412 597 CURVE SMOOTH",
"435 574 OFFCURVE",
"447 547 OFFCURVE",
"447 514 CURVE SMOOTH",
"447 490 OFFCURVE",
"440 468 OFFCURVE",
"427 446 CURVE SMOOTH",
"417 431 OFFCURVE",
"401 417 OFFCURVE",
"378 405 CURVE SMOOTH",
"354 392 OFFCURVE",
"331 386 OFFCURVE",
"308 386 CURVE SMOOTH",
"290 386 LINE",
"276 364 LINE",
"359 364 LINE SMOOTH",
"407 364 OFFCURVE",
"445 351 OFFCURVE",
"474 323 CURVE SMOOTH",
"506 294 OFFCURVE",
"521 254 OFFCURVE",
"521 202 CURVE SMOOTH",
"521 147 OFFCURVE",
"504 103 OFFCURVE",
"471 70 CURVE SMOOTH",
"437 37 OFFCURVE",
"393 21 OFFCURVE",
"339 21 CURVE",
"339 21 LINE"
);
}
);
};
layerId = "274E8830-0A80-4149-8BE8-CF3C4CCD3F6F";
paths = (
{
closed = 1;
nodes = (
"20 -3 LINE",
"82 2 OFFCURVE",
"126 4 OFFCURVE",
"155 5 CURVE SMOOTH",
"182 5 OFFCURVE",
"203 5 OFFCURVE",
"218 5 CURVE SMOOTH",
"233 5 OFFCURVE",
"242 5 OFFCURVE",
"245 5 CURVE SMOOTH",
"285 2 OFFCURVE",
"318 0 OFFCURVE",
"343 0 CURVE SMOOTH",
"348 0 OFFCURVE",
"353 0 OFFCURVE",
"357 0 CURVE SMOOTH",
"427 2 OFFCURVE",
"483 20 OFFCURVE",
"525 52 CURVE SMOOTH",
"573 89 OFFCURVE",
"597 141 OFFCURVE",
"597 209 CURVE SMOOTH",
"597 256 OFFCURVE",
"587 293 OFFCURVE",
"567 318 CURVE SMOOTH",
"536 358 OFFCURVE",
"482 380 OFFCURVE",
"405 385 CURVE",
"437 398 OFFCURVE",
"463 418 OFFCURVE",
"481 444 CURVE SMOOTH",
"500 470 OFFCURVE",
"510 500 OFFCURVE",
"510 534 CURVE SMOOTH",
"510 577 OFFCURVE",
"494 609 OFFCURVE",
"463 630 CURVE SMOOTH",
"429 653 OFFCURVE",
"379 665 OFFCURVE",
"312 665 CURVE SMOOTH",
"296 665 OFFCURVE",
"278 664 OFFCURVE",
"260 663 CURVE SMOOTH",
"231 661 OFFCURVE",
"202 659 OFFCURVE",
"173 659 CURVE SMOOTH",
"130 659 OFFCURVE",
"87 662 OFFCURVE",
"43 667 CURVE",
"34 647 LINE",
"47 650 OFFCURVE",
"58 651 OFFCURVE",
"69 651 CURVE SMOOTH",
"89 651 OFFCURVE",
"106 646 OFFCURVE",
"119 635 CURVE",
"133 619 OFFCURVE",
"140 501 OFFCURVE",
"140 283 CURVE SMOOTH",
"140 163 OFFCURVE",
"136 90 OFFCURVE",
"128 63 CURVE SMOOTH",
"119 32 OFFCURVE",
"86 18 OFFCURVE",
"30 18 CURVE",
"20 -3 LINE"
);
},
{
closed = 1;
nodes = (
"297 21 OFFCURVE",
"271 22 OFFCURVE",
"261 24 CURVE SMOOTH",
"236 30 OFFCURVE",
"223 43 OFFCURVE",
"220 64 CURVE SMOOTH",
"215 110 OFFCURVE",
"212 175 OFFCURVE",
"212 259 CURVE SMOOTH",
"212 403 LINE SMOOTH",
"212 492 OFFCURVE",
"214 559 OFFCURVE",
"219 603 CURVE SMOOTH",
"221 617 OFFCURVE",
"231 626 OFFCURVE",
"251 630 CURVE SMOOTH",
"260 632 OFFCURVE",
"281 633 OFFCURVE",
"313 633 CURVE SMOOTH",
"354 633 OFFCURVE",
"386 621 OFFCURVE",
"412 597 CURVE SMOOTH",
"435 574 OFFCURVE",
"447 547 OFFCURVE",
"447 514 CURVE SMOOTH",
"447 490 OFFCURVE",
"440 468 OFFCURVE",
"427 446 CURVE SMOOTH",
"417 431 OFFCURVE",
"401 417 OFFCURVE",
"378 405 CURVE SMOOTH",
"354 392 OFFCURVE",
"331 386 OFFCURVE",
"308 386 CURVE SMOOTH",
"290 386 LINE",
"276 364 LINE",
"359 364 LINE SMOOTH",
"407 364 OFFCURVE",
"445 351 OFFCURVE",
"474 323 CURVE SMOOTH",
"506 294 OFFCURVE",
"521 254 OFFCURVE",
"521 202 CURVE SMOOTH",
"521 147 OFFCURVE",
"504 103 OFFCURVE",
"471 70 CURVE SMOOTH",
"437 37 OFFCURVE",
"393 21 OFFCURVE",
"339 21 CURVE",
"339 21 LINE"
);
}
);
width = 623;
}
);
leftKerningGroup = H;
leftMetricsKey = H;
note = B;
rightKerningGroup = B;
unicode = 0042;
},
{
color = 3;
glyphname = C;
lastChange = "2021-08-18 00:28:35 +0000";
layers = (
{
anchors = (
{
name = bottom;
position = "{383, 0}";
},
{
name = top;
position = "{410, 672}";
}
);
background = {
anchors = (
{
name = bottom;
position = "{383, 0}";
},
{
name = top;
position = "{410, 672}";
}
);
paths = (
{
closed = 1;
nodes = (
"483 -12 OFFCURVE",
"537 0 OFFCURVE",
"588 22 CURVE SMOOTH",
"599 27 OFFCURVE",
"631 45 OFFCURVE",
"684 76 CURVE",
"684 95 LINE",
"595 55 OFFCURVE",
"513 34 OFFCURVE",
"438 32 CURVE SMOOTH",
"434 31 OFFCURVE",
"430 31 OFFCURVE",
"425 31 CURVE SMOOTH",
"335 31 OFFCURVE",
"262 64 OFFCURVE",
"207 129 CURVE SMOOTH",
"153 194 OFFCURVE",
"126 276 OFFCURVE",
"126 376 CURVE SMOOTH",
"126 462 OFFCURVE",
"150 526 OFFCURVE",
"198 569 CURVE SMOOTH",
"245 611 OFFCURVE",
"311 632 OFFCURVE",
"395 632 CURVE SMOOTH",
"457 632 OFFCURVE",
"509 623 OFFCURVE",
"550 606 CURVE SMOOTH",
"584 592 OFFCURVE",
"608 577 OFFCURVE",
"621 559 CURVE SMOOTH",
"634 543 OFFCURVE",
"640 521 OFFCURVE",
"640 493 CURVE SMOOTH",
"640 486 OFFCURVE",
"640 478 OFFCURVE",
"639 469 CURVE",
"653 466 LINE",
"653 468 OFFCURVE",
"653 470 OFFCURVE",
"653 473 CURVE SMOOTH",
"653 496 OFFCURVE",
"657 525 OFFCURVE",
"665 559 CURVE SMOOTH",
"675 600 OFFCURVE",
"685 619 OFFCURVE",
"696 619 CURVE",
"699 626 LINE",
"616 657 OFFCURVE",
"527 672 OFFCURVE",
"430 672 CURVE SMOOTH",
"420 672 OFFCURVE",
"410 672 OFFCURVE",
"400 671 CURVE SMOOTH",
"295 668 OFFCURVE",
"209 639 OFFCURVE",
"143 585 CURVE SMOOTH",
"72 526 OFFCURVE",
"36 446 OFFCURVE",
"36 346 CURVE SMOOTH",
"36 327 OFFCURVE",
"38 309 OFFCURVE",
"40 290 CURVE SMOOTH",
"55 177 OFFCURVE",
"106 95 OFFCURVE",
"194 44 CURVE SMOOTH",
"258 7 OFFCURVE",
"335 -12 OFFCURVE",
"426 -12 CURVE",
"426 -12 LINE"
);
}
);
};
layerId = "274E8830-0A80-4149-8BE8-CF3C4CCD3F6F";
paths = (
{
closed = 1;
nodes = (
"483 -12 OFFCURVE",
"537 0 OFFCURVE",
"588 22 CURVE SMOOTH",
"599 27 OFFCURVE",
"631 45 OFFCURVE",
"684 76 CURVE",
"684 95 LINE",
"595 55 OFFCURVE",
"513 34 OFFCURVE",
"438 32 CURVE SMOOTH",
"434 31 OFFCURVE",
"430 31 OFFCURVE",
"425 31 CURVE SMOOTH",
"335 31 OFFCURVE",
"262 64 OFFCURVE",
"207 129 CURVE SMOOTH",
"153 194 OFFCURVE",
"126 276 OFFCURVE",
"126 376 CURVE SMOOTH",
"126 462 OFFCURVE",
"150 526 OFFCURVE",
"198 569 CURVE SMOOTH",
"245 611 OFFCURVE",
"311 632 OFFCURVE",
"395 632 CURVE SMOOTH",
"457 632 OFFCURVE",
"509 623 OFFCURVE",
"550 606 CURVE SMOOTH",
"584 592 OFFCURVE",
"608 577 OFFCURVE",
"621 559 CURVE SMOOTH",
"634 543 OFFCURVE",
"640 521 OFFCURVE",
"640 493 CURVE SMOOTH",
"640 486 OFFCURVE",
"640 478 OFFCURVE",
"639 469 CURVE",
"653 466 LINE",
"653 468 OFFCURVE",
"653 470 OFFCURVE",
"653 473 CURVE SMOOTH",
"653 496 OFFCURVE",
"657 525 OFFCURVE",
"665 559 CURVE SMOOTH",
"675 600 OFFCURVE",
"685 619 OFFCURVE",
"696 619 CURVE",
"699 626 LINE",
"616 657 OFFCURVE",
"527 672 OFFCURVE",
"430 672 CURVE SMOOTH",
"420 672 OFFCURVE",
"410 672 OFFCURVE",
"400 671 CURVE SMOOTH",
"295 668 OFFCURVE",
"209 639 OFFCURVE",
"143 585 CURVE SMOOTH",
"72 526 OFFCURVE",
"36 446 OFFCURVE",
"36 346 CURVE SMOOTH",
"36 327 OFFCURVE",
"38 309 OFFCURVE",
"40 290 CURVE SMOOTH",
"55 177 OFFCURVE",
"106 95 OFFCURVE",
"194 44 CURVE SMOOTH",
"258 7 OFFCURVE",
"335 -12 OFFCURVE",
"426 -12 CURVE",
"426 -12 LINE"
);
}
);
width = 724;
}
);
leftKerningGroup = O;
leftMetricsKey = O;
note = C;
rightKerningGroup = C;
unicode = 0043;
},
{
color = 3;
glyphname = D;
lastChange = "2021-08-18 00:35:50 +0000";
layers = (
{
anchors = (
{
name = bottom;
position = "{388, 0}";
},
{
name = center;
position = "{388, 335}";
},
{
name = top;
position = "{388, 670}";
}
);
background = {
anchors = (
{
name = bottom;
position = "{388, 0}";
},
{
name = center;
position = "{388, 335}";
},
{
name = top;
position = "{388, 670}";
}
);
paths = (
{
closed = 1;
nodes = (
"20 -3 LINE",
"90 3 OFFCURVE",
"150 6 OFFCURVE",
"198 6 CURVE SMOOTH",
"229 6 OFFCURVE",
"255 5 OFFCURVE",
"277 3 CURVE SMOOTH",
"302 0 OFFCURVE",
"326 -1 OFFCURVE",
"349 -1 CURVE SMOOTH",
"456 -1 OFFCURVE",
"545 26 OFFCURVE",
"617 80 CURVE SMOOTH",
"646 102 OFFCURVE",
"671 136 OFFCURVE",
"692 183 CURVE SMOOTH",
"713 233 OFFCURVE",
"724 285 OFFCURVE",
"724 340 CURVE SMOOTH",
"724 404 OFFCURVE",
"709 463 OFFCURVE",
"677 515 CURVE SMOOTH",
"616 615 OFFCURVE",
"506 665 OFFCURVE",
"347 665 CURVE SMOOTH",
"315 665 OFFCURVE",
"275 663 OFFCURVE",
"227 658 CURVE SMOOTH",
"213 657 OFFCURVE",
"198 656 OFFCURVE",
"182 656 CURVE SMOOTH",
"146 656 OFFCURVE",
"104 659 OFFCURVE",
"54 664 CURVE",
"45 643 LINE",
"57 645 OFFCURVE",
"69 647 OFFCURVE",
"79 647 CURVE SMOOTH",
"99 647 OFFCURVE",
"115 642 OFFCURVE",
"127 631 CURVE",
"141 615 OFFCURVE",
"148 497 OFFCURVE",
"148 276 CURVE SMOOTH",
"148 160 OFFCURVE",
"145 90 OFFCURVE",
"139 64 CURVE SMOOTH",
"135 48 OFFCURVE",
"122 35 OFFCURVE",
"100 26 CURVE SMOOTH",
"83 19 OFFCURVE",
"65 16 OFFCURVE",
"45 16 CURVE SMOOTH",
"39 16 OFFCURVE",
"34 16 OFFCURVE",
"30 17 CURVE",
"20 -3 LINE"
);
},
{
closed = 1;
nodes = (
"286 24 OFFCURVE",
"243 41 OFFCURVE",
"228 76 CURVE",
"224 173 OFFCURVE",
"221 256 OFFCURVE",
"221 324 CURVE SMOOTH",
"220 352 OFFCURVE",
"220 378 OFFCURVE",
"220 402 CURVE SMOOTH",
"220 529 OFFCURVE",
"225 602 OFFCURVE",
"235 623 CURVE",
"243 633 OFFCURVE",
"273 638 OFFCURVE",
"325 638 CURVE SMOOTH",
"345 638 OFFCURVE",
"366 636 OFFCURVE",
"388 633 CURVE SMOOTH",
"454 624 OFFCURVE",
"509 594 OFFCURVE",
"555 544 CURVE SMOOTH",
"605 489 OFFCURVE",
"631 423 OFFCURVE",
"632 344 CURVE SMOOTH",
"632 339 OFFCURVE",
"633 335 OFFCURVE",
"633 330 CURVE SMOOTH",
"633 222 OFFCURVE",
"607 143 OFFCURVE",
"555 93 CURVE SMOOTH",
"520 59 OFFCURVE",
"468 37 OFFCURVE",
"400 27 CURVE SMOOTH",
"387 25 OFFCURVE",
"373 24 OFFCURVE",
"359 24 CURVE",
"359 24 LINE"
);
}
);
};
layerId = "274E8830-0A80-4149-8BE8-CF3C4CCD3F6F";
paths = (
{
closed = 1;
nodes = (
"20 -3 LINE",
"90 3 OFFCURVE",
"150 6 OFFCURVE",
"198 6 CURVE SMOOTH",
"229 6 OFFCURVE",
"255 5 OFFCURVE",
"277 3 CURVE SMOOTH",
"302 0 OFFCURVE",
"326 -1 OFFCURVE",
"349 -1 CURVE SMOOTH",
"456 -1 OFFCURVE",
"545 26 OFFCURVE",
"617 80 CURVE SMOOTH",
"646 102 OFFCURVE",
"671 136 OFFCURVE",
"692 183 CURVE SMOOTH",
"713 233 OFFCURVE",
"724 285 OFFCURVE",
"724 340 CURVE SMOOTH",
"724 404 OFFCURVE",
"709 463 OFFCURVE",
"677 515 CURVE SMOOTH",
"616 615 OFFCURVE",
"506 665 OFFCURVE",
"347 665 CURVE SMOOTH",
"315 665 OFFCURVE",
"275 663 OFFCURVE",
"227 658 CURVE SMOOTH",
"213 657 OFFCURVE",
"198 656 OFFCURVE",
"182 656 CURVE SMOOTH",
"146 656 OFFCURVE",
"104 659 OFFCURVE",
"54 664 CURVE",
"45 643 LINE",
"57 645 OFFCURVE",
"69 647 OFFCURVE",
"79 647 CURVE SMOOTH",
"99 647 OFFCURVE",
"115 642 OFFCURVE",
"127 631 CURVE",
"141 615 OFFCURVE",
"148 497 OFFCURVE",
"148 276 CURVE SMOOTH",
"148 160 OFFCURVE",
"145 90 OFFCURVE",
"139 64 CURVE SMOOTH",
"135 48 OFFCURVE",
"122 35 OFFCURVE",
"100 26 CURVE SMOOTH",
"83 19 OFFCURVE",
"65 16 OFFCURVE",
"45 16 CURVE SMOOTH",
"39 16 OFFCURVE",
"34 16 OFFCURVE",
"30 17 CURVE",
"20 -3 LINE"
);
},
{
closed = 1;
nodes = (
"286 24 OFFCURVE",
"243 41 OFFCURVE",
"228 76 CURVE",
"224 173 OFFCURVE",
"221 256 OFFCURVE",
"221 324 CURVE SMOOTH",
"220 352 OFFCURVE",
"220 378 OFFCURVE",
"220 402 CURVE SMOOTH",
"220 529 OFFCURVE",
"225 602 OFFCURVE",
"235 623 CURVE",
"243 633 OFFCURVE",
"273 638 OFFCURVE",
"325 638 CURVE SMOOTH",
"345 638 OFFCURVE",
"366 636 OFFCURVE",
"388 633 CURVE SMOOTH",
"454 624 OFFCURVE",
"509 594 OFFCURVE",
"555 544 CURVE SMOOTH",
"605 489 OFFCURVE",
"631 423 OFFCURVE",
"632 344 CURVE SMOOTH",
"632 339 OFFCURVE",
"633 335 OFFCURVE",
"633 330 CURVE SMOOTH",
"633 222 OFFCURVE",
"607 143 OFFCURVE",
"555 93 CURVE SMOOTH",
"520 59 OFFCURVE",
"468 37 OFFCURVE",
"400 27 CURVE SMOOTH",
"387 25 OFFCURVE",
"373 24 OFFCURVE",
"359 24 CURVE",
"359 24 LINE"
);
}
);
width = 760;
}
);
leftKerningGroup = H;
leftMetricsKey = H;
note = D;
rightKerningGroup = D;
rightMetricsKey = O;
unicode = 0044;
},
{
glyphname = Eth;
lastChange = "2021-08-12 01:25:21 +0000";
layers = (
{
background = {
paths = (
{
closed = 1;
nodes = (
"13 -3 LINE",
"83 3 OFFCURVE",
"143 6 OFFCURVE",
"191 6 CURVE SMOOTH",
"222 6 OFFCURVE",
"248 5 OFFCURVE",
"270 3 CURVE SMOOTH",
"295 0 OFFCURVE",
"319 -1 OFFCURVE",
"342 -1 CURVE SMOOTH",
"449 -1 OFFCURVE",
"538 26 OFFCURVE",
"610 80 CURVE SMOOTH",
"639 102 OFFCURVE",
"664 136 OFFCURVE",
"685 183 CURVE SMOOTH",
"706 233 OFFCURVE",
"717 285 OFFCURVE",
"717 340 CURVE SMOOTH",
"717 404 OFFCURVE",
"702 463 OFFCURVE",
"670 515 CURVE SMOOTH",
"609 615 OFFCURVE",
"499 665 OFFCURVE",
"340 665 CURVE SMOOTH",
"308 665 OFFCURVE",
"268 663 OFFCURVE",
"220 658 CURVE SMOOTH",
"206 657 OFFCURVE",
"191 656 OFFCURVE",
"175 656 CURVE SMOOTH",
"139 656 OFFCURVE",
"97 659 OFFCURVE",
"47 664 CURVE",
"38 643 LINE",
"50 645 OFFCURVE",
"62 647 OFFCURVE",
"72 647 CURVE SMOOTH",
"92 647 OFFCURVE",
"108 642 OFFCURVE",
"120 631 CURVE",
"134 615 OFFCURVE",
"141 497 OFFCURVE",
"141 276 CURVE SMOOTH",
"141 160 OFFCURVE",
"138 90 OFFCURVE",
"132 64 CURVE SMOOTH",
"128 48 OFFCURVE",
"115 35 OFFCURVE",
"93 26 CURVE SMOOTH",
"76 19 OFFCURVE",
"58 16 OFFCURVE",
"38 16 CURVE SMOOTH",
"32 16 OFFCURVE",
"27 16 OFFCURVE",
"23 17 CURVE",
"13 -3 LINE"
);
},
{
closed = 1;
nodes = (
"314 289 OFFCURVE",
"320 296 OFFCURVE",
"328 312 CURVE SMOOTH",
"334 326 OFFCURVE",
"338 336 OFFCURVE",
"338 342 CURVE SMOOTH",
"338 344 OFFCURVE",
"338 344 OFFCURVE",
"337 345 CURVE",
"333 344 OFFCURVE",
"312 343 OFFCURVE",
"273 340 CURVE SMOOTH",
"242 337 OFFCURVE",
"216 336 OFFCURVE",
"195 336 CURVE SMOOTH",
"141 336 OFFCURVE",
"102 339 OFFCURVE",
"77 346 CURVE SMOOTH",
"72 348 OFFCURVE",
"66 340 OFFCURVE",
"59 325 CURVE SMOOTH",
"52 311 OFFCURVE",
"49 300 OFFCURVE",
"49 294 CURVE SMOOTH",
"49 293 OFFCURVE",
"49 292 OFFCURVE",
"50 292 CURVE",
"104 298 OFFCURVE",
"150 301 OFFCURVE",
"187 301 CURVE SMOOTH",
"243 301 OFFCURVE",
"284 298 OFFCURVE",
"310 290 CURVE",
"310 290 LINE"
);
},
{
closed = 1;
nodes = (
"279 24 OFFCURVE",
"236 41 OFFCURVE",
"221 76 CURVE",
"217 173 OFFCURVE",
"214 256 OFFCURVE",
"214 324 CURVE SMOOTH",
"213 352 OFFCURVE",
"213 378 OFFCURVE",
"213 402 CURVE SMOOTH",
"213 529 OFFCURVE",
"218 602 OFFCURVE",
"228 623 CURVE",
"236 633 OFFCURVE",
"266 638 OFFCURVE",
"318 638 CURVE SMOOTH",
"338 638 OFFCURVE",
"359 636 OFFCURVE",
"381 633 CURVE SMOOTH",
"447 624 OFFCURVE",
"502 594 OFFCURVE",
"548 544 CURVE SMOOTH",
"598 489 OFFCURVE",
"624 423 OFFCURVE",
"625 344 CURVE SMOOTH",
"625 339 OFFCURVE",
"626 335 OFFCURVE",
"626 330 CURVE SMOOTH",
"626 222 OFFCURVE",
"600 143 OFFCURVE",
"548 93 CURVE SMOOTH",
"513 59 OFFCURVE",
"461 37 OFFCURVE",
"393 27 CURVE SMOOTH",
"380 25 OFFCURVE",
"366 24 OFFCURVE",
"352 24 CURVE",
"352 24 LINE"
);
}
);
};
layerId = "274E8830-0A80-4149-8BE8-CF3C4CCD3F6F";
paths = (
{
closed = 1;
nodes = (
"13 -3 LINE",
"83 3 OFFCURVE",
"143 6 OFFCURVE",
"191 6 CURVE SMOOTH",
"222 6 OFFCURVE",
"248 5 OFFCURVE",
"270 3 CURVE SMOOTH",
"295 0 OFFCURVE",
"319 -1 OFFCURVE",
"342 -1 CURVE SMOOTH",
"449 -1 OFFCURVE",
"538 26 OFFCURVE",
"610 80 CURVE SMOOTH",
"639 102 OFFCURVE",
"664 136 OFFCURVE",
"685 183 CURVE SMOOTH",
"706 233 OFFCURVE",
"717 285 OFFCURVE",
"717 340 CURVE SMOOTH",
"717 404 OFFCURVE",
"702 463 OFFCURVE",
"670 515 CURVE SMOOTH",
"609 615 OFFCURVE",
"499 665 OFFCURVE",
"340 665 CURVE SMOOTH",
"308 665 OFFCURVE",
"268 663 OFFCURVE",
"220 658 CURVE SMOOTH",
"206 657 OFFCURVE",
"191 656 OFFCURVE",
"175 656 CURVE SMOOTH",
"139 656 OFFCURVE",
"97 659 OFFCURVE",
"47 664 CURVE",
"38 643 LINE",
"50 645 OFFCURVE",
"62 647 OFFCURVE",
"72 647 CURVE SMOOTH",
"92 647 OFFCURVE",
"108 642 OFFCURVE",
"120 631 CURVE",
"134 615 OFFCURVE",
"141 497 OFFCURVE",
"141 276 CURVE SMOOTH",
"141 160 OFFCURVE",
"138 90 OFFCURVE",
"132 64 CURVE SMOOTH",
"128 48 OFFCURVE",
"115 35 OFFCURVE",
"93 26 CURVE SMOOTH",
"76 19 OFFCURVE",
"58 16 OFFCURVE",
"38 16 CURVE SMOOTH",
"32 16 OFFCURVE",
"27 16 OFFCURVE",
"23 17 CURVE",
"13 -3 LINE"
);
},
{
closed = 1;
nodes = (
"314 289 OFFCURVE",
"320 296 OFFCURVE",
"328 312 CURVE SMOOTH",
"334 326 OFFCURVE",
"338 336 OFFCURVE",
"338 342 CURVE SMOOTH",
"338 344 OFFCURVE",
"338 344 OFFCURVE",
"337 345 CURVE",
"333 344 OFFCURVE",
"312 343 OFFCURVE",
"273 340 CURVE SMOOTH",
"242 337 OFFCURVE",
"216 336 OFFCURVE",
"195 336 CURVE SMOOTH",
"141 336 OFFCURVE",
"102 339 OFFCURVE",
"77 346 CURVE SMOOTH",
"72 348 OFFCURVE",
"66 340 OFFCURVE",
"59 325 CURVE SMOOTH",
"52 311 OFFCURVE",
"49 300 OFFCURVE",
"49 294 CURVE SMOOTH",
"49 293 OFFCURVE",
"49 292 OFFCURVE",
"50 292 CURVE",
"104 298 OFFCURVE",
"150 301 OFFCURVE",
"187 301 CURVE SMOOTH",
"243 301 OFFCURVE",
"284 298 OFFCURVE",
"310 290 CURVE",
"310 290 LINE"
);
},
{
closed = 1;
nodes = (
"279 24 OFFCURVE",
"236 41 OFFCURVE",
"221 76 CURVE",
"217 173 OFFCURVE",
"214 256 OFFCURVE",
"214 324 CURVE SMOOTH",
"213 352 OFFCURVE",
"213 378 OFFCURVE",
"213 402 CURVE SMOOTH",
"213 529 OFFCURVE",
"218 602 OFFCURVE",
"228 623 CURVE",
"236 633 OFFCURVE",
"266 638 OFFCURVE",
"318 638 CURVE SMOOTH",
"338 638 OFFCURVE",
"359 636 OFFCURVE",
"381 633 CURVE SMOOTH",
"447 624 OFFCURVE",
"502 594 OFFCURVE",
"548 544 CURVE SMOOTH",
"598 489 OFFCURVE",
"624 423 OFFCURVE",
"625 344 CURVE SMOOTH",
"625 339 OFFCURVE",
"626 335 OFFCURVE",
"626 330 CURVE SMOOTH",
"626 222 OFFCURVE",
"600 143 OFFCURVE",
"548 93 CURVE SMOOTH",
"513 59 OFFCURVE",
"461 37 OFFCURVE",
"393 27 CURVE SMOOTH",
"380 25 OFFCURVE",
"366 24 OFFCURVE",
"352 24 CURVE",
"352 24 LINE"
);
}
);
width = 761;
}
);
leftKerningGroup = E;
note = Eth;
rightKerningGroup = E;
unicode = 00D0;
},
{
glyphname = Dcroat;
lastChange = "2021-08-12 01:25:21 +0000";
layers = (
{
background = {
paths = (
{
closed = 1;
nodes = (
"13 -3 LINE",
"83 3 OFFCURVE",
"143 6 OFFCURVE",
"191 6 CURVE SMOOTH",
"222 6 OFFCURVE",
"248 5 OFFCURVE",
"270 3 CURVE SMOOTH",
"295 0 OFFCURVE",
"319 -1 OFFCURVE",
"342 -1 CURVE SMOOTH",
"449 -1 OFFCURVE",
"538 26 OFFCURVE",
"610 80 CURVE SMOOTH",
"639 102 OFFCURVE",
"664 136 OFFCURVE",
"685 183 CURVE SMOOTH",
"706 233 OFFCURVE",
"717 285 OFFCURVE",
"717 340 CURVE SMOOTH",
"717 404 OFFCURVE",
"702 463 OFFCURVE",
"670 515 CURVE SMOOTH",
"609 615 OFFCURVE",
"499 665 OFFCURVE",
"340 665 CURVE SMOOTH",
"308 665 OFFCURVE",
"268 663 OFFCURVE",
"220 658 CURVE SMOOTH",
"206 657 OFFCURVE",
"191 656 OFFCURVE",
"175 656 CURVE SMOOTH",
"139 656 OFFCURVE",
"97 659 OFFCURVE",
"47 664 CURVE",
"38 643 LINE",
"50 645 OFFCURVE",
"62 647 OFFCURVE",
"72 647 CURVE SMOOTH",
"92 647 OFFCURVE",
"108 642 OFFCURVE",
"120 631 CURVE",
"134 615 OFFCURVE",
"141 497 OFFCURVE",
"141 276 CURVE SMOOTH",
"141 160 OFFCURVE",
"138 90 OFFCURVE",
"132 64 CURVE SMOOTH",
"128 48 OFFCURVE",
"115 35 OFFCURVE",
"93 26 CURVE SMOOTH",
"76 19 OFFCURVE",
"58 16 OFFCURVE",
"38 16 CURVE SMOOTH",
"32 16 OFFCURVE",
"27 16 OFFCURVE",
"23 17 CURVE",
"13 -3 LINE"
);
},
{
closed = 1;
nodes = (
"314 289 OFFCURVE",
"320 296 OFFCURVE",
"328 312 CURVE SMOOTH",
"334 326 OFFCURVE",
"338 336 OFFCURVE",
"338 342 CURVE SMOOTH",
"338 344 OFFCURVE",
"338 344 OFFCURVE",
"337 345 CURVE",
"333 344 OFFCURVE",
"312 343 OFFCURVE",
"273 340 CURVE SMOOTH",
"242 337 OFFCURVE",
"216 336 OFFCURVE",
"195 336 CURVE SMOOTH",
"141 336 OFFCURVE",
"102 339 OFFCURVE",
"77 346 CURVE SMOOTH",
"72 348 OFFCURVE",
"66 340 OFFCURVE",
"59 325 CURVE SMOOTH",
"52 311 OFFCURVE",
"49 300 OFFCURVE",
"49 294 CURVE SMOOTH",
"49 293 OFFCURVE",
"49 292 OFFCURVE",
"50 292 CURVE",
"104 298 OFFCURVE",
"150 301 OFFCURVE",
"187 301 CURVE SMOOTH",
"243 301 OFFCURVE",
"284 298 OFFCURVE",
"310 290 CURVE",
"310 290 LINE"
);
},
{
closed = 1;
nodes = (
"279 24 OFFCURVE",
"236 41 OFFCURVE",
"221 76 CURVE",
"217 173 OFFCURVE",
"214 256 OFFCURVE",
"214 324 CURVE SMOOTH",
"213 352 OFFCURVE",
"213 378 OFFCURVE",
"213 402 CURVE SMOOTH",
"213 529 OFFCURVE",
"218 602 OFFCURVE",
"228 623 CURVE",
"236 633 OFFCURVE",
"266 638 OFFCURVE",
"318 638 CURVE SMOOTH",
"338 638 OFFCURVE",
"359 636 OFFCURVE",
"381 633 CURVE SMOOTH",
"447 624 OFFCURVE",
"502 594 OFFCURVE",
"548 544 CURVE SMOOTH",
"598 489 OFFCURVE",
"624 423 OFFCURVE",
"625 344 CURVE SMOOTH",
"625 339 OFFCURVE",
"626 335 OFFCURVE",
"626 330 CURVE SMOOTH",
"626 222 OFFCURVE",
"600 143 OFFCURVE",
"548 93 CURVE SMOOTH",
"513 59 OFFCURVE",
"461 37 OFFCURVE",
"393 27 CURVE SMOOTH",
"380 25 OFFCURVE",
"366 24 OFFCURVE",
"352 24 CURVE",
"352 24 LINE"
);
}
);
};
layerId = "274E8830-0A80-4149-8BE8-CF3C4CCD3F6F";
paths = (
{
closed = 1;
nodes = (
"13 -3 LINE",
"83 3 OFFCURVE",
"143 6 OFFCURVE",
"191 6 CURVE SMOOTH",
"222 6 OFFCURVE",
"248 5 OFFCURVE",
"270 3 CURVE SMOOTH",
"295 0 OFFCURVE",
"319 -1 OFFCURVE",
"342 -1 CURVE SMOOTH",
"449 -1 OFFCURVE",
"538 26 OFFCURVE",
"610 80 CURVE SMOOTH",
"639 102 OFFCURVE",
"664 136 OFFCURVE",
"685 183 CURVE SMOOTH",
"706 233 OFFCURVE",
"717 285 OFFCURVE",
"717 340 CURVE SMOOTH",
"717 404 OFFCURVE",
"702 463 OFFCURVE",
"670 515 CURVE SMOOTH",
"609 615 OFFCURVE",
"499 665 OFFCURVE",
"340 665 CURVE SMOOTH",
"308 665 OFFCURVE",
"268 663 OFFCURVE",
"220 658 CURVE SMOOTH",
"206 657 OFFCURVE",
"191 656 OFFCURVE",
"175 656 CURVE SMOOTH",
"139 656 OFFCURVE",
"97 659 OFFCURVE",
"47 664 CURVE",
"38 643 LINE",
"50 645 OFFCURVE",
"62 647 OFFCURVE",
"72 647 CURVE SMOOTH",
"92 647 OFFCURVE",
"108 642 OFFCURVE",
"120 631 CURVE",
"134 615 OFFCURVE",
"141 497 OFFCURVE",
"141 276 CURVE SMOOTH",
"141 160 OFFCURVE",
"138 90 OFFCURVE",
"132 64 CURVE SMOOTH",
"128 48 OFFCURVE",
"115 35 OFFCURVE",
"93 26 CURVE SMOOTH",
"76 19 OFFCURVE",
"58 16 OFFCURVE",
"38 16 CURVE SMOOTH",
"32 16 OFFCURVE",
"27 16 OFFCURVE",
"23 17 CURVE",
"13 -3 LINE"
);
},
{
closed = 1;
nodes = (
"314 289 OFFCURVE",
"320 296 OFFCURVE",
"328 312 CURVE SMOOTH",
"334 326 OFFCURVE",
"338 336 OFFCURVE",
"338 342 CURVE SMOOTH",
"338 344 OFFCURVE",
"338 344 OFFCURVE",
"337 345 CURVE",
"333 344 OFFCURVE",
"312 343 OFFCURVE",
"273 340 CURVE SMOOTH",
"242 337 OFFCURVE",
"216 336 OFFCURVE",
"195 336 CURVE SMOOTH",
"141 336 OFFCURVE",
"102 339 OFFCURVE",
"77 346 CURVE SMOOTH",
"72 348 OFFCURVE",
"66 340 OFFCURVE",
"59 325 CURVE SMOOTH",
"52 311 OFFCURVE",
"49 300 OFFCURVE",
"49 294 CURVE SMOOTH",
"49 293 OFFCURVE",
"49 292 OFFCURVE",
"50 292 CURVE",
"104 298 OFFCURVE",
"150 301 OFFCURVE",
"187 301 CURVE SMOOTH",
"243 301 OFFCURVE",
"284 298 OFFCURVE",
"310 290 CURVE",
"310 290 LINE"
);
},
{
closed = 1;
nodes = (
"279 24 OFFCURVE",
"236 41 OFFCURVE",
"221 76 CURVE",
"217 173 OFFCURVE",
"214 256 OFFCURVE",
"214 324 CURVE SMOOTH",
"213 352 OFFCURVE",
"213 378 OFFCURVE",
"213 402 CURVE SMOOTH",
"213 529 OFFCURVE",
"218 602 OFFCURVE",
"228 623 CURVE",
"236 633 OFFCURVE",
"266 638 OFFCURVE",
"318 638 CURVE SMOOTH",
"338 638 OFFCURVE",
"359 636 OFFCURVE",
"381 633 CURVE SMOOTH",
"447 624 OFFCURVE",
"502 594 OFFCURVE",
"548 544 CURVE SMOOTH",
"598 489 OFFCURVE",
"624 423 OFFCURVE",
"625 344 CURVE SMOOTH",
"625 339 OFFCURVE",
"626 335 OFFCURVE",
"626 330 CURVE SMOOTH",
"626 222 OFFCURVE",
"600 143 OFFCURVE",
"548 93 CURVE SMOOTH",
"513 59 OFFCURVE",
"461 37 OFFCURVE",
"393 27 CURVE SMOOTH",
"380 25 OFFCURVE",
"366 24 OFFCURVE",
"352 24 CURVE",
"352 24 LINE"
);
}
);
width = 761;
}
);
leftKerningGroup = H;
note = Dcroat;
rightKerningGroup = D;
unicode = 0110;
},
{
color = 3;
glyphname = E;
lastChange = "2021-08-18 00:28:35 +0000";
layers = (
{
anchors = (
{
name = bottom;
position = "{295, 10}";
},
{
name = ogonek;
position = "{535, 0}";
},
{
name = top;
position = "{307, 670}";
},
{
name = topleft;
position = "{15, 670}";
}
);
background = {
anchors = (
{
name = bottom;
position = "{295, 10}";
},
{
name = ogonek;
position = "{535, 0}";
},
{
name = top;
position = "{307, 670}";
},
{
name = topleft;
position = "{15, 670}";
}
);
paths = (
{
closed = 1;
nodes = (
"510 -7 OFFCURVE",
"522 -3 OFFCURVE",
"529 5 CURVE SMOOTH",
"535 11 OFFCURVE",
"540 24 OFFCURVE",
"542 43 CURVE SMOOTH",
"548 77 OFFCURVE",
"556 109 OFFCURVE",
"569 138 CURVE",
"555 143 LINE",
"553 132 OFFCURVE",
"546 115 OFFCURVE",
"534 95 CURVE SMOOTH",
"521 73 OFFCURVE",
"509 59 OFFCURVE",
"498 51 CURVE SMOOTH",
"476 35 OFFCURVE",
"431 27 OFFCURVE",
"364 27 CURVE SMOOTH",
"347 27 OFFCURVE",
"331 28 OFFCURVE",
"316 30 CURVE SMOOTH",
"281 34 OFFCURVE",
"260 38 OFFCURVE",
"253 41 CURVE SMOOTH",
"242 45 OFFCURVE",
"236 53 OFFCURVE",
"234 66 CURVE SMOOTH",
"227 102 OFFCURVE",
"223 190 OFFCURVE",
"222 333 CURVE",
"233 334 OFFCURVE",
"246 334 OFFCURVE",
"260 334 CURVE SMOOTH",
"287 334 OFFCURVE",
"320 333 OFFCURVE",
"360 331 CURVE SMOOTH",
"401 330 OFFCURVE",
"421 314 OFFCURVE",
"421 287 CURVE",
"418 275 OFFCURVE",
"416 268 OFFCURVE",
"415 265 CURVE",
"435 270 LINE",
"435 283 OFFCURVE",
"434 291 OFFCURVE",
"434 294 CURVE SMOOTH",
"434 301 OFFCURVE",
"436 312 OFFCURVE",
"439 326 CURVE SMOOTH",
"443 340 OFFCURVE",
"444 349 OFFCURVE",
"444 354 CURVE SMOOTH",
"444 361 OFFCURVE",
"441 366 OFFCURVE",
"434 366 CURVE SMOOTH",
"222 364 LINE",
"222 500 OFFCURVE",
"227 587 OFFCURVE",
"237 623 CURVE",
"253 626 OFFCURVE",
"280 627 OFFCURVE",
"316 627 CURVE SMOOTH",
"332 627 LINE SMOOTH",
"360 627 OFFCURVE",
"381 626 OFFCURVE",
"395 625 CURVE SMOOTH",
"434 620 OFFCURVE",
"454 607 OFFCURVE",
"454 586 CURVE SMOOTH",
"454 578 OFFCURVE",
"449 559 OFFCURVE",
"438 530 CURVE",
"458 525 LINE",
"468 584 LINE SMOOTH",
"469 588 OFFCURVE",
"472 599 OFFCURVE",
"477 617 CURVE SMOOTH",
"480 632 OFFCURVE",
"482 642 OFFCURVE",
"482 649 CURVE SMOOTH",
"482 659 OFFCURVE",
"479 663 OFFCURVE",
"472 664 CURVE",
"372 663 OFFCURVE",
"278 662 OFFCURVE",
"187 661 CURVE SMOOTH",
"131 662 OFFCURVE",
"86 665 OFFCURVE",
"53 670 CURVE",
"43 651 LINE",
"51 651 OFFCURVE",
"59 652 OFFCURVE",
"66 652 CURVE SMOOTH",
"95 652 OFFCURVE",
"115 645 OFFCURVE",
"128 633 CURVE SMOOTH",
"140 621 OFFCURVE",
"147 564 OFFCURVE",
"149 462 CURVE SMOOTH",
"150 450 OFFCURVE",
"150 388 OFFCURVE",
"150 276 CURVE SMOOTH",
"150 162 OFFCURVE",
"147 93 OFFCURVE",
"140 66 CURVE SMOOTH",
"136 49 OFFCURVE",
"123 36 OFFCURVE",
"100 27 CURVE SMOOTH",
"83 20 OFFCURVE",
"65 16 OFFCURVE",
"44 16 CURVE SMOOTH",
"38 16 OFFCURVE",
"33 17 OFFCURVE",
"29 18 CURVE",
"20 -3 LINE",
"104 4 OFFCURVE",
"153 7 OFFCURVE",
"169 8 CURVE SMOOTH",
"186 9 OFFCURVE",
"205 10 OFFCURVE",
"226 10 CURVE SMOOTH",
"245 10 OFFCURVE",
"329 5 OFFCURVE",
"479 -6 CURVE SMOOTH",
"484 -7 OFFCURVE",
"489 -7 OFFCURVE",
"493 -7 CURVE",
"493 -7 LINE"
);
}
);
};
layerId = "274E8830-0A80-4149-8BE8-CF3C4CCD3F6F";
paths = (
{
closed = 1;
nodes = (
"510 -7 OFFCURVE",
"522 -3 OFFCURVE",
"529 5 CURVE SMOOTH",
"535 11 OFFCURVE",
"540 24 OFFCURVE",
"542 43 CURVE SMOOTH",
"548 77 OFFCURVE",
"556 109 OFFCURVE",
"569 138 CURVE",
"555 143 LINE",
"553 132 OFFCURVE",
"546 115 OFFCURVE",
"534 95 CURVE SMOOTH",
"521 73 OFFCURVE",
"509 59 OFFCURVE",
"498 51 CURVE SMOOTH",
"476 35 OFFCURVE",
"431 27 OFFCURVE",
"364 27 CURVE SMOOTH",
"347 27 OFFCURVE",
"331 28 OFFCURVE",
"316 30 CURVE SMOOTH",
"281 34 OFFCURVE",
"260 38 OFFCURVE",
"253 41 CURVE SMOOTH",
"242 45 OFFCURVE",
"236 53 OFFCURVE",
"234 66 CURVE SMOOTH",
"227 102 OFFCURVE",
"223 190 OFFCURVE",
"222 333 CURVE",
"233 334 OFFCURVE",
"246 334 OFFCURVE",
"260 334 CURVE SMOOTH",
"287 334 OFFCURVE",
"320 333 OFFCURVE",
"360 331 CURVE SMOOTH",
"401 330 OFFCURVE",
"421 314 OFFCURVE",
"421 287 CURVE",
"418 275 OFFCURVE",
"416 268 OFFCURVE",
"415 265 CURVE",
"435 270 LINE",
"435 283 OFFCURVE",
"434 291 OFFCURVE",
"434 294 CURVE SMOOTH",
"434 301 OFFCURVE",
"436 312 OFFCURVE",
"439 326 CURVE SMOOTH",
"443 340 OFFCURVE",
"444 349 OFFCURVE",
"444 354 CURVE SMOOTH",
"444 361 OFFCURVE",
"441 366 OFFCURVE",
"434 366 CURVE SMOOTH",
"222 364 LINE",
"222 500 OFFCURVE",
"227 587 OFFCURVE",
"237 623 CURVE",
"253 626 OFFCURVE",
"280 627 OFFCURVE",
"316 627 CURVE SMOOTH",
"332 627 LINE SMOOTH",
"360 627 OFFCURVE",
"381 626 OFFCURVE",
"395 625 CURVE SMOOTH",
"434 620 OFFCURVE",
"454 607 OFFCURVE",
"454 586 CURVE SMOOTH",
"454 578 OFFCURVE",
"449 559 OFFCURVE",
"438 530 CURVE",
"458 525 LINE",
"468 584 LINE SMOOTH",
"469 588 OFFCURVE",
"472 599 OFFCURVE",
"477 617 CURVE SMOOTH",
"480 632 OFFCURVE",
"482 642 OFFCURVE",
"482 649 CURVE SMOOTH",
"482 659 OFFCURVE",
"479 663 OFFCURVE",
"472 664 CURVE",
"372 663 OFFCURVE",
"278 662 OFFCURVE",
"187 661 CURVE SMOOTH",
"131 662 OFFCURVE",
"86 665 OFFCURVE",
"53 670 CURVE",
"43 651 LINE",
"51 651 OFFCURVE",
"59 652 OFFCURVE",
"66 652 CURVE SMOOTH",
"95 652 OFFCURVE",
"115 645 OFFCURVE",
"128 633 CURVE SMOOTH",
"140 621 OFFCURVE",
"147 564 OFFCURVE",
"149 462 CURVE SMOOTH",
"150 450 OFFCURVE",
"150 388 OFFCURVE",
"150 276 CURVE SMOOTH",
"150 162 OFFCURVE",
"147 93 OFFCURVE",
"140 66 CURVE SMOOTH",
"136 49 OFFCURVE",
"123 36 OFFCURVE",
"100 27 CURVE SMOOTH",
"83 20 OFFCURVE",
"65 16 OFFCURVE",
"44 16 CURVE SMOOTH",
"38 16 OFFCURVE",
"33 17 OFFCURVE",
"29 18 CURVE",
"20 -3 LINE",
"104 4 OFFCURVE",
"153 7 OFFCURVE",
"169 8 CURVE SMOOTH",
"186 9 OFFCURVE",
"205 10 OFFCURVE",
"226 10 CURVE SMOOTH",
"245 10 OFFCURVE",
"329 5 OFFCURVE",
"479 -6 CURVE SMOOTH",
"484 -7 OFFCURVE",
"489 -7 OFFCURVE",
"493 -7 CURVE",
"493 -7 LINE"
);
}
);
width = 591;
}
);
leftKerningGroup = H;
leftMetricsKey = H;
note = E;
rightKerningGroup = E;
unicode = 0045;
},
{
color = 3;
glyphname = F;
lastChange = "2021-08-18 00:37:04 +0000";
layers = (
{
background = {
paths = (
{
closed = 1;
nodes = (
"20 -3 LINE",
"103 4 OFFCURVE",
"158 7 OFFCURVE",
"185 7 CURVE SMOOTH",
"200 7 LINE SMOOTH",
"269 7 OFFCURVE",
"315 4 OFFCURVE",
"338 -3 CURVE",
"350 20 LINE",
"344 19 OFFCURVE",
"339 19 OFFCURVE",
"333 19 CURVE SMOOTH",
"317 19 OFFCURVE",
"300 21 OFFCURVE",
"283 26 CURVE SMOOTH",
"255 35 OFFCURVE",
"239 48 OFFCURVE",
"236 66 CURVE SMOOTH",
"231 96 OFFCURVE",
"227 132 OFFCURVE",
"226 175 CURVE SMOOTH",
"225 284 LINE",
"224 333 LINE",
"234 333 OFFCURVE",
"247 334 OFFCURVE",
"262 334 CURVE SMOOTH",
"288 334 OFFCURVE",
"321 333 OFFCURVE",
"361 331 CURVE SMOOTH",
"405 328 OFFCURVE",
"427 315 OFFCURVE",
"427 292 CURVE SMOOTH",
"427 287 OFFCURVE",
"425 280 OFFCURVE",
"422 272 CURVE",
"441 269 LINE",
"441 283 OFFCURVE",
"441 291 OFFCURVE",
"441 293 CURVE SMOOTH",
"440 300 OFFCURVE",
"442 311 OFFCURVE",
"445 325 CURVE SMOOTH",
"449 339 OFFCURVE",
"451 349 OFFCURVE",
"451 353 CURVE SMOOTH",
"451 361 OFFCURVE",
"447 365 OFFCURVE",
"441 365 CURVE",
"224 363 LINE",
"224 499 OFFCURVE",
"229 586 OFFCURVE",
"239 622 CURVE",
"255 624 OFFCURVE",
"291 626 OFFCURVE",
"346 627 CURVE SMOOTH",
"357 627 OFFCURVE",
"367 627 OFFCURVE",
"376 627 CURVE SMOOTH",
"413 627 OFFCURVE",
"438 626 OFFCURVE",
"451 624 CURVE SMOOTH",
"487 620 OFFCURVE",
"504 607 OFFCURVE",
"504 586 CURVE SMOOTH",
"504 585 OFFCURVE",
"504 584 OFFCURVE",
"504 583 CURVE SMOOTH",
"502 570 OFFCURVE",
"498 552 OFFCURVE",
"489 530 CURVE",
"509 525 LINE",
"520 584 LINE SMOOTH",
"520 589 OFFCURVE",
"524 600 OFFCURVE",
"529 618 CURVE SMOOTH",
"534 633 OFFCURVE",
"536 644 OFFCURVE",
"536 650 CURVE SMOOTH",
"536 659 OFFCURVE",
"533 663 OFFCURVE",
"526 664 CURVE SMOOTH",
"409 663 OFFCURVE",
"297 662 OFFCURVE",
"189 660 CURVE",
"146 661 OFFCURVE",
"101 664 OFFCURVE",
"55 669 CURVE",
"45 649 LINE",
"50 650 OFFCURVE",
"56 651 OFFCURVE",
"62 651 CURVE SMOOTH",
"69 651 OFFCURVE",
"77 650 OFFCURVE",
"85 649 CURVE SMOOTH",
"105 646 OFFCURVE",
"120 641 OFFCURVE",
"130 632 CURVE",
"145 615 OFFCURVE",
"152 530 OFFCURVE",
"152 378 CURVE SMOOTH",
"152 355 LINE",
"152 241 LINE SMOOTH",
"151 155 OFFCURVE",
"147 96 OFFCURVE",
"140 66 CURVE SMOOTH",
"136 49 OFFCURVE",
"123 36 OFFCURVE",
"101 27 CURVE SMOOTH",
"84 20 OFFCURVE",
"66 16 OFFCURVE",
"46 16 CURVE SMOOTH",
"40 16 OFFCURVE",
"35 17 OFFCURVE",
"30 18 CURVE",
"20 -3 LINE"
);
}
);
};
layerId = "274E8830-0A80-4149-8BE8-CF3C4CCD3F6F";
paths = (
{
closed = 1;
nodes = (
"20 -3 LINE",
"103 4 OFFCURVE",
"158 7 OFFCURVE",
"185 7 CURVE SMOOTH",
"200 7 LINE SMOOTH",
"269 7 OFFCURVE",
"315 4 OFFCURVE",
"338 -3 CURVE",
"350 20 LINE",
"344 19 OFFCURVE",
"339 19 OFFCURVE",
"333 19 CURVE SMOOTH",
"317 19 OFFCURVE",
"300 21 OFFCURVE",
"283 26 CURVE SMOOTH",
"255 35 OFFCURVE",
"239 48 OFFCURVE",
"236 66 CURVE SMOOTH",
"231 96 OFFCURVE",
"227 132 OFFCURVE",
"226 175 CURVE SMOOTH",
"225 284 LINE",
"224 333 LINE",
"234 333 OFFCURVE",
"247 334 OFFCURVE",
"262 334 CURVE SMOOTH",
"288 334 OFFCURVE",
"321 333 OFFCURVE",
"361 331 CURVE SMOOTH",
"405 328 OFFCURVE",
"427 315 OFFCURVE",
"427 292 CURVE SMOOTH",
"427 287 OFFCURVE",
"425 280 OFFCURVE",
"422 272 CURVE",
"441 269 LINE",
"441 283 OFFCURVE",
"441 291 OFFCURVE",
"441 293 CURVE SMOOTH",
"440 300 OFFCURVE",
"442 311 OFFCURVE",
"445 325 CURVE SMOOTH",
"449 339 OFFCURVE",
"451 349 OFFCURVE",
"451 353 CURVE SMOOTH",
"451 361 OFFCURVE",
"447 365 OFFCURVE",
"441 365 CURVE",
"224 363 LINE",
"224 499 OFFCURVE",
"229 586 OFFCURVE",
"239 622 CURVE",
"255 624 OFFCURVE",
"291 626 OFFCURVE",
"346 627 CURVE SMOOTH",
"357 627 OFFCURVE",
"367 627 OFFCURVE",
"376 627 CURVE SMOOTH",
"413 627 OFFCURVE",
"438 626 OFFCURVE",
"451 624 CURVE SMOOTH",
"487 620 OFFCURVE",
"504 607 OFFCURVE",
"504 586 CURVE SMOOTH",
"504 585 OFFCURVE",
"504 584 OFFCURVE",
"504 583 CURVE SMOOTH",
"502 570 OFFCURVE",
"498 552 OFFCURVE",
"489 530 CURVE",
"509 525 LINE",
"520 584 LINE SMOOTH",
"520 589 OFFCURVE",
"524 600 OFFCURVE",
"529 618 CURVE SMOOTH",
"534 633 OFFCURVE",
"536 644 OFFCURVE",
"536 650 CURVE SMOOTH",
"536 659 OFFCURVE",
"533 663 OFFCURVE",
"526 664 CURVE SMOOTH",
"409 663 OFFCURVE",
"297 662 OFFCURVE",
"189 660 CURVE",
"146 661 OFFCURVE",
"101 664 OFFCURVE",
"55 669 CURVE",
"45 649 LINE",
"50 650 OFFCURVE",
"56 651 OFFCURVE",
"62 651 CURVE SMOOTH",
"69 651 OFFCURVE",
"77 650 OFFCURVE",
"85 649 CURVE SMOOTH",
"105 646 OFFCURVE",
"120 641 OFFCURVE",
"130 632 CURVE",
"145 615 OFFCURVE",
"152 530 OFFCURVE",
"152 378 CURVE SMOOTH",
"152 355 LINE",
"152 241 LINE SMOOTH",
"151 155 OFFCURVE",
"147 96 OFFCURVE",
"140 66 CURVE SMOOTH",
"136 49 OFFCURVE",
"123 36 OFFCURVE",
"101 27 CURVE SMOOTH",
"84 20 OFFCURVE",
"66 16 OFFCURVE",
"46 16 CURVE SMOOTH",
"40 16 OFFCURVE",
"35 17 OFFCURVE",
"30 18 CURVE",
"20 -3 LINE"
);
}
);
width = 558;
}
);
leftKerningGroup = H;
leftMetricsKey = H;
note = F;
rightKerningGroup = F;
unicode = 0046;
},
{
color = 3;
glyphname = G;
lastChange = "2021-08-18 00:28:35 +0000";
layers = (
{
anchors = (
{
name = bottom;
position = "{396, 9}";
},
{
name = top;
position = "{429, 668}";
}
);
background = {
anchors = (
{
name = bottom;
position = "{396, 9}";
},
{
name = top;
position = "{429, 668}";
}
);
paths = (
{
closed = 1;
nodes = (
"458 -2 OFFCURVE",
"506 2 OFFCURVE",
"557 9 CURVE SMOOTH",
"608 16 OFFCURVE",
"642 20 OFFCURVE",
"656 20 CURVE SMOOTH",
"666 20 OFFCURVE",
"674 19 OFFCURVE",
"683 18 CURVE",
"685 24 LINE",
"678 44 OFFCURVE",
"674 82 OFFCURVE",
"673 138 CURVE SMOOTH",
"673 151 OFFCURVE",
"673 163 OFFCURVE",
"673 174 CURVE SMOOTH",
"673 208 OFFCURVE",
"674 235 OFFCURVE",
"677 254 CURVE SMOOTH",
"682 287 OFFCURVE",
"702 303 OFFCURVE",
"737 302 CURVE",
"740 321 LINE",
"710 311 OFFCURVE",
"670 305 OFFCURVE",
"620 303 CURVE SMOOTH",
"610 303 OFFCURVE",
"601 303 OFFCURVE",
"592 303 CURVE SMOOTH",
"552 303 OFFCURVE",
"518 306 OFFCURVE",
"487 312 CURVE",
"484 291 LINE",
"491 292 OFFCURVE",
"499 292 OFFCURVE",
"507 292 CURVE SMOOTH",
"532 292 OFFCURVE",
"555 288 OFFCURVE",
"577 281 CURVE SMOOTH",
"593 276 OFFCURVE",
"601 238 OFFCURVE",
"601 168 CURVE SMOOTH",
"601 114 OFFCURVE",
"598 72 OFFCURVE",
"592 44 CURVE",
"549 35 OFFCURVE",
"506 30 OFFCURVE",
"465 30 CURVE SMOOTH",
"398 30 OFFCURVE",
"340 42 OFFCURVE",
"291 66 CURVE SMOOTH",
"234 94 OFFCURVE",
"191 136 OFFCURVE",
"161 193 CURVE SMOOTH",
"135 244 OFFCURVE",
"122 300 OFFCURVE",
"122 361 CURVE SMOOTH",
"122 454 OFFCURVE",
"147 522 OFFCURVE",
"196 566 CURVE SMOOTH",
"243 608 OFFCURVE",
"308 629 OFFCURVE",
"391 629 CURVE SMOOTH",
"453 629 OFFCURVE",
"504 620 OFFCURVE",
"545 603 CURVE SMOOTH",
"579 590 OFFCURVE",
"602 574 OFFCURVE",
"615 557 CURVE SMOOTH",
"628 541 OFFCURVE",
"634 519 OFFCURVE",
"634 491 CURVE SMOOTH",
"634 484 OFFCURVE",
"634 476 OFFCURVE",
"633 468 CURVE",
"647 465 LINE",
"646 467 OFFCURVE",
"646 469 OFFCURVE",
"646 471 CURVE SMOOTH",
"646 494 OFFCURVE",
"651 522 OFFCURVE",
"659 557 CURVE SMOOTH",
"669 597 OFFCURVE",
"679 616 OFFCURVE",
"690 616 CURVE",
"692 623 LINE",
"610 653 OFFCURVE",
"522 668 OFFCURVE",
"426 668 CURVE SMOOTH",
"416 668 OFFCURVE",
"406 668 OFFCURVE",
"396 668 CURVE SMOOTH",
"292 665 OFFCURVE",
"208 636 OFFCURVE",
"142 582 CURVE SMOOTH",
"72 524 OFFCURVE",
"36 445 OFFCURVE",
"36 345 CURVE SMOOTH",
"36 327 OFFCURVE",
"38 309 OFFCURVE",
"40 290 CURVE SMOOTH",
"54 179 OFFCURVE",
"104 99 OFFCURVE",
"189 50 CURVE SMOOTH",
"250 16 OFFCURVE",
"325 -2 OFFCURVE",
"415 -2 CURVE",
"415 -2 LINE"
);
}
);
};
layerId = "274E8830-0A80-4149-8BE8-CF3C4CCD3F6F";
paths = (
{
closed = 1;
nodes = (
"458 -2 OFFCURVE",
"506 2 OFFCURVE",
"557 9 CURVE SMOOTH",
"608 16 OFFCURVE",
"642 20 OFFCURVE",
"656 20 CURVE SMOOTH",
"666 20 OFFCURVE",
"674 19 OFFCURVE",
"683 18 CURVE",
"685 24 LINE",
"678 44 OFFCURVE",
"674 82 OFFCURVE",
"673 138 CURVE SMOOTH",
"673 151 OFFCURVE",
"673 163 OFFCURVE",
"673 174 CURVE SMOOTH",
"673 208 OFFCURVE",
"674 235 OFFCURVE",
"677 254 CURVE SMOOTH",
"682 287 OFFCURVE",
"702 303 OFFCURVE",
"737 302 CURVE",
"740 321 LINE",
"710 311 OFFCURVE",
"670 305 OFFCURVE",
"620 303 CURVE SMOOTH",
"610 303 OFFCURVE",
"601 303 OFFCURVE",
"592 303 CURVE SMOOTH",
"552 303 OFFCURVE",
"518 306 OFFCURVE",
"487 312 CURVE",
"484 291 LINE",
"491 292 OFFCURVE",
"499 292 OFFCURVE",
"507 292 CURVE SMOOTH",
"532 292 OFFCURVE",
"555 288 OFFCURVE",
"577 281 CURVE SMOOTH",
"593 276 OFFCURVE",
"601 238 OFFCURVE",
"601 168 CURVE SMOOTH",
"601 114 OFFCURVE",
"598 72 OFFCURVE",
"592 44 CURVE",
"549 35 OFFCURVE",
"506 30 OFFCURVE",
"465 30 CURVE SMOOTH",
"398 30 OFFCURVE",
"340 42 OFFCURVE",
"291 66 CURVE SMOOTH",
"234 94 OFFCURVE",
"191 136 OFFCURVE",
"161 193 CURVE SMOOTH",
"135 244 OFFCURVE",
"122 300 OFFCURVE",
"122 361 CURVE SMOOTH",
"122 454 OFFCURVE",
"147 522 OFFCURVE",
"196 566 CURVE SMOOTH",
"243 608 OFFCURVE",
"308 629 OFFCURVE",
"391 629 CURVE SMOOTH",
"453 629 OFFCURVE",
"504 620 OFFCURVE",
"545 603 CURVE SMOOTH",
"579 590 OFFCURVE",
"602 574 OFFCURVE",
"615 557 CURVE SMOOTH",
"628 541 OFFCURVE",
"634 519 OFFCURVE",
"634 491 CURVE SMOOTH",
"634 484 OFFCURVE",
"634 476 OFFCURVE",
"633 468 CURVE",
"647 465 LINE",
"646 467 OFFCURVE",
"646 469 OFFCURVE",
"646 471 CURVE SMOOTH",
"646 494 OFFCURVE",
"651 522 OFFCURVE",
"659 557 CURVE SMOOTH",
"669 597 OFFCURVE",
"679 616 OFFCURVE",
"690 616 CURVE",
"692 623 LINE",
"610 653 OFFCURVE",
"522 668 OFFCURVE",
"426 668 CURVE SMOOTH",
"416 668 OFFCURVE",
"406 668 OFFCURVE",
"396 668 CURVE SMOOTH",
"292 665 OFFCURVE",
"208 636 OFFCURVE",
"142 582 CURVE SMOOTH",
"72 524 OFFCURVE",
"36 445 OFFCURVE",
"36 345 CURVE SMOOTH",
"36 327 OFFCURVE",
"38 309 OFFCURVE",
"40 290 CURVE SMOOTH",
"54 179 OFFCURVE",
"104 99 OFFCURVE",
"189 50 CURVE SMOOTH",
"250 16 OFFCURVE",
"325 -2 OFFCURVE",
"415 -2 CURVE",
"415 -2 LINE"
);
}
);
width = 772;
}
);
leftKerningGroup = O;
leftMetricsKey = O;
note = G;
rightKerningGroup = G;
unicode = 0047;
},
{
color = 3;
glyphname = H;
lastChange = "2021-08-18 00:28:35 +0000";
layers = (
{
anchors = (
{
name = bottom;
position = "{429, 0}";
},
{
name = center;
position = "{429, 335}";
},
{
name = top;
position = "{429, 670}";
},
{
name = topleft;
position = "{-3, 670}";
}
);
background = {
anchors = (
{
name = bottom;
position = "{429, 0}";
},
{
name = center;
position = "{429, 335}";
},
{
name = top;
position = "{429, 670}";
},
{
name = topleft;
position = "{-3, 670}";
}
);
paths = (
{
closed = 1;
nodes = (
"20 -3 LINE",
"117 4 OFFCURVE",
"171 8 OFFCURVE",
"183 9 CURVE",
"268 6 OFFCURVE",
"320 2 OFFCURVE",
"337 -3 CURVE",
"348 20 LINE",
"342 19 OFFCURVE",
"335 19 OFFCURVE",
"328 19 CURVE SMOOTH",
"313 19 OFFCURVE",
"297 21 OFFCURVE",
"282 25 CURVE SMOOTH",
"255 33 OFFCURVE",
"239 45 OFFCURVE",
"236 64 CURVE SMOOTH",
"231 94 OFFCURVE",
"227 165 OFFCURVE",
"225 278 CURVE SMOOTH",
"224 325 LINE",
"301 328 OFFCURVE",
"351 330 OFFCURVE",
"376 330 CURVE SMOOTH",
"658 330 LINE",
"658 326 OFFCURVE",
"658 316 OFFCURVE",
"658 299 CURVE SMOOTH",
"658 279 LINE SMOOTH",
"658 168 OFFCURVE",
"654 97 OFFCURVE",
"646 64 CURVE SMOOTH",
"638 32 OFFCURVE",
"607 16 OFFCURVE",
"554 16 CURVE SMOOTH",
"546 16 OFFCURVE",
"540 17 OFFCURVE",
"536 18 CURVE",
"526 -3 LINE",
"622 4 OFFCURVE",
"677 8 OFFCURVE",
"689 9 CURVE",
"774 6 OFFCURVE",
"825 2 OFFCURVE",
"843 -3 CURVE",
"854 20 LINE",
"847 19 OFFCURVE",
"841 19 OFFCURVE",
"834 19 CURVE SMOOTH",
"818 19 OFFCURVE",
"803 21 OFFCURVE",
"788 25 CURVE SMOOTH",
"760 33 OFFCURVE",
"745 45 OFFCURVE",
"742 64 CURVE SMOOTH",
"737 94 OFFCURVE",
"733 165 OFFCURVE",
"731 278 CURVE SMOOTH",
"730 305 OFFCURVE",
"730 331 OFFCURVE",
"730 356 CURVE SMOOTH",
"730 410 OFFCURVE",
"731 460 OFFCURVE",
"733 508 CURVE SMOOTH",
"737 576 OFFCURVE",
"741 616 OFFCURVE",
"747 629 CURVE",
"761 645 OFFCURVE",
"781 653 OFFCURVE",
"807 653 CURVE SMOOTH",
"812 653 OFFCURVE",
"818 653 OFFCURVE",
"824 652 CURVE",
"838 670 LINE",
"795 666 OFFCURVE",
"747 662 OFFCURVE",
"695 660 CURVE",
"627 663 OFFCURVE",
"583 666 OFFCURVE",
"561 669 CURVE",
"552 649 LINE",
"564 652 OFFCURVE",
"576 653 OFFCURVE",
"586 653 CURVE SMOOTH",
"607 653 OFFCURVE",
"623 648 OFFCURVE",
"636 637 CURVE",
"651 621 OFFCURVE",
"658 530 OFFCURVE",
"658 366 CURVE",
"641 366 OFFCURVE",
"595 364 OFFCURVE",
"519 361 CURVE SMOOTH",
"452 359 OFFCURVE",
"404 357 OFFCURVE",
"376 357 CURVE SMOOTH",
"360 357 OFFCURVE",
"334 359 OFFCURVE",
"297 362 CURVE SMOOTH",
"255 365 OFFCURVE",
"231 367 OFFCURVE",
"224 367 CURVE",
"224 518 OFFCURVE",
"230 605 OFFCURVE",
"241 629 CURVE",
"255 645 OFFCURVE",
"275 653 OFFCURVE",
"301 653 CURVE SMOOTH",
"307 653 OFFCURVE",
"312 653 OFFCURVE",
"318 652 CURVE",
"332 670 LINE",
"289 666 OFFCURVE",
"242 662 OFFCURVE",
"189 660 CURVE",
"122 663 OFFCURVE",
"77 666 OFFCURVE",
"55 669 CURVE",
"46 649 LINE",
"58 652 OFFCURVE",
"70 653 OFFCURVE",
"81 653 CURVE SMOOTH",
"101 653 OFFCURVE",
"118 648 OFFCURVE",
"131 637 CURVE",
"145 621 OFFCURVE",
"152 501 OFFCURVE",
"152 279 CURVE SMOOTH",
"152 166 OFFCURVE",
"148 95 OFFCURVE",
"141 66 CURVE SMOOTH",
"137 49 OFFCURVE",
"124 36 OFFCURVE",
"101 27 CURVE SMOOTH",
"84 20 OFFCURVE",
"65 16 OFFCURVE",
"45 16 CURVE SMOOTH",
"38 16 OFFCURVE",
"33 17 OFFCURVE",
"29 18 CURVE",
"20 -3 LINE"
);
}
);
};
layerId = "274E8830-0A80-4149-8BE8-CF3C4CCD3F6F";
paths = (
{
closed = 1;
nodes = (
"117 4 OFFCURVE",
"161 7 OFFCURVE",
"197 7 CURVE SMOOTH",
"268 7 OFFCURVE",
"320 2 OFFCURVE",
"337 -3 CURVE",
"348 20 LINE",
"342 19 OFFCURVE",
"335 19 OFFCURVE",
"328 19 CURVE SMOOTH",
"313 19 OFFCURVE",
"297 21 OFFCURVE",
"282 25 CURVE SMOOTH",
"255 33 OFFCURVE",
"239 45 OFFCURVE",
"236 64 CURVE SMOOTH",
"231 94 OFFCURVE",
"227 165 OFFCURVE",
"225 278 CURVE SMOOTH",
"224 325 LINE",
"301 328 OFFCURVE",
"381 330 OFFCURVE",
"446 330 CURVE SMOOTH",
"500 330 OFFCURVE",
"564 330 OFFCURVE",
"658 330 CURVE",
"658 325 OFFCURVE",
"658 315 OFFCURVE",
"658 279 CURVE SMOOTH",
"658 168 OFFCURVE",
"654 97 OFFCURVE",
"646 64 CURVE SMOOTH",
"638 32 OFFCURVE",
"607 16 OFFCURVE",
"554 16 CURVE SMOOTH",
"546 16 OFFCURVE",
"540 17 OFFCURVE",
"536 18 CURVE",
"526 -3 LINE",
"622 4 OFFCURVE",
"677 8 OFFCURVE",
"689 9 CURVE",
"774 6 OFFCURVE",
"825 2 OFFCURVE",
"843 -3 CURVE",
"854 20 LINE",
"847 19 OFFCURVE",
"841 19 OFFCURVE",
"834 19 CURVE SMOOTH",
"818 19 OFFCURVE",
"803 21 OFFCURVE",
"788 25 CURVE SMOOTH",
"760 33 OFFCURVE",
"745 45 OFFCURVE",
"742 64 CURVE SMOOTH",
"735 107 OFFCURVE",
"730 279 OFFCURVE",
"730 356 CURVE SMOOTH",
"730 433 OFFCURVE",
"733 599 OFFCURVE",
"747 629 CURVE",
"761 645 OFFCURVE",
"781 653 OFFCURVE",
"807 653 CURVE SMOOTH",
"812 653 OFFCURVE",
"818 653 OFFCURVE",
"824 652 CURVE",
"838 670 LINE",
"795 666 OFFCURVE",
"747 660 OFFCURVE",
"695 660 CURVE SMOOTH",
"637 660 OFFCURVE",
"583 666 OFFCURVE",
"561 669 CURVE",
"552 649 LINE",
"564 652 OFFCURVE",
"576 653 OFFCURVE",
"586 653 CURVE SMOOTH",
"607 653 OFFCURVE",
"623 648 OFFCURVE",
"636 637 CURVE",
"651 621 OFFCURVE",
"658 530 OFFCURVE",
"658 366 CURVE",
"646 366 OFFCURVE",
"497 357 OFFCURVE",
"436 357 CURVE SMOOTH",
"399 357 OFFCURVE",
"279 361 OFFCURVE",
"224 367 CURVE",
"224 518 OFFCURVE",
"230 605 OFFCURVE",
"241 629 CURVE",
"255 645 OFFCURVE",
"275 653 OFFCURVE",
"301 653 CURVE SMOOTH",
"307 653 OFFCURVE",
"312 653 OFFCURVE",
"318 652 CURVE",
"332 670 LINE",
"289 666 OFFCURVE",
"242 660 OFFCURVE",
"189 660 CURVE SMOOTH",
"122 660 OFFCURVE",
"77 666 OFFCURVE",
"55 669 CURVE",
"46 649 LINE",
"58 652 OFFCURVE",
"70 653 OFFCURVE",
"81 653 CURVE SMOOTH",
"101 653 OFFCURVE",
"118 648 OFFCURVE",
"131 637 CURVE",
"145 621 OFFCURVE",
"152 501 OFFCURVE",
"152 349 CURVE SMOOTH",
"152 166 OFFCURVE",
"148 95 OFFCURVE",
"141 66 CURVE SMOOTH",
"137 49 OFFCURVE",
"124 36 OFFCURVE",
"101 27 CURVE SMOOTH",
"84 20 OFFCURVE",
"65 16 OFFCURVE",
"45 16 CURVE SMOOTH",
"38 16 OFFCURVE",
"33 17 OFFCURVE",
"29 18 CURVE",
"20 -3 LINE"
);
}
);
width = 874;
}
);
leftKerningGroup = H;
note = H;
rightKerningGroup = H;
unicode = 0048;
},
{
color = 3;
glyphname = I;
lastChange = "2021-08-18 00:28:35 +0000";
layers = (
{
anchors = (
{
name = bottom;
position = "{184, 0}";
},
{
name = ogonek;
position = "{355, 3}";
},
{
name = top;
position = "{184, 670}";
},
{
name = topleft;
position = "{-24, 670}";
}
);
background = {
anchors = (
{
name = bottom;
position = "{184, 0}";
},
{
name = ogonek;
position = "{355, 3}";
},
{
name = top;
position = "{184, 670}";
},
{
name = topleft;
position = "{-24, 670}";
}
);
paths = (
{
closed = 1;
nodes = (
"20 -3 LINE",
"116 4 OFFCURVE",
"171 8 OFFCURVE",
"183 9 CURVE",
"268 6 OFFCURVE",
"319 2 OFFCURVE",
"337 -3 CURVE",
"348 20 LINE",
"341 19 OFFCURVE",
"335 19 OFFCURVE",
"328 19 CURVE SMOOTH",
"313 19 OFFCURVE",
"297 21 OFFCURVE",
"282 25 CURVE SMOOTH",
"255 33 OFFCURVE",
"239 45 OFFCURVE",
"236 64 CURVE SMOOTH",
"231 93 OFFCURVE",
"227 166 OFFCURVE",
"225 283 CURVE SMOOTH",
"224 323 OFFCURVE",
"224 360 OFFCURVE",
"224 393 CURVE SMOOTH",
"224 524 OFFCURVE",
"230 602 OFFCURVE",
"241 626 CURVE",
"255 643 OFFCURVE",
"275 651 OFFCURVE",
"301 651 CURVE SMOOTH",
"306 651 OFFCURVE",
"312 650 OFFCURVE",
"318 650 CURVE",
"332 670 LINE",
"289 666 OFFCURVE",
"242 662 OFFCURVE",
"189 660 CURVE",
"122 663 OFFCURVE",
"77 666 OFFCURVE",
"55 669 CURVE",
"46 647 LINE",
"58 649 OFFCURVE",
"70 651 OFFCURVE",
"80 651 CURVE SMOOTH",
"101 651 OFFCURVE",
"118 645 OFFCURVE",
"130 635 CURVE",
"145 619 OFFCURVE",
"152 502 OFFCURVE",
"152 284 CURVE SMOOTH",
"152 170 OFFCURVE",
"148 97 OFFCURVE",
"140 64 CURVE SMOOTH",
"132 32 OFFCURVE",
"102 16 OFFCURVE",
"48 16 CURVE SMOOTH",
"41 16 OFFCURVE",
"35 17 OFFCURVE",
"30 18 CURVE",
"20 -3 LINE"
);
}
);
};
layerId = "274E8830-0A80-4149-8BE8-CF3C4CCD3F6F";
paths = (
{
closed = 1;
nodes = (
"20 -3 LINE",
"116 4 OFFCURVE",
"171 8 OFFCURVE",
"183 9 CURVE",
"268 6 OFFCURVE",
"319 2 OFFCURVE",
"337 -3 CURVE",
"348 20 LINE",
"341 19 OFFCURVE",
"335 19 OFFCURVE",
"328 19 CURVE SMOOTH",
"313 19 OFFCURVE",
"297 21 OFFCURVE",
"282 25 CURVE SMOOTH",
"255 33 OFFCURVE",
"239 45 OFFCURVE",
"236 64 CURVE SMOOTH",
"231 93 OFFCURVE",
"227 166 OFFCURVE",
"225 283 CURVE SMOOTH",
"224 323 OFFCURVE",
"224 360 OFFCURVE",
"224 393 CURVE SMOOTH",
"224 524 OFFCURVE",
"230 602 OFFCURVE",
"241 626 CURVE",
"255 643 OFFCURVE",
"275 651 OFFCURVE",
"301 651 CURVE SMOOTH",
"306 651 OFFCURVE",
"312 650 OFFCURVE",
"318 650 CURVE",
"332 670 LINE",
"289 666 OFFCURVE",
"242 662 OFFCURVE",
"189 660 CURVE",
"122 663 OFFCURVE",
"77 666 OFFCURVE",
"55 669 CURVE",
"46 647 LINE",
"58 649 OFFCURVE",
"70 651 OFFCURVE",
"80 651 CURVE SMOOTH",
"101 651 OFFCURVE",
"118 645 OFFCURVE",
"130 635 CURVE",
"145 619 OFFCURVE",
"152 502 OFFCURVE",
"152 284 CURVE SMOOTH",
"152 170 OFFCURVE",
"148 97 OFFCURVE",
"140 64 CURVE SMOOTH",
"132 32 OFFCURVE",
"102 16 OFFCURVE",
"48 16 CURVE SMOOTH",
"41 16 OFFCURVE",
"35 17 OFFCURVE",
"30 18 CURVE",
"20 -3 LINE"
);
}
);
width = 368;
}
);
leftKerningGroup = H;
leftMetricsKey = H;
note = I;
rightKerningGroup = H;
rightMetricsKey = H;
unicode = 0049;
},
{
color = 3;
glyphname = J;
lastChange = "2021-08-18 00:37:27 +0000";
layers = (
{
anchors = (
{
name = bottom;
position = "{163, 0}";
},
{
name = top;
position = "{265, 660}";
}
);
background = {
anchors = (
{
name = bottom;
position = "{163, 0}";
},
{
name = top;
position = "{265, 660}";
}
);
paths = (
{
closed = 1;
nodes = (
"213 -16 OFFCURVE",
"250 -2 OFFCURVE",
"272 26 CURVE SMOOTH",
"293 53 OFFCURVE",
"305 99 OFFCURVE",
"307 164 CURVE SMOOTH",
"307 169 OFFCURVE",
"307 175 OFFCURVE",
"307 182 CURVE SMOOTH",
"307 199 OFFCURVE",
"306 241 OFFCURVE",
"304 309 CURVE SMOOTH",
"302 377 OFFCURVE",
"301 429 OFFCURVE",
"301 466 CURVE SMOOTH",
"301 557 OFFCURVE",
"306 611 OFFCURVE",
"317 629 CURVE",
"331 645 OFFCURVE",
"351 653 OFFCURVE",
"377 653 CURVE SMOOTH",
"382 653 OFFCURVE",
"388 653 OFFCURVE",
"394 652 CURVE",
"408 670 LINE",
"365 666 OFFCURVE",
"318 662 OFFCURVE",
"265 660 CURVE",
"198 663 OFFCURVE",
"153 666 OFFCURVE",
"131 669 CURVE",
"122 649 LINE",
"134 652 OFFCURVE",
"146 653 OFFCURVE",
"156 653 CURVE SMOOTH",
"177 653 OFFCURVE",
"194 648 OFFCURVE",
"206 637 CURVE",
"221 621 OFFCURVE",
"228 503 OFFCURVE",
"228 284 CURVE SMOOTH",
"228 213 OFFCURVE",
"227 167 OFFCURVE",
"227 147 CURVE SMOOTH",
"223 56 OFFCURVE",
"190 10 OFFCURVE",
"128 10 CURVE SMOOTH",
"92 10 OFFCURVE",
"70 29 OFFCURVE",
"62 67 CURVE SMOOTH",
"59 81 OFFCURVE",
"57 96 OFFCURVE",
"57 112 CURVE SMOOTH",
"57 124 OFFCURVE",
"58 136 OFFCURVE",
"60 149 CURVE",
"47 153 LINE",
"39 62 OFFCURVE",
"29 16 OFFCURVE",
"16 17 CURVE",
"14 12 LINE",
"49 -1 OFFCURVE",
"78 -9 OFFCURVE",
"104 -12 CURVE SMOOTH",
"126 -15 OFFCURVE",
"145 -16 OFFCURVE",
"163 -16 CURVE",
"163 -16 LINE"
);
}
);
};
layerId = "274E8830-0A80-4149-8BE8-CF3C4CCD3F6F";
paths = (
{
closed = 1;
nodes = (
"213 -16 OFFCURVE",
"250 -2 OFFCURVE",
"272 26 CURVE SMOOTH",
"293 53 OFFCURVE",
"305 99 OFFCURVE",
"307 164 CURVE SMOOTH",
"307 169 OFFCURVE",
"307 175 OFFCURVE",
"307 182 CURVE SMOOTH",
"307 199 OFFCURVE",
"306 241 OFFCURVE",
"304 309 CURVE SMOOTH",
"302 377 OFFCURVE",
"301 429 OFFCURVE",
"301 466 CURVE SMOOTH",
"301 557 OFFCURVE",
"306 611 OFFCURVE",
"317 629 CURVE",
"331 645 OFFCURVE",
"351 653 OFFCURVE",
"377 653 CURVE SMOOTH",
"382 653 OFFCURVE",
"388 653 OFFCURVE",
"394 652 CURVE",
"408 670 LINE",
"365 666 OFFCURVE",
"318 662 OFFCURVE",
"265 660 CURVE",
"198 663 OFFCURVE",
"153 666 OFFCURVE",
"131 669 CURVE",
"122 649 LINE",
"134 652 OFFCURVE",
"146 653 OFFCURVE",
"156 653 CURVE SMOOTH",
"177 653 OFFCURVE",
"194 648 OFFCURVE",
"206 637 CURVE",
"221 621 OFFCURVE",
"228 503 OFFCURVE",
"228 284 CURVE SMOOTH",
"228 213 OFFCURVE",
"227 167 OFFCURVE",
"227 147 CURVE SMOOTH",
"223 56 OFFCURVE",
"190 10 OFFCURVE",
"128 10 CURVE SMOOTH",
"92 10 OFFCURVE",
"70 29 OFFCURVE",
"62 67 CURVE SMOOTH",
"59 81 OFFCURVE",
"57 96 OFFCURVE",
"57 112 CURVE SMOOTH",
"57 124 OFFCURVE",
"58 136 OFFCURVE",
"60 149 CURVE",
"47 153 LINE",
"39 62 OFFCURVE",
"29 16 OFFCURVE",
"16 17 CURVE",
"14 12 LINE",
"49 -1 OFFCURVE",
"78 -9 OFFCURVE",
"104 -12 CURVE SMOOTH",
"126 -15 OFFCURVE",
"145 -16 OFFCURVE",
"163 -16 CURVE",
"163 -16 LINE"
);
}
);
width = 418;
}
);
leftKerningGroup = J;
note = J;
rightKerningGroup = J;
rightMetricsKey = "=H-10";
unicode = 004A;
},
{
color = 3;
glyphname = K;
lastChange = "2021-08-18 00:37:30 +0000";
layers = (
{
anchors = (
{
name = bottom;
position = "{437, 0}";
},
{
name = top;
position = "{370, 670}";
}
);
background = {
anchors = (
{
name = bottom;
position = "{437, 0}";
},
{
name = top;
position = "{370, 670}";
}
);
paths = (
{
closed = 1;
nodes = (
"678 -5 OFFCURVE",
"715 0 OFFCURVE",
"760 9 CURVE",
"769 29 LINE",
"764 28 OFFCURVE",
"759 28 OFFCURVE",
"754 28 CURVE SMOOTH",
"715 28 OFFCURVE",
"670 45 OFFCURVE",
"620 79 CURVE SMOOTH",
"561 119 OFFCURVE",
"506 168 OFFCURVE",
"457 224 CURVE SMOOTH",
"377 317 OFFCURVE",
"334 366 OFFCURVE",
"328 372 CURVE",
"471 518 OFFCURVE",
"567 604 OFFCURVE",
"615 630 CURVE SMOOTH",
"639 644 OFFCURVE",
"660 650 OFFCURVE",
"680 650 CURVE",
"690 664 LINE",
"636 660 OFFCURVE",
"589 656 OFFCURVE",
"549 654 CURVE",
"478 659 OFFCURVE",
"436 662 OFFCURVE",
"425 664 CURVE",
"412 647 LINE",
"420 648 OFFCURVE",
"428 649 OFFCURVE",
"437 649 CURVE SMOOTH",
"477 649 OFFCURVE",
"498 636 OFFCURVE",
"500 612 CURVE SMOOTH",
"502 588 OFFCURVE",
"423 501 OFFCURVE",
"263 348 CURVE",
"305 299 OFFCURVE",
"341 256 OFFCURVE",
"371 217 CURVE SMOOTH",
"488 73 LINE SMOOTH",
"529 21 OFFCURVE",
"584 -5 OFFCURVE",
"650 -5 CURVE",
"650 -5 LINE"
);
},
{
closed = 1;
nodes = (
"20 -3 LINE",
"116 4 OFFCURVE",
"171 8 OFFCURVE",
"183 9 CURVE",
"268 6 OFFCURVE",
"319 2 OFFCURVE",
"337 -3 CURVE",
"348 20 LINE",
"341 19 OFFCURVE",
"335 19 OFFCURVE",
"328 19 CURVE SMOOTH",
"313 19 OFFCURVE",
"297 21 OFFCURVE",
"282 25 CURVE SMOOTH",
"255 33 OFFCURVE",
"239 45 OFFCURVE",
"236 64 CURVE SMOOTH",
"229 101 OFFCURVE",
"225 168 OFFCURVE",
"225 263 CURVE SMOOTH",
"224 378 LINE",
"224 409 LINE SMOOTH",
"224 532 OFFCURVE",
"230 605 OFFCURVE",
"241 629 CURVE",
"255 645 OFFCURVE",
"275 653 OFFCURVE",
"301 653 CURVE SMOOTH",
"306 653 OFFCURVE",
"312 653 OFFCURVE",
"318 652 CURVE",
"332 670 LINE",
"289 666 OFFCURVE",
"242 662 OFFCURVE",
"189 660 CURVE",
"122 663 OFFCURVE",
"77 666 OFFCURVE",
"55 669 CURVE",
"46 649 LINE",
"58 652 OFFCURVE",
"70 653 OFFCURVE",
"80 653 CURVE SMOOTH",
"101 653 OFFCURVE",
"118 648 OFFCURVE",
"130 637 CURVE",
"145 621 OFFCURVE",
"151 540 OFFCURVE",
"152 393 CURVE SMOOTH",
"152 284 LINE",
"152 275 LINE SMOOTH",
"152 167 OFFCURVE",
"148 98 OFFCURVE",
"140 66 CURVE SMOOTH",
"136 49 OFFCURVE",
"123 36 OFFCURVE",
"101 27 CURVE SMOOTH",
"83 20 OFFCURVE",
"64 16 OFFCURVE",
"44 16 CURVE SMOOTH",
"38 16 OFFCURVE",
"33 17 OFFCURVE",
"28 18 CURVE",
"20 -3 LINE"
);
}
);
};
layerId = "274E8830-0A80-4149-8BE8-CF3C4CCD3F6F";
paths = (
{
closed = 1;
nodes = (
"678 -5 OFFCURVE",
"715 0 OFFCURVE",
"760 9 CURVE",
"769 29 LINE",
"764 28 OFFCURVE",
"759 28 OFFCURVE",
"754 28 CURVE SMOOTH",
"715 28 OFFCURVE",
"670 45 OFFCURVE",
"620 79 CURVE SMOOTH",
"561 119 OFFCURVE",
"506 168 OFFCURVE",
"457 224 CURVE SMOOTH",
"377 317 OFFCURVE",
"334 366 OFFCURVE",
"328 372 CURVE",
"471 518 OFFCURVE",
"567 604 OFFCURVE",
"615 630 CURVE SMOOTH",
"639 644 OFFCURVE",
"660 650 OFFCURVE",
"680 650 CURVE",
"690 664 LINE",
"636 660 OFFCURVE",
"589 656 OFFCURVE",
"549 654 CURVE",
"478 659 OFFCURVE",
"436 662 OFFCURVE",
"425 664 CURVE",
"412 647 LINE",
"420 648 OFFCURVE",
"428 649 OFFCURVE",
"437 649 CURVE SMOOTH",
"477 649 OFFCURVE",
"498 636 OFFCURVE",
"500 612 CURVE SMOOTH",
"502 588 OFFCURVE",
"423 501 OFFCURVE",
"263 348 CURVE",
"305 299 OFFCURVE",
"341 256 OFFCURVE",
"371 217 CURVE SMOOTH",
"488 73 LINE SMOOTH",
"529 21 OFFCURVE",
"584 -5 OFFCURVE",
"650 -5 CURVE",
"650 -5 LINE"
);
},
{
closed = 1;
nodes = (
"20 -3 LINE",
"116 4 OFFCURVE",
"171 8 OFFCURVE",
"183 9 CURVE",
"268 6 OFFCURVE",
"319 2 OFFCURVE",
"337 -3 CURVE",
"348 20 LINE",
"341 19 OFFCURVE",
"335 19 OFFCURVE",
"328 19 CURVE SMOOTH",
"313 19 OFFCURVE",
"297 21 OFFCURVE",
"282 25 CURVE SMOOTH",
"255 33 OFFCURVE",
"239 45 OFFCURVE",
"236 64 CURVE SMOOTH",
"229 101 OFFCURVE",
"225 168 OFFCURVE",
"225 263 CURVE SMOOTH",
"224 378 LINE",
"224 409 LINE SMOOTH",
"224 532 OFFCURVE",
"230 605 OFFCURVE",
"241 629 CURVE",
"255 645 OFFCURVE",
"275 653 OFFCURVE",
"301 653 CURVE SMOOTH",
"306 653 OFFCURVE",
"312 653 OFFCURVE",
"318 652 CURVE",
"332 670 LINE",
"289 666 OFFCURVE",
"242 662 OFFCURVE",
"189 660 CURVE",
"122 663 OFFCURVE",
"77 666 OFFCURVE",
"55 669 CURVE",
"46 649 LINE",
"58 652 OFFCURVE",
"70 653 OFFCURVE",
"80 653 CURVE SMOOTH",
"101 653 OFFCURVE",
"118 648 OFFCURVE",
"130 637 CURVE",
"145 621 OFFCURVE",
"151 540 OFFCURVE",
"152 393 CURVE SMOOTH",
"152 284 LINE",
"152 275 LINE SMOOTH",
"152 167 OFFCURVE",
"148 98 OFFCURVE",
"140 66 CURVE SMOOTH",
"136 49 OFFCURVE",
"123 36 OFFCURVE",
"101 27 CURVE SMOOTH",
"83 20 OFFCURVE",
"64 16 OFFCURVE",
"44 16 CURVE SMOOTH",
"38 16 OFFCURVE",
"33 17 OFFCURVE",
"28 18 CURVE",
"20 -3 LINE"
);
}
);
width = 752;
}
);
leftKerningGroup = H;
leftMetricsKey = H;
note = K;
rightKerningGroup = K;
unicode = 004B;
},
{
color = 3;
glyphname = L;
lastChange = "2021-08-18 00:28:35 +0000";
layers = (
{
anchors = (
{
name = bottom;
position = "{359, 0}";
},
{
name = center;
position = "{297, 335}";
},
{
name = top;
position = "{187, 660}";
},
{
name = topright;
position = "{381, 687}";
}
);
background = {
anchors = (
{
name = bottom;
position = "{359, 0}";
},
{
name = center;
position = "{297, 335}";
},
{
name = top;
position = "{187, 660}";
},
{
name = topright;
position = "{381, 687}";
}
);
paths = (
{
closed = 1;
nodes = (
"512 -7 OFFCURVE",
"522 -4 OFFCURVE",
"528 2 CURVE SMOOTH",
"534 8 OFFCURVE",
"538 20 OFFCURVE",
"541 37 CURVE SMOOTH",
"547 77 OFFCURVE",
"556 110 OFFCURVE",
"568 137 CURVE",
"554 142 LINE",
"552 131 OFFCURVE",
"545 115 OFFCURVE",
"533 94 CURVE SMOOTH",
"520 73 OFFCURVE",
"508 58 OFFCURVE",
"496 50 CURVE SMOOTH",
"475 35 OFFCURVE",
"431 27 OFFCURVE",
"366 27 CURVE SMOOTH",
"348 27 OFFCURVE",
"331 28 OFFCURVE",
"315 30 CURVE SMOOTH",
"284 34 OFFCURVE",
"263 39 OFFCURVE",
"253 45 CURVE SMOOTH",
"243 50 OFFCURVE",
"237 60 OFFCURVE",
"234 74 CURVE SMOOTH",
"229 102 OFFCURVE",
"226 137 OFFCURVE",
"224 178 CURVE SMOOTH",
"223 213 OFFCURVE",
"223 248 OFFCURVE",
"222 283 CURVE SMOOTH",
"222 323 OFFCURVE",
"221 360 OFFCURVE",
"221 394 CURVE SMOOTH",
"221 526 OFFCURVE",
"227 604 OFFCURVE",
"239 629 CURVE",
"253 645 OFFCURVE",
"272 653 OFFCURVE",
"299 653 CURVE SMOOTH",
"304 653 OFFCURVE",
"310 653 OFFCURVE",
"316 652 CURVE",
"330 670 LINE",
"287 666 OFFCURVE",
"239 662 OFFCURVE",
"187 660 CURVE",
"119 663 OFFCURVE",
"74 666 OFFCURVE",
"53 669 CURVE",
"43 649 LINE",
"56 652 OFFCURVE",
"67 653 OFFCURVE",
"78 653 CURVE SMOOTH",
"99 653 OFFCURVE",
"115 648 OFFCURVE",
"128 637 CURVE",
"142 621 OFFCURVE",
"149 503 OFFCURVE",
"149 284 CURVE SMOOTH",
"149 165 OFFCURVE",
"146 92 OFFCURVE",
"140 66 CURVE SMOOTH",
"136 49 OFFCURVE",
"123 36 OFFCURVE",
"101 27 CURVE SMOOTH",
"83 20 OFFCURVE",
"65 16 OFFCURVE",
"44 16 CURVE SMOOTH",
"38 16 OFFCURVE",
"33 17 OFFCURVE",
"29 18 CURVE",
"20 -3 LINE",
"103 4 OFFCURVE",
"153 7 OFFCURVE",
"169 8 CURVE SMOOTH",
"181 9 OFFCURVE",
"195 9 OFFCURVE",
"212 9 CURVE SMOOTH",
"244 9 OFFCURVE",
"333 4 OFFCURVE",
"478 -6 CURVE SMOOTH",
"485 -7 OFFCURVE",
"491 -7 OFFCURVE",
"496 -7 CURVE",
"496 -7 LINE"
);
}
);
};
layerId = "274E8830-0A80-4149-8BE8-CF3C4CCD3F6F";
paths = (
{
closed = 1;
nodes = (
"512 -7 OFFCURVE",
"522 -4 OFFCURVE",
"528 2 CURVE SMOOTH",
"534 8 OFFCURVE",
"538 20 OFFCURVE",
"541 37 CURVE SMOOTH",
"547 77 OFFCURVE",
"556 110 OFFCURVE",
"568 137 CURVE",
"554 142 LINE",
"552 131 OFFCURVE",
"545 115 OFFCURVE",
"533 94 CURVE SMOOTH",
"520 73 OFFCURVE",
"508 58 OFFCURVE",
"496 50 CURVE SMOOTH",
"475 35 OFFCURVE",
"431 27 OFFCURVE",
"366 27 CURVE SMOOTH",
"348 27 OFFCURVE",
"331 28 OFFCURVE",
"315 30 CURVE SMOOTH",
"284 34 OFFCURVE",
"263 39 OFFCURVE",
"253 45 CURVE SMOOTH",
"243 50 OFFCURVE",
"237 60 OFFCURVE",
"234 74 CURVE SMOOTH",
"229 102 OFFCURVE",
"226 137 OFFCURVE",
"224 178 CURVE SMOOTH",
"223 213 OFFCURVE",
"223 248 OFFCURVE",
"222 283 CURVE SMOOTH",
"222 323 OFFCURVE",
"221 360 OFFCURVE",
"221 394 CURVE SMOOTH",
"221 526 OFFCURVE",
"227 604 OFFCURVE",
"239 629 CURVE",
"253 645 OFFCURVE",
"272 653 OFFCURVE",
"299 653 CURVE SMOOTH",
"304 653 OFFCURVE",
"310 653 OFFCURVE",
"316 652 CURVE",
"330 670 LINE",
"287 666 OFFCURVE",
"239 662 OFFCURVE",
"187 660 CURVE",
"119 663 OFFCURVE",
"74 666 OFFCURVE",
"53 669 CURVE",
"43 649 LINE",
"56 652 OFFCURVE",
"67 653 OFFCURVE",
"78 653 CURVE SMOOTH",
"99 653 OFFCURVE",
"115 648 OFFCURVE",
"128 637 CURVE",
"142 621 OFFCURVE",
"149 503 OFFCURVE",
"149 284 CURVE SMOOTH",
"149 165 OFFCURVE",
"146 92 OFFCURVE",
"140 66 CURVE SMOOTH",
"136 49 OFFCURVE",
"123 36 OFFCURVE",
"101 27 CURVE SMOOTH",
"83 20 OFFCURVE",
"65 16 OFFCURVE",
"44 16 CURVE SMOOTH",
"38 16 OFFCURVE",
"33 17 OFFCURVE",
"29 18 CURVE",
"20 -3 LINE",
"103 4 OFFCURVE",
"153 7 OFFCURVE",
"169 8 CURVE SMOOTH",
"181 9 OFFCURVE",
"195 9 OFFCURVE",
"212 9 CURVE SMOOTH",
"244 9 OFFCURVE",
"333 4 OFFCURVE",
"478 -6 CURVE SMOOTH",
"485 -7 OFFCURVE",
"491 -7 OFFCURVE",
"496 -7 CURVE",
"496 -7 LINE"
);
}
);
width = 576;
}
);
leftKerningGroup = H;
leftMetricsKey = H;
note = L;
rightKerningGroup = L;
unicode = 004C;
},
{
glyphname = Lslash;
lastChange = "2021-08-12 01:25:21 +0000";
layers = (
{
background = {
paths = (
{
closed = 1;
nodes = (
"8 -8 LINE",
"89 -2 OFFCURVE",
"137 2 OFFCURVE",
"152 3 CURVE SMOOTH",
"173 4 OFFCURVE",
"197 5 OFFCURVE",
"224 5 CURVE SMOOTH",
"274 5 OFFCURVE",
"351 1 OFFCURVE",
"455 -6 CURVE SMOOTH",
"462 -7 OFFCURVE",
"468 -7 OFFCURVE",
"473 -7 CURVE SMOOTH",
"488 -7 OFFCURVE",
"498 -4 OFFCURVE",
"504 2 CURVE SMOOTH",
"510 8 OFFCURVE",
"514 19 OFFCURVE",
"516 36 CURVE SMOOTH",
"521 70 OFFCURVE",
"530 101 OFFCURVE",
"542 129 CURVE",
"529 133 LINE",
"527 122 OFFCURVE",
"521 107 OFFCURVE",
"509 87 CURVE SMOOTH",
"496 66 OFFCURVE",
"484 52 OFFCURVE",
"474 44 CURVE SMOOTH",
"452 29 OFFCURVE",
"409 21 OFFCURVE",
"344 21 CURVE SMOOTH",
"327 21 OFFCURVE",
"312 22 OFFCURVE",
"297 24 CURVE SMOOTH",
"265 28 OFFCURVE",
"245 32 OFFCURVE",
"236 36 CURVE SMOOTH",
"226 40 OFFCURVE",
"220 49 OFFCURVE",
"218 62 CURVE SMOOTH",
"213 89 OFFCURVE",
"209 160 OFFCURVE",
"207 275 CURVE SMOOTH",
"206 314 OFFCURVE",
"206 350 OFFCURVE",
"206 383 CURVE SMOOTH",
"206 511 OFFCURVE",
"212 587 OFFCURVE",
"223 610 CURVE",
"236 626 OFFCURVE",
"256 634 OFFCURVE",
"281 634 CURVE SMOOTH",
"286 634 OFFCURVE",
"292 634 OFFCURVE",
"297 633 CURVE",
"311 651 LINE",
"269 646 OFFCURVE",
"223 643 OFFCURVE",
"172 641 CURVE",
"107 644 OFFCURVE",
"63 647 OFFCURVE",
"42 649 CURVE",
"33 630 LINE",
"45 633 OFFCURVE",
"57 634 OFFCURVE",
"67 634 CURVE SMOOTH",
"87 634 OFFCURVE",
"103 629 OFFCURVE",
"115 619 CURVE",
"129 603 OFFCURVE",
"136 489 OFFCURVE",
"136 276 CURVE SMOOTH",
"136 162 OFFCURVE",
"132 89 OFFCURVE",
"124 57 CURVE SMOOTH",
"120 40 OFFCURVE",
"107 28 OFFCURVE",
"86 19 CURVE SMOOTH",
"69 12 OFFCURVE",
"50 9 OFFCURVE",
"30 9 CURVE SMOOTH",
"24 9 OFFCURVE",
"19 9 OFFCURVE",
"15 10 CURVE",
"8 -8 LINE"
);
}
);
};
layerId = "274E8830-0A80-4149-8BE8-CF3C4CCD3F6F";
paths = (
{
closed = 1;
nodes = (
"8 -8 LINE",
"89 -2 OFFCURVE",
"137 2 OFFCURVE",
"152 3 CURVE SMOOTH",
"173 4 OFFCURVE",
"197 5 OFFCURVE",
"224 5 CURVE SMOOTH",
"274 5 OFFCURVE",
"351 1 OFFCURVE",
"455 -6 CURVE SMOOTH",
"462 -7 OFFCURVE",
"468 -7 OFFCURVE",
"473 -7 CURVE SMOOTH",
"488 -7 OFFCURVE",
"498 -4 OFFCURVE",
"504 2 CURVE SMOOTH",
"510 8 OFFCURVE",
"514 19 OFFCURVE",
"516 36 CURVE SMOOTH",
"521 70 OFFCURVE",
"530 101 OFFCURVE",
"542 129 CURVE",
"529 133 LINE",
"527 122 OFFCURVE",
"521 107 OFFCURVE",
"509 87 CURVE SMOOTH",
"496 66 OFFCURVE",
"484 52 OFFCURVE",
"474 44 CURVE SMOOTH",
"452 29 OFFCURVE",
"409 21 OFFCURVE",
"344 21 CURVE SMOOTH",
"327 21 OFFCURVE",
"312 22 OFFCURVE",
"297 24 CURVE SMOOTH",
"265 28 OFFCURVE",
"245 32 OFFCURVE",
"236 36 CURVE SMOOTH",
"226 40 OFFCURVE",
"220 49 OFFCURVE",
"218 62 CURVE SMOOTH",
"213 89 OFFCURVE",
"209 160 OFFCURVE",
"207 275 CURVE SMOOTH",
"206 314 OFFCURVE",
"206 350 OFFCURVE",
"206 383 CURVE SMOOTH",
"206 511 OFFCURVE",
"212 587 OFFCURVE",
"223 610 CURVE",
"236 626 OFFCURVE",
"256 634 OFFCURVE",
"281 634 CURVE SMOOTH",
"286 634 OFFCURVE",
"292 634 OFFCURVE",
"297 633 CURVE",
"311 651 LINE",
"269 646 OFFCURVE",
"223 643 OFFCURVE",
"172 641 CURVE",
"107 644 OFFCURVE",
"63 647 OFFCURVE",
"42 649 CURVE",
"33 630 LINE",
"45 633 OFFCURVE",
"57 634 OFFCURVE",
"67 634 CURVE SMOOTH",
"87 634 OFFCURVE",
"103 629 OFFCURVE",
"115 619 CURVE",
"129 603 OFFCURVE",
"136 489 OFFCURVE",
"136 276 CURVE SMOOTH",
"136 162 OFFCURVE",
"132 89 OFFCURVE",
"124 57 CURVE SMOOTH",
"120 40 OFFCURVE",
"107 28 OFFCURVE",
"86 19 CURVE SMOOTH",
"69 12 OFFCURVE",
"50 9 OFFCURVE",
"30 9 CURVE SMOOTH",
"24 9 OFFCURVE",
"19 9 OFFCURVE",
"15 10 CURVE",
"8 -8 LINE"
);
}
);
width = 559;
}
);
leftKerningGroup = H;
note = Lslash;
rightKerningGroup = L;
unicode = 0141;
},
{
color = 3;
glyphname = M;
lastChange = "2021-08-18 00:28:35 +0000";
layers = (
{
background = {
paths = (
{
closed = 1;
nodes = (
"452 -27 LINE",
"462 20 OFFCURVE",
"492 107 OFFCURVE",
"542 234 CURVE SMOOTH",
"596 372 OFFCURVE",
"643 475 OFFCURVE",
"684 545 CURVE",
"697 424 OFFCURVE",
"705 335 OFFCURVE",
"709 276 CURVE SMOOTH",
"715 197 OFFCURVE",
"718 140 OFFCURVE",
"718 103 CURVE SMOOTH",
"718 85 OFFCURVE",
"717 72 OFFCURVE",
"716 64 CURVE SMOOTH",
"713 48 OFFCURVE",
"700 35 OFFCURVE",
"678 26 CURVE SMOOTH",
"661 19 OFFCURVE",
"643 16 OFFCURVE",
"622 16 CURVE SMOOTH",
"616 16 OFFCURVE",
"611 16 OFFCURVE",
"607 17 CURVE",
"597 -3 LINE",
"691 4 OFFCURVE",
"744 8 OFFCURVE",
"755 8 CURVE",
"838 6 OFFCURVE",
"888 2 OFFCURVE",
"905 -3 CURVE",
"916 20 LINE",
"909 19 OFFCURVE",
"903 19 OFFCURVE",
"897 19 CURVE SMOOTH",
"881 19 OFFCURVE",
"867 21 OFFCURVE",
"852 25 CURVE SMOOTH",
"826 32 OFFCURVE",
"811 44 OFFCURVE",
"807 62 CURVE SMOOTH",
"799 91 OFFCURVE",
"790 161 OFFCURVE",
"780 275 CURVE SMOOTH",
"770 376 OFFCURVE",
"766 463 OFFCURVE",
"766 535 CURVE SMOOTH",
"766 576 OFFCURVE",
"767 601 OFFCURVE",
"771 610 CURVE",
"783 626 OFFCURVE",
"802 634 OFFCURVE",
"827 634 CURVE SMOOTH",
"833 634 OFFCURVE",
"838 634 OFFCURVE",
"844 633 CURVE",
"856 651 LINE",
"797 644 OFFCURVE",
"752 640 OFFCURVE",
"721 639 CURVE",
"698 640 LINE SMOOTH",
"689 640 OFFCURVE",
"681 641 OFFCURVE",
"675 641 CURVE SMOOTH",
"671 641 OFFCURVE",
"668 640 OFFCURVE",
"665 640 CURVE SMOOTH",
"654 640 OFFCURVE",
"649 638 OFFCURVE",
"649 636 CURVE SMOOTH",
"649 610 OFFCURVE",
"621 522 OFFCURVE",
"564 372 CURVE SMOOTH",
"513 235 OFFCURVE",
"477 145 OFFCURVE",
"455 101 CURVE SMOOTH",
"452 95 OFFCURVE",
"450 92 OFFCURVE",
"447 92 CURVE SMOOTH",
"445 92 OFFCURVE",
"442 96 OFFCURVE",
"439 103 CURVE SMOOTH",
"413 171 OFFCURVE",
"393 223 OFFCURVE",
"381 258 CURVE SMOOTH",
"338 372 OFFCURVE",
"305 470 OFFCURVE",
"284 551 CURVE SMOOTH",
"273 595 OFFCURVE",
"267 624 OFFCURVE",
"267 640 CURVE",
"235 643 OFFCURVE",
"209 645 OFFCURVE",
"189 645 CURVE SMOOTH",
"184 645 OFFCURVE",
"179 645 OFFCURVE",
"175 644 CURVE",
"135 646 OFFCURVE",
"110 648 OFFCURVE",
"98 649 CURVE",
"89 630 LINE",
"95 631 OFFCURVE",
"103 632 OFFCURVE",
"111 632 CURVE SMOOTH",
"145 632 OFFCURVE",
"163 619 OFFCURVE",
"168 594 CURVE",
"146 337 LINE SMOOTH",
"138 233 OFFCURVE",
"124 139 OFFCURVE",
"103 55 CURVE SMOOTH",
"97 29 OFFCURVE",
"74 16 OFFCURVE",
"32 16 CURVE",
"23 -4 LINE",
"41 1 OFFCURVE",
"80 5 OFFCURVE",
"140 9 CURVE",
"210 4 OFFCURVE",
"251 1 OFFCURVE",
"262 -1 CURVE",
"273 20 LINE",
"265 20 OFFCURVE",
"258 19 OFFCURVE",
"251 19 CURVE SMOOTH",
"209 19 OFFCURVE",
"184 33 OFFCURVE",
"176 59 CURVE SMOOTH",
"172 74 OFFCURVE",
"170 99 OFFCURVE",
"170 134 CURVE SMOOTH",
"170 176 OFFCURVE",
"174 244 OFFCURVE",
"181 339 CURVE SMOOTH",
"186 412 OFFCURVE",
"193 485 OFFCURVE",
"201 558 CURVE",
"250 428 OFFCURVE",
"286 328 OFFCURVE",
"310 259 CURVE SMOOTH",
"331 201 OFFCURVE",
"348 154 OFFCURVE",
"360 117 CURVE SMOOTH",
"369 87 OFFCURVE",
"376 65 OFFCURVE",
"381 50 CURVE SMOOTH",
"385 39 OFFCURVE",
"395 25 OFFCURVE",
"411 8 CURVE SMOOTH",
"429 -12 OFFCURVE",
"439 -25 OFFCURVE",
"443 -32 CURVE",
"443 -32 LINE"
);
}
);
};
layerId = "274E8830-0A80-4149-8BE8-CF3C4CCD3F6F";
paths = (
{
closed = 1;
nodes = (
"452 -27 LINE",
"462 20 OFFCURVE",
"492 107 OFFCURVE",
"542 234 CURVE SMOOTH",
"596 372 OFFCURVE",
"643 475 OFFCURVE",
"684 545 CURVE",
"697 424 OFFCURVE",
"705 335 OFFCURVE",
"709 276 CURVE SMOOTH",
"715 197 OFFCURVE",
"718 140 OFFCURVE",
"718 103 CURVE SMOOTH",
"718 85 OFFCURVE",
"717 72 OFFCURVE",
"716 64 CURVE SMOOTH",
"713 48 OFFCURVE",
"700 35 OFFCURVE",
"678 26 CURVE SMOOTH",
"661 19 OFFCURVE",
"643 16 OFFCURVE",
"622 16 CURVE SMOOTH",
"616 16 OFFCURVE",
"611 16 OFFCURVE",
"607 17 CURVE",
"597 -3 LINE",
"691 4 OFFCURVE",
"744 8 OFFCURVE",
"755 8 CURVE",
"838 6 OFFCURVE",
"888 2 OFFCURVE",
"905 -3 CURVE",
"916 20 LINE",
"909 19 OFFCURVE",
"903 19 OFFCURVE",
"897 19 CURVE SMOOTH",
"881 19 OFFCURVE",
"867 21 OFFCURVE",
"852 25 CURVE SMOOTH",
"826 32 OFFCURVE",
"811 44 OFFCURVE",
"807 62 CURVE SMOOTH",
"799 91 OFFCURVE",
"790 161 OFFCURVE",
"780 275 CURVE SMOOTH",
"770 376 OFFCURVE",
"766 463 OFFCURVE",
"766 535 CURVE SMOOTH",
"766 576 OFFCURVE",
"767 601 OFFCURVE",
"771 610 CURVE",
"783 626 OFFCURVE",
"802 634 OFFCURVE",
"827 634 CURVE SMOOTH",
"833 634 OFFCURVE",
"838 634 OFFCURVE",
"844 633 CURVE",
"856 651 LINE",
"797 644 OFFCURVE",
"752 640 OFFCURVE",
"721 639 CURVE",
"698 640 LINE SMOOTH",
"689 640 OFFCURVE",
"681 641 OFFCURVE",
"675 641 CURVE SMOOTH",
"671 641 OFFCURVE",
"668 640 OFFCURVE",
"665 640 CURVE SMOOTH",
"654 640 OFFCURVE",
"649 638 OFFCURVE",
"649 636 CURVE SMOOTH",
"649 610 OFFCURVE",
"621 522 OFFCURVE",
"564 372 CURVE SMOOTH",
"513 235 OFFCURVE",
"477 145 OFFCURVE",
"455 101 CURVE SMOOTH",
"452 95 OFFCURVE",
"450 92 OFFCURVE",
"447 92 CURVE SMOOTH",
"445 92 OFFCURVE",
"442 96 OFFCURVE",
"439 103 CURVE SMOOTH",
"413 171 OFFCURVE",
"393 223 OFFCURVE",
"381 258 CURVE SMOOTH",
"338 372 OFFCURVE",
"305 470 OFFCURVE",
"284 551 CURVE SMOOTH",
"273 595 OFFCURVE",
"267 624 OFFCURVE",
"267 640 CURVE",
"235 643 OFFCURVE",
"209 645 OFFCURVE",
"189 645 CURVE SMOOTH",
"184 645 OFFCURVE",
"179 645 OFFCURVE",
"175 644 CURVE",
"135 646 OFFCURVE",
"110 648 OFFCURVE",
"98 649 CURVE",
"89 630 LINE",
"95 631 OFFCURVE",
"103 632 OFFCURVE",
"111 632 CURVE SMOOTH",
"145 632 OFFCURVE",
"163 619 OFFCURVE",
"168 594 CURVE",
"146 337 LINE SMOOTH",
"138 233 OFFCURVE",
"124 139 OFFCURVE",
"103 55 CURVE SMOOTH",
"97 29 OFFCURVE",
"74 16 OFFCURVE",
"32 16 CURVE",
"23 -4 LINE",
"41 1 OFFCURVE",
"80 5 OFFCURVE",
"140 9 CURVE",
"210 4 OFFCURVE",
"251 1 OFFCURVE",
"262 -1 CURVE",
"273 20 LINE",
"265 20 OFFCURVE",
"258 19 OFFCURVE",
"251 19 CURVE SMOOTH",
"209 19 OFFCURVE",
"184 33 OFFCURVE",
"176 59 CURVE SMOOTH",
"172 74 OFFCURVE",
"170 99 OFFCURVE",
"170 134 CURVE SMOOTH",
"170 176 OFFCURVE",
"174 244 OFFCURVE",
"181 339 CURVE SMOOTH",
"186 412 OFFCURVE",
"193 485 OFFCURVE",
"201 558 CURVE",
"250 428 OFFCURVE",
"286 328 OFFCURVE",
"310 259 CURVE SMOOTH",
"331 201 OFFCURVE",
"348 154 OFFCURVE",
"360 117 CURVE SMOOTH",
"369 87 OFFCURVE",
"376 65 OFFCURVE",
"381 50 CURVE SMOOTH",
"385 39 OFFCURVE",
"395 25 OFFCURVE",
"411 8 CURVE SMOOTH",
"429 -12 OFFCURVE",
"439 -25 OFFCURVE",
"443 -32 CURVE",
"443 -32 LINE"
);
}
);
width = 933;
}
);
leftKerningGroup = M;
note = M;
rightKerningGroup = M;
unicode = 004D;
},
{
color = 3;
glyphname = N;
lastChange = "2021-08-18 00:28:35 +0000";
layers = (
{
anchors = (
{
name = bottom;
position = "{450, 0}";
},
{
name = top;
position = "{451, 670}";
}
);
background = {
anchors = (
{
name = bottom;
position = "{450, 0}";
},
{
name = top;
position = "{451, 670}";
}
);
paths = (
{
closed = 1;
nodes = (
"719 -54 LINE",
"710 -8 OFFCURVE",
"706 85 OFFCURVE",
"706 225 CURVE SMOOTH",
"706 441 OFFCURVE",
"711 573 OFFCURVE",
"723 620 CURVE SMOOTH",
"729 647 OFFCURVE",
"754 660 OFFCURVE",
"796 660 CURVE",
"803 673 LINE",
"784 668 OFFCURVE",
"744 664 OFFCURVE",
"683 660 CURVE",
"613 664 OFFCURVE",
"572 668 OFFCURVE",
"559 670 CURVE",
"551 653 LINE",
"565 655 OFFCURVE",
"577 656 OFFCURVE",
"587 656 CURVE SMOOTH",
"621 656 OFFCURVE",
"642 644 OFFCURVE",
"648 618 CURVE SMOOTH",
"656 589 OFFCURVE",
"660 508 OFFCURVE",
"660 374 CURVE SMOOTH",
"660 271 OFFCURVE",
"657 190 OFFCURVE",
"650 131 CURVE",
"564 214 OFFCURVE",
"492 284 OFFCURVE",
"433 341 CURVE",
"395 380 OFFCURVE",
"347 433 OFFCURVE",
"289 501 CURVE SMOOTH",
"230 570 OFFCURVE",
"185 627 OFFCURVE",
"154 669 CURVE",
"127 667 OFFCURVE",
"102 666 OFFCURVE",
"80 666 CURVE SMOOTH",
"61 666 OFFCURVE",
"44 667 OFFCURVE",
"29 669 CURVE",
"20 649 LINE",
"33 652 OFFCURVE",
"44 653 OFFCURVE",
"55 653 CURVE SMOOTH",
"75 653 OFFCURVE",
"92 648 OFFCURVE",
"105 637 CURVE",
"120 621 OFFCURVE",
"127 526 OFFCURVE",
"127 354 CURVE SMOOTH",
"127 328 OFFCURVE",
"122 229 OFFCURVE",
"111 57 CURVE SMOOTH",
"111 47 OFFCURVE",
"104 38 OFFCURVE",
"93 30 CURVE SMOOTH",
"79 21 OFFCURVE",
"61 17 OFFCURVE",
"38 17 CURVE",
"28 -3 LINE",
"54 3 OFFCURVE",
"89 6 OFFCURVE",
"133 6 CURVE SMOOTH",
"182 6 OFFCURVE",
"230 3 OFFCURVE",
"276 -3 CURVE",
"288 20 LINE",
"280 18 OFFCURVE",
"271 17 OFFCURVE",
"262 17 CURVE SMOOTH",
"223 17 OFFCURVE",
"198 31 OFFCURVE",
"188 59 CURVE SMOOTH",
"176 92 OFFCURVE",
"171 188 OFFCURVE",
"171 349 CURVE SMOOTH",
"171 414 OFFCURVE",
"174 468 OFFCURVE",
"179 510 CURVE",
"266 416 OFFCURVE",
"335 344 OFFCURVE",
"384 293 CURVE SMOOTH",
"558 113 LINE SMOOTH",
"645 23 OFFCURVE",
"696 -35 OFFCURVE",
"710 -60 CURVE",
"710 -60 LINE"
);
}
);
};
layerId = "274E8830-0A80-4149-8BE8-CF3C4CCD3F6F";
paths = (
{
closed = 1;
nodes = (
"719 -54 LINE",
"710 -8 OFFCURVE",
"706 85 OFFCURVE",
"706 225 CURVE SMOOTH",
"706 441 OFFCURVE",
"711 573 OFFCURVE",
"723 620 CURVE SMOOTH",
"729 647 OFFCURVE",
"754 660 OFFCURVE",
"796 660 CURVE",
"803 673 LINE",
"784 668 OFFCURVE",
"744 664 OFFCURVE",
"683 660 CURVE",
"613 664 OFFCURVE",
"572 668 OFFCURVE",
"559 670 CURVE",
"551 653 LINE",
"565 655 OFFCURVE",
"577 656 OFFCURVE",
"587 656 CURVE SMOOTH",
"621 656 OFFCURVE",
"642 644 OFFCURVE",
"648 618 CURVE SMOOTH",
"656 589 OFFCURVE",
"660 508 OFFCURVE",
"660 374 CURVE SMOOTH",
"660 271 OFFCURVE",
"657 190 OFFCURVE",
"650 131 CURVE",
"564 214 OFFCURVE",
"492 284 OFFCURVE",
"433 341 CURVE",
"395 380 OFFCURVE",
"347 433 OFFCURVE",
"289 501 CURVE SMOOTH",
"230 570 OFFCURVE",
"185 627 OFFCURVE",
"154 669 CURVE",
"127 667 OFFCURVE",
"102 666 OFFCURVE",
"80 666 CURVE SMOOTH",
"61 666 OFFCURVE",
"44 667 OFFCURVE",
"29 669 CURVE",
"20 649 LINE",
"33 652 OFFCURVE",
"44 653 OFFCURVE",
"55 653 CURVE SMOOTH",
"75 653 OFFCURVE",
"92 648 OFFCURVE",
"105 637 CURVE",
"120 621 OFFCURVE",
"127 526 OFFCURVE",
"127 354 CURVE SMOOTH",
"127 328 OFFCURVE",
"122 229 OFFCURVE",
"111 57 CURVE SMOOTH",
"111 47 OFFCURVE",
"104 38 OFFCURVE",
"93 30 CURVE SMOOTH",
"79 21 OFFCURVE",
"61 17 OFFCURVE",
"38 17 CURVE",
"28 -3 LINE",
"54 3 OFFCURVE",
"89 6 OFFCURVE",
"133 6 CURVE SMOOTH",
"182 6 OFFCURVE",
"230 3 OFFCURVE",
"276 -3 CURVE",
"288 20 LINE",
"280 18 OFFCURVE",
"271 17 OFFCURVE",
"262 17 CURVE SMOOTH",
"223 17 OFFCURVE",
"198 31 OFFCURVE",
"188 59 CURVE SMOOTH",
"176 92 OFFCURVE",
"171 188 OFFCURVE",
"171 349 CURVE SMOOTH",
"171 414 OFFCURVE",
"174 468 OFFCURVE",
"179 510 CURVE",
"266 416 OFFCURVE",
"335 344 OFFCURVE",
"384 293 CURVE SMOOTH",
"558 113 LINE SMOOTH",
"645 23 OFFCURVE",
"696 -35 OFFCURVE",
"710 -60 CURVE",
"710 -60 LINE"
);
}
);
width = 813;
}
);
leftKerningGroup = H;
leftMetricsKey = H;
note = N;
rightKerningGroup = N;
rightMetricsKey = "=H-10";
unicode = 004E;
},
{
color = 3;
glyphname = Eng;
lastChange = "2021-08-12 01:25:21 +0000";
layers = (
{
background = {
paths = (
{
closed = 1;
nodes = (
"642 -398 OFFCURVE",
"683 -323 OFFCURVE",
"683 -198 CURVE SMOOTH",
"683 -157 OFFCURVE",
"682 -106 OFFCURVE",
"681 -51 CURVE SMOOTH",
"678 43 OFFCURVE",
"675 150 OFFCURVE",
"675 255 CURVE SMOOTH",
"675 396 OFFCURVE",
"681 531 OFFCURVE",
"699 619 CURVE SMOOTH",
"705 645 OFFCURVE",
"730 658 OFFCURVE",
"772 658 CURVE",
"780 671 LINE",
"761 666 OFFCURVE",
"721 661 OFFCURVE",
"661 658 CURVE",
"591 662 OFFCURVE",
"551 666 OFFCURVE",
"538 668 CURVE",
"529 651 LINE",
"544 653 OFFCURVE",
"555 655 OFFCURVE",
"564 655 CURVE SMOOTH",
"600 655 OFFCURVE",
"622 640 OFFCURVE",
"628 611 CURVE SMOOTH",
"631 594 OFFCURVE",
"634 487 OFFCURVE",
"634 375 CURVE SMOOTH",
"634 282 OFFCURVE",
"632 187 OFFCURVE",
"627 135 CURVE",
"445 309 OFFCURVE",
"340 392 OFFCURVE",
"137 667 CURVE",
"110 664 OFFCURVE",
"88 664 OFFCURVE",
"67 664 CURVE SMOOTH",
"47 664 OFFCURVE",
"28 664 OFFCURVE",
"13 667 CURVE",
"5 647 LINE",
"17 650 OFFCURVE",
"28 651 OFFCURVE",
"38 651 CURVE SMOOTH",
"66 651 OFFCURVE",
"91 646 OFFCURVE",
"97 614 CURVE SMOOTH",
"105 578 OFFCURVE",
"110 505 OFFCURVE",
"110 394 CURVE SMOOTH",
"110 382 OFFCURVE",
"110 369 OFFCURVE",
"109 355 CURVE SMOOTH",
"109 329 OFFCURVE",
"101 230 OFFCURVE",
"92 62 CURVE SMOOTH",
"91 38 OFFCURVE",
"62 22 OFFCURVE",
"20 22 CURVE",
"10 2 LINE",
"37 7 OFFCURVE",
"72 11 OFFCURVE",
"115 11 CURVE SMOOTH",
"163 11 OFFCURVE",
"211 7 OFFCURVE",
"256 2 CURVE",
"269 23 LINE",
"260 22 OFFCURVE",
"250 22 OFFCURVE",
"241 22 CURVE SMOOTH",
"196 22 OFFCURVE",
"172 41 OFFCURVE",
"164 78 CURVE SMOOTH",
"159 101 OFFCURVE",
"151 207 OFFCURVE",
"151 321 CURVE SMOOTH",
"151 386 OFFCURVE",
"153 453 OFFCURVE",
"161 510 CURVE",
"247 416 OFFCURVE",
"315 344 OFFCURVE",
"364 294 CURVE SMOOTH",
"536 116 LINE SMOOTH",
"566 86 OFFCURVE",
"590 59 OFFCURVE",
"611 36 CURVE",
"614 16 OFFCURVE",
"617 -54 OFFCURVE",
"617 -127 CURVE SMOOTH",
"617 -161 OFFCURVE",
"616 -196 OFFCURVE",
"615 -226 CURVE SMOOTH",
"611 -319 OFFCURVE",
"573 -372 OFFCURVE",
"510 -372 CURVE SMOOTH",
"475 -372 OFFCURVE",
"454 -353 OFFCURVE",
"446 -316 CURVE SMOOTH",
"444 -307 OFFCURVE",
"444 -294 OFFCURVE",
"444 -280 CURVE SMOOTH",
"444 -257 OFFCURVE",
"446 -230 OFFCURVE",
"449 -212 CURVE",
"427 -209 LINE",
"420 -299 OFFCURVE",
"406 -366 OFFCURVE",
"392 -366 CURVE",
"393 -369 LINE",
"456 -395 OFFCURVE",
"508 -398 OFFCURVE",
"564 -398 CURVE",
"564 -398 LINE"
);
}
);
};
layerId = "274E8830-0A80-4149-8BE8-CF3C4CCD3F6F";
paths = (
{
closed = 1;
nodes = (
"642 -398 OFFCURVE",
"683 -323 OFFCURVE",
"683 -198 CURVE SMOOTH",
"683 -157 OFFCURVE",
"682 -106 OFFCURVE",
"681 -51 CURVE SMOOTH",
"678 43 OFFCURVE",
"675 150 OFFCURVE",
"675 255 CURVE SMOOTH",
"675 396 OFFCURVE",
"681 531 OFFCURVE",
"699 619 CURVE SMOOTH",
"705 645 OFFCURVE",
"730 658 OFFCURVE",
"772 658 CURVE",
"780 671 LINE",
"761 666 OFFCURVE",
"721 661 OFFCURVE",
"661 658 CURVE",
"591 662 OFFCURVE",
"551 666 OFFCURVE",
"538 668 CURVE",
"529 651 LINE",
"544 653 OFFCURVE",
"555 655 OFFCURVE",
"564 655 CURVE SMOOTH",
"600 655 OFFCURVE",
"622 640 OFFCURVE",
"628 611 CURVE SMOOTH",
"631 594 OFFCURVE",
"634 487 OFFCURVE",
"634 375 CURVE SMOOTH",
"634 282 OFFCURVE",
"632 187 OFFCURVE",
"627 135 CURVE",
"445 309 OFFCURVE",
"340 392 OFFCURVE",
"137 667 CURVE",
"110 664 OFFCURVE",
"88 664 OFFCURVE",
"67 664 CURVE SMOOTH",
"47 664 OFFCURVE",
"28 664 OFFCURVE",
"13 667 CURVE",
"5 647 LINE",
"17 650 OFFCURVE",
"28 651 OFFCURVE",
"38 651 CURVE SMOOTH",
"66 651 OFFCURVE",
"91 646 OFFCURVE",
"97 614 CURVE SMOOTH",
"105 578 OFFCURVE",
"110 505 OFFCURVE",
"110 394 CURVE SMOOTH",
"110 382 OFFCURVE",
"110 369 OFFCURVE",
"109 355 CURVE SMOOTH",
"109 329 OFFCURVE",
"101 230 OFFCURVE",
"92 62 CURVE SMOOTH",
"91 38 OFFCURVE",
"62 22 OFFCURVE",
"20 22 CURVE",
"10 2 LINE",
"37 7 OFFCURVE",
"72 11 OFFCURVE",
"115 11 CURVE SMOOTH",
"163 11 OFFCURVE",
"211 7 OFFCURVE",
"256 2 CURVE",
"269 23 LINE",
"260 22 OFFCURVE",
"250 22 OFFCURVE",
"241 22 CURVE SMOOTH",
"196 22 OFFCURVE",
"172 41 OFFCURVE",
"164 78 CURVE SMOOTH",
"159 101 OFFCURVE",
"151 207 OFFCURVE",
"151 321 CURVE SMOOTH",
"151 386 OFFCURVE",
"153 453 OFFCURVE",
"161 510 CURVE",
"247 416 OFFCURVE",
"315 344 OFFCURVE",
"364 294 CURVE SMOOTH",
"536 116 LINE SMOOTH",
"566 86 OFFCURVE",
"590 59 OFFCURVE",
"611 36 CURVE",
"614 16 OFFCURVE",
"617 -54 OFFCURVE",
"617 -127 CURVE SMOOTH",
"617 -161 OFFCURVE",
"616 -196 OFFCURVE",
"615 -226 CURVE SMOOTH",
"611 -319 OFFCURVE",
"573 -372 OFFCURVE",
"510 -372 CURVE SMOOTH",
"475 -372 OFFCURVE",
"454 -353 OFFCURVE",
"446 -316 CURVE SMOOTH",
"444 -307 OFFCURVE",
"444 -294 OFFCURVE",
"444 -280 CURVE SMOOTH",
"444 -257 OFFCURVE",
"446 -230 OFFCURVE",
"449 -212 CURVE",
"427 -209 LINE",
"420 -299 OFFCURVE",
"406 -366 OFFCURVE",
"392 -366 CURVE",
"393 -369 LINE",
"456 -395 OFFCURVE",
"508 -398 OFFCURVE",
"564 -398 CURVE",
"564 -398 LINE"
);
}
);
width = 807;
}
);
leftKerningGroup = H;
rightKerningGroup = N;
unicode = 014A;
},
{
color = 3;
glyphname = O;
lastChange = "2021-08-18 00:37:46 +0000";
layers = (
{
anchors = (
{
name = bottom;
position = "{393, 0}";
},
{
name = center;
position = "{393, 335}";
},
{
name = ogonek;
position = "{450, 3}";
},
{
name = top;
position = "{393, 670}";
},
{
name = topleft;
position = "{1, 670}";
},
{
name = topright;
position = "{469, 670}";
}
);
background = {
anchors = (
{
name = bottom;
position = "{393, 0}";
},
{
name = center;
position = "{393, 335}";
},
{
name = ogonek;
position = "{450, 3}";
},
{
name = top;
position = "{393, 670}";
},
{
name = topleft;
position = "{1, 670}";
},
{
name = topright;
position = "{469, 670}";
}
);
paths = (
{
closed = 1;
nodes = (
"634 -20 OFFCURVE",
"754 101 OFFCURVE",
"754 343 CURVE SMOOTH",
"754 454 OFFCURVE",
"721 538 OFFCURVE",
"656 595 CURVE SMOOTH",
"594 649 OFFCURVE",
"507 676 OFFCURVE",
"393 676 CURVE SMOOTH",
"280 676 OFFCURVE",
"193 649 OFFCURVE",
"132 595 CURVE SMOOTH",
"68 538 OFFCURVE",
"36 454 OFFCURVE",
"36 343 CURVE SMOOTH",
"37 101 OFFCURVE",
"156 -20 OFFCURVE",
"395 -20 CURVE",
"395 -20 LINE"
);
},
{
closed = 1;
nodes = (
"318 11 OFFCURVE",
"249 47 OFFCURVE",
"196 119 CURVE SMOOTH",
"147 186 OFFCURVE",
"123 263 OFFCURVE",
"123 353 CURVE SMOOTH",
"123 427 OFFCURVE",
"141 491 OFFCURVE",
"178 542 CURVE SMOOTH",
"220 600 OFFCURVE",
"278 634 OFFCURVE",
"354 643 CURVE SMOOTH",
"367 645 OFFCURVE",
"380 645 OFFCURVE",
"392 645 CURVE SMOOTH",
"477 645 OFFCURVE",
"546 611 OFFCURVE",
"597 542 CURVE SMOOTH",
"644 480 OFFCURVE",
"668 405 OFFCURVE",
"668 317 CURVE SMOOTH",
"668 240 OFFCURVE",
"649 173 OFFCURVE",
"610 118 CURVE SMOOTH",
"568 57 OFFCURVE",
"509 22 OFFCURVE",
"435 13 CURVE SMOOTH",
"423 11 OFFCURVE",
"412 11 OFFCURVE",
"401 11 CURVE",
"401 11 LINE"
);
}
);
};
layerId = "274E8830-0A80-4149-8BE8-CF3C4CCD3F6F";
paths = (
{
closed = 1;
nodes = (
"634 -20 OFFCURVE",
"754 101 OFFCURVE",
"754 343 CURVE SMOOTH",
"754 454 OFFCURVE",
"721 538 OFFCURVE",
"656 595 CURVE SMOOTH",
"594 649 OFFCURVE",
"507 676 OFFCURVE",
"393 676 CURVE SMOOTH",
"280 676 OFFCURVE",
"193 649 OFFCURVE",
"132 595 CURVE SMOOTH",
"68 538 OFFCURVE",
"36 454 OFFCURVE",
"36 343 CURVE SMOOTH",
"37 101 OFFCURVE",
"156 -20 OFFCURVE",
"395 -20 CURVE",
"395 -20 LINE"
);
},
{
closed = 1;
nodes = (
"318 11 OFFCURVE",
"249 47 OFFCURVE",
"196 119 CURVE SMOOTH",
"147 186 OFFCURVE",
"123 263 OFFCURVE",
"123 353 CURVE SMOOTH",
"123 427 OFFCURVE",
"141 491 OFFCURVE",
"178 542 CURVE SMOOTH",
"220 600 OFFCURVE",
"278 634 OFFCURVE",
"354 643 CURVE SMOOTH",
"367 645 OFFCURVE",
"380 645 OFFCURVE",
"392 645 CURVE SMOOTH",
"477 645 OFFCURVE",
"546 611 OFFCURVE",
"597 542 CURVE SMOOTH",
"644 480 OFFCURVE",
"668 405 OFFCURVE",
"668 317 CURVE SMOOTH",
"668 240 OFFCURVE",
"649 173 OFFCURVE",
"610 118 CURVE SMOOTH",
"568 57 OFFCURVE",
"509 22 OFFCURVE",
"435 13 CURVE SMOOTH",
"423 11 OFFCURVE",
"412 11 OFFCURVE",
"401 11 CURVE",
"401 11 LINE"
);
}
);
width = 790;
}
);
leftKerningGroup = O;
note = O;
rightKerningGroup = O;
unicode = 004F;
},
{
glyphname = Oslash;
lastChange = "2021-08-12 01:25:21 +0000";
layers = (
{
anchors = (
{
name = bottom;
position = "{386, 0}";
},
{
name = top;
position = "{386, 670}";
}
);
background = {
anchors = (
{
name = bottom;
position = "{386, 0}";
},
{
name = top;
position = "{386, 670}";
}
);
paths = (
{
closed = 1;
nodes = (
"620 -19 OFFCURVE",
"736 98 OFFCURVE",
"736 333 CURVE SMOOTH",
"736 461 OFFCURVE",
"692 552 OFFCURVE",
"604 605 CURVE",
"648 663 LINE",
"588 663 LINE",
"561 626 LINE",
"512 646 OFFCURVE",
"454 656 OFFCURVE",
"386 656 CURVE SMOOTH",
"276 656 OFFCURVE",
"192 630 OFFCURVE",
"132 577 CURVE SMOOTH",
"71 522 OFFCURVE",
"40 441 OFFCURVE",
"40 333 CURVE SMOOTH",
"40 209 OFFCURVE",
"74 118 OFFCURVE",
"141 58 CURVE",
"97 -1 LINE",
"146 0 LINE",
"172 35 LINE",
"228 -1 OFFCURVE",
"300 -19 OFFCURVE",
"388 -19 CURVE",
"388 -19 LINE"
);
},
{
closed = 1;
nodes = (
"189 124 LINE",
"145 187 OFFCURVE",
"123 260 OFFCURVE",
"123 342 CURVE SMOOTH",
"123 415 OFFCURVE",
"141 476 OFFCURVE",
"177 526 CURVE SMOOTH",
"218 583 OFFCURVE",
"275 615 OFFCURVE",
"348 624 CURVE SMOOTH",
"361 626 OFFCURVE",
"373 626 OFFCURVE",
"385 626 CURVE SMOOTH",
"439 626 OFFCURVE",
"487 612 OFFCURVE",
"528 582 CURVE",
"189 124 LINE"
);
},
{
closed = 1;
nodes = (
"324 10 OFFCURVE",
"264 37 OFFCURVE",
"215 91 CURVE",
"563 551 LINE",
"623 489 OFFCURVE",
"652 408 OFFCURVE",
"652 308 CURVE SMOOTH",
"652 233 OFFCURVE",
"634 168 OFFCURVE",
"597 115 CURVE SMOOTH",
"556 55 OFFCURVE",
"499 21 OFFCURVE",
"426 12 CURVE SMOOTH",
"415 11 OFFCURVE",
"404 10 OFFCURVE",
"394 10 CURVE",
"394 10 LINE"
);
}
);
};
layerId = "274E8830-0A80-4149-8BE8-CF3C4CCD3F6F";
paths = (
{
closed = 1;
nodes = (
"620 -19 OFFCURVE",
"736 98 OFFCURVE",
"736 333 CURVE SMOOTH",
"736 461 OFFCURVE",
"692 552 OFFCURVE",
"604 605 CURVE",
"648 663 LINE",
"588 663 LINE",
"561 626 LINE",
"512 646 OFFCURVE",
"454 656 OFFCURVE",
"386 656 CURVE SMOOTH",
"276 656 OFFCURVE",
"192 630 OFFCURVE",
"132 577 CURVE SMOOTH",
"71 522 OFFCURVE",
"40 441 OFFCURVE",
"40 333 CURVE SMOOTH",
"40 209 OFFCURVE",
"74 118 OFFCURVE",
"141 58 CURVE",
"97 -1 LINE",
"146 0 LINE",
"172 35 LINE",
"228 -1 OFFCURVE",
"300 -19 OFFCURVE",
"388 -19 CURVE",
"388 -19 LINE"
);
},
{
closed = 1;
nodes = (
"189 124 LINE",
"145 187 OFFCURVE",
"123 260 OFFCURVE",
"123 342 CURVE SMOOTH",
"123 415 OFFCURVE",
"141 476 OFFCURVE",
"177 526 CURVE SMOOTH",
"218 583 OFFCURVE",
"275 615 OFFCURVE",
"348 624 CURVE SMOOTH",
"361 626 OFFCURVE",
"373 626 OFFCURVE",
"385 626 CURVE SMOOTH",
"439 626 OFFCURVE",
"487 612 OFFCURVE",
"528 582 CURVE",
"189 124 LINE"
);
},
{
closed = 1;
nodes = (
"324 10 OFFCURVE",
"264 37 OFFCURVE",
"215 91 CURVE",
"563 551 LINE",
"623 489 OFFCURVE",
"652 408 OFFCURVE",
"652 308 CURVE SMOOTH",
"652 233 OFFCURVE",
"634 168 OFFCURVE",
"597 115 CURVE SMOOTH",
"556 55 OFFCURVE",
"499 21 OFFCURVE",
"426 12 CURVE SMOOTH",
"415 11 OFFCURVE",
"404 10 OFFCURVE",
"394 10 CURVE",
"394 10 LINE"
);
}
);
width = 772;
}
);
leftKerningGroup = O;
note = Oslash;
rightKerningGroup = O;
unicode = 00D8;
},
{
glyphname = OE;
lastChange = "2021-08-12 01:25:21 +0000";
layers = (
{
background = {
paths = (
{
closed = 1;
nodes = (
"440 -19 OFFCURVE",
"489 -12 OFFCURVE",
"532 2 CURVE",
"547 3 LINE SMOOTH",
"567 4 OFFCURVE",
"590 5 OFFCURVE",
"615 5 CURVE SMOOTH",
"672 5 OFFCURVE",
"750 1 OFFCURVE",
"850 -6 CURVE SMOOTH",
"855 -6 OFFCURVE",
"859 -7 OFFCURVE",
"863 -7 CURVE SMOOTH",
"880 -7 OFFCURVE",
"891 -3 OFFCURVE",
"898 4 CURVE SMOOTH",
"904 11 OFFCURVE",
"908 23 OFFCURVE",
"911 41 CURVE SMOOTH",
"916 75 OFFCURVE",
"925 106 OFFCURVE",
"937 134 CURVE",
"924 138 LINE",
"922 127 OFFCURVE",
"915 112 OFFCURVE",
"903 92 CURVE SMOOTH",
"891 71 OFFCURVE",
"879 57 OFFCURVE",
"868 49 CURVE SMOOTH",
"847 34 OFFCURVE",
"804 26 OFFCURVE",
"739 26 CURVE SMOOTH",
"722 26 OFFCURVE",
"706 27 OFFCURVE",
"691 29 CURVE SMOOTH",
"659 33 OFFCURVE",
"638 36 OFFCURVE",
"631 40 CURVE SMOOTH",
"621 43 OFFCURVE",
"615 52 OFFCURVE",
"612 64 CURVE SMOOTH",
"606 98 OFFCURVE",
"602 185 OFFCURVE",
"601 323 CURVE",
"612 324 OFFCURVE",
"624 324 OFFCURVE",
"639 324 CURVE SMOOTH",
"664 324 OFFCURVE",
"696 323 OFFCURVE",
"734 321 CURVE SMOOTH",
"774 319 OFFCURVE",
"794 305 OFFCURVE",
"793 277 CURVE",
"791 267 OFFCURVE",
"789 260 OFFCURVE",
"788 257 CURVE",
"808 261 LINE",
"807 275 OFFCURVE",
"807 282 OFFCURVE",
"807 285 CURVE SMOOTH",
"807 292 OFFCURVE",
"808 302 OFFCURVE",
"811 316 CURVE SMOOTH",
"815 329 OFFCURVE",
"817 338 OFFCURVE",
"817 343 CURVE SMOOTH",
"817 350 OFFCURVE",
"813 354 OFFCURVE",
"807 355 CURVE",
"815 354 OFFCURVE",
"746 353 OFFCURVE",
"601 352 CURVE",
"601 485 OFFCURVE",
"606 568 OFFCURVE",
"615 604 CURVE",
"631 606 OFFCURVE",
"657 608 OFFCURVE",
"693 608 CURVE SMOOTH",
"703 608 LINE SMOOTH",
"732 608 OFFCURVE",
"754 607 OFFCURVE",
"768 605 CURVE SMOOTH",
"806 600 OFFCURVE",
"826 588 OFFCURVE",
"826 568 CURVE SMOOTH",
"826 560 OFFCURVE",
"820 542 OFFCURVE",
"810 513 CURVE",
"829 509 LINE",
"839 566 LINE SMOOTH",
"840 569 OFFCURVE",
"843 580 OFFCURVE",
"848 598 CURVE SMOOTH",
"851 612 OFFCURVE",
"853 622 OFFCURVE",
"853 629 CURVE SMOOTH",
"853 638 OFFCURVE",
"850 643 OFFCURVE",
"843 643 CURVE",
"747 643 OFFCURVE",
"655 642 OFFCURVE",
"567 641 CURVE SMOOTH",
"547 641 OFFCURVE",
"526 642 OFFCURVE",
"504 643 CURVE",
"467 652 OFFCURVE",
"427 656 OFFCURVE",
"383 656 CURVE SMOOTH",
"273 656 OFFCURVE",
"188 630 OFFCURVE",
"129 577 CURVE SMOOTH",
"67 522 OFFCURVE",
"36 441 OFFCURVE",
"36 333 CURVE SMOOTH",
"37 98 OFFCURVE",
"153 -19 OFFCURVE",
"385 -19 CURVE",
"385 -19 LINE"
);
},
{
closed = 1;
nodes = (
"310 10 OFFCURVE",
"243 46 OFFCURVE",
"191 116 CURVE SMOOTH",
"144 180 OFFCURVE",
"120 256 OFFCURVE",
"120 342 CURVE SMOOTH",
"120 415 OFFCURVE",
"138 476 OFFCURVE",
"174 526 CURVE SMOOTH",
"214 583 OFFCURVE",
"271 615 OFFCURVE",
"345 624 CURVE SMOOTH",
"358 626 OFFCURVE",
"370 626 OFFCURVE",
"382 626 CURVE SMOOTH",
"434 626 OFFCURVE",
"480 613 OFFCURVE",
"521 585 CURVE",
"527 542 OFFCURVE",
"531 436 OFFCURVE",
"531 267 CURVE SMOOTH",
"531 159 OFFCURVE",
"527 89 OFFCURVE",
"519 57 CURVE SMOOTH",
"518 51 OFFCURVE",
"515 46 OFFCURVE",
"512 41 CURVE SMOOTH",
"507 35 OFFCURVE",
"494 30 OFFCURVE",
"470 23 CURVE SMOOTH",
"450 17 OFFCURVE",
"435 14 OFFCURVE",
"423 12 CURVE SMOOTH",
"412 11 OFFCURVE",
"401 10 OFFCURVE",
"390 10 CURVE",
"390 10 LINE"
);
}
);
};
layerId = "274E8830-0A80-4149-8BE8-CF3C4CCD3F6F";
paths = (
{
closed = 1;
nodes = (
"440 -19 OFFCURVE",
"489 -12 OFFCURVE",
"532 2 CURVE",
"547 3 LINE SMOOTH",
"567 4 OFFCURVE",
"590 5 OFFCURVE",
"615 5 CURVE SMOOTH",
"672 5 OFFCURVE",
"750 1 OFFCURVE",
"850 -6 CURVE SMOOTH",
"855 -6 OFFCURVE",
"859 -7 OFFCURVE",
"863 -7 CURVE SMOOTH",
"880 -7 OFFCURVE",
"891 -3 OFFCURVE",
"898 4 CURVE SMOOTH",
"904 11 OFFCURVE",
"908 23 OFFCURVE",
"911 41 CURVE SMOOTH",
"916 75 OFFCURVE",
"925 106 OFFCURVE",
"937 134 CURVE",
"924 138 LINE",
"922 127 OFFCURVE",
"915 112 OFFCURVE",
"903 92 CURVE SMOOTH",
"891 71 OFFCURVE",
"879 57 OFFCURVE",
"868 49 CURVE SMOOTH",
"847 34 OFFCURVE",
"804 26 OFFCURVE",
"739 26 CURVE SMOOTH",
"722 26 OFFCURVE",
"706 27 OFFCURVE",
"691 29 CURVE SMOOTH",
"659 33 OFFCURVE",
"638 36 OFFCURVE",
"631 40 CURVE SMOOTH",
"621 43 OFFCURVE",
"615 52 OFFCURVE",
"612 64 CURVE SMOOTH",
"606 98 OFFCURVE",
"602 185 OFFCURVE",
"601 323 CURVE",
"612 324 OFFCURVE",
"624 324 OFFCURVE",
"639 324 CURVE SMOOTH",
"664 324 OFFCURVE",
"696 323 OFFCURVE",
"734 321 CURVE SMOOTH",
"774 319 OFFCURVE",
"794 305 OFFCURVE",
"793 277 CURVE",
"791 267 OFFCURVE",
"789 260 OFFCURVE",
"788 257 CURVE",
"808 261 LINE",
"807 275 OFFCURVE",
"807 282 OFFCURVE",
"807 285 CURVE SMOOTH",
"807 292 OFFCURVE",
"808 302 OFFCURVE",
"811 316 CURVE SMOOTH",
"815 329 OFFCURVE",
"817 338 OFFCURVE",
"817 343 CURVE SMOOTH",
"817 350 OFFCURVE",
"813 354 OFFCURVE",
"807 355 CURVE",
"815 354 OFFCURVE",
"746 353 OFFCURVE",
"601 352 CURVE",
"601 485 OFFCURVE",
"606 568 OFFCURVE",
"615 604 CURVE",
"631 606 OFFCURVE",
"657 608 OFFCURVE",
"693 608 CURVE SMOOTH",
"703 608 LINE SMOOTH",
"732 608 OFFCURVE",
"754 607 OFFCURVE",
"768 605 CURVE SMOOTH",
"806 600 OFFCURVE",
"826 588 OFFCURVE",
"826 568 CURVE SMOOTH",
"826 560 OFFCURVE",
"820 542 OFFCURVE",
"810 513 CURVE",
"829 509 LINE",
"839 566 LINE SMOOTH",
"840 569 OFFCURVE",
"843 580 OFFCURVE",
"848 598 CURVE SMOOTH",
"851 612 OFFCURVE",
"853 622 OFFCURVE",
"853 629 CURVE SMOOTH",
"853 638 OFFCURVE",
"850 643 OFFCURVE",
"843 643 CURVE",
"747 643 OFFCURVE",
"655 642 OFFCURVE",
"567 641 CURVE SMOOTH",
"547 641 OFFCURVE",
"526 642 OFFCURVE",
"504 643 CURVE",
"467 652 OFFCURVE",
"427 656 OFFCURVE",
"383 656 CURVE SMOOTH",
"273 656 OFFCURVE",
"188 630 OFFCURVE",
"129 577 CURVE SMOOTH",
"67 522 OFFCURVE",
"36 441 OFFCURVE",
"36 333 CURVE SMOOTH",
"37 98 OFFCURVE",
"153 -19 OFFCURVE",
"385 -19 CURVE",
"385 -19 LINE"
);
},
{
closed = 1;
nodes = (
"310 10 OFFCURVE",
"243 46 OFFCURVE",
"191 116 CURVE SMOOTH",
"144 180 OFFCURVE",
"120 256 OFFCURVE",
"120 342 CURVE SMOOTH",
"120 415 OFFCURVE",
"138 476 OFFCURVE",
"174 526 CURVE SMOOTH",
"214 583 OFFCURVE",
"271 615 OFFCURVE",
"345 624 CURVE SMOOTH",
"358 626 OFFCURVE",
"370 626 OFFCURVE",
"382 626 CURVE SMOOTH",
"434 626 OFFCURVE",
"480 613 OFFCURVE",
"521 585 CURVE",
"527 542 OFFCURVE",
"531 436 OFFCURVE",
"531 267 CURVE SMOOTH",
"531 159 OFFCURVE",
"527 89 OFFCURVE",
"519 57 CURVE SMOOTH",
"518 51 OFFCURVE",
"515 46 OFFCURVE",
"512 41 CURVE SMOOTH",
"507 35 OFFCURVE",
"494 30 OFFCURVE",
"470 23 CURVE SMOOTH",
"450 17 OFFCURVE",
"435 14 OFFCURVE",
"423 12 CURVE SMOOTH",
"412 11 OFFCURVE",
"401 10 OFFCURVE",
"390 10 CURVE",
"390 10 LINE"
);
}
);
width = 959;
}
);
leftKerningGroup = O;
leftMetricsKey = O;
note = OE;
rightKerningGroup = E;
rightMetricsKey = E;
unicode = 0152;
},
{
color = 3;
glyphname = P;
lastChange = "2021-08-18 00:38:06 +0000";
layers = (
{
background = {
paths = (
{
closed = 1;
nodes = (
"20 -2 LINE",
"105 3 OFFCURVE",
"154 6 OFFCURVE",
"167 7 CURVE SMOOTH",
"175 8 OFFCURVE",
"183 8 OFFCURVE",
"192 8 CURVE SMOOTH",
"216 8 OFFCURVE",
"246 7 OFFCURVE",
"282 4 CURVE SMOOTH",
"300 2 OFFCURVE",
"319 0 OFFCURVE",
"337 -1 CURVE",
"347 20 LINE",
"344 19 OFFCURVE",
"340 19 OFFCURVE",
"335 19 CURVE SMOOTH",
"324 19 OFFCURVE",
"307 21 OFFCURVE",
"285 24 CURVE SMOOTH",
"250 29 OFFCURVE",
"230 37 OFFCURVE",
"225 46 CURVE",
"217 70 OFFCURVE",
"213 141 OFFCURVE",
"213 259 CURVE SMOOTH",
"213 403 LINE SMOOTH",
"213 492 OFFCURVE",
"216 559 OFFCURVE",
"220 603 CURVE SMOOTH",
"222 617 OFFCURVE",
"232 627 OFFCURVE",
"250 630 CURVE SMOOTH",
"260 632 OFFCURVE",
"281 633 OFFCURVE",
"314 633 CURVE SMOOTH",
"359 633 OFFCURVE",
"395 618 OFFCURVE",
"422 588 CURVE SMOOTH",
"448 560 OFFCURVE",
"461 525 OFFCURVE",
"461 484 CURVE SMOOTH",
"461 454 OFFCURVE",
"454 426 OFFCURVE",
"439 400 CURVE SMOOTH",
"422 368 OFFCURVE",
"394 346 OFFCURVE",
"355 331 CURVE SMOOTH",
"325 319 OFFCURVE",
"295 314 OFFCURVE",
"265 315 CURVE",
"255 297 LINE",
"265 296 OFFCURVE",
"275 295 OFFCURVE",
"285 295 CURVE SMOOTH",
"317 295 OFFCURVE",
"348 300 OFFCURVE",
"378 308 CURVE SMOOTH",
"430 323 OFFCURVE",
"470 353 OFFCURVE",
"498 396 CURVE SMOOTH",
"519 429 OFFCURVE",
"530 467 OFFCURVE",
"530 509 CURVE SMOOTH",
"530 563 OFFCURVE",
"513 603 OFFCURVE",
"478 630 CURVE SMOOTH",
"447 654 OFFCURVE",
"399 666 OFFCURVE",
"333 666 CURVE SMOOTH",
"314 666 OFFCURVE",
"289 665 OFFCURVE",
"261 663 CURVE SMOOTH",
"211 659 OFFCURVE",
"184 658 OFFCURVE",
"179 658 CURVE SMOOTH",
"111 661 OFFCURVE",
"66 664 OFFCURVE",
"45 667 CURVE",
"35 647 LINE",
"48 650 OFFCURVE",
"60 651 OFFCURVE",
"70 651 CURVE SMOOTH",
"91 651 OFFCURVE",
"107 646 OFFCURVE",
"120 635 CURVE",
"134 619 OFFCURVE",
"141 501 OFFCURVE",
"141 283 CURVE SMOOTH",
"141 163 OFFCURVE",
"137 90 OFFCURVE",
"129 63 CURVE SMOOTH",
"120 32 OFFCURVE",
"87 18 OFFCURVE",
"28 19 CURVE",
"20 -2 LINE"
);
}
);
};
layerId = "274E8830-0A80-4149-8BE8-CF3C4CCD3F6F";
paths = (
{
closed = 1;
nodes = (
"20 -2 LINE",
"105 3 OFFCURVE",
"154 6 OFFCURVE",
"167 7 CURVE SMOOTH",
"175 8 OFFCURVE",
"183 8 OFFCURVE",
"192 8 CURVE SMOOTH",
"216 8 OFFCURVE",
"246 7 OFFCURVE",
"282 4 CURVE SMOOTH",
"300 2 OFFCURVE",
"319 0 OFFCURVE",
"337 -1 CURVE",
"347 20 LINE",
"344 19 OFFCURVE",
"340 19 OFFCURVE",
"335 19 CURVE SMOOTH",
"324 19 OFFCURVE",
"307 21 OFFCURVE",
"285 24 CURVE SMOOTH",
"250 29 OFFCURVE",
"230 37 OFFCURVE",
"225 46 CURVE",
"217 70 OFFCURVE",
"213 141 OFFCURVE",
"213 259 CURVE SMOOTH",
"213 403 LINE SMOOTH",
"213 492 OFFCURVE",
"216 559 OFFCURVE",
"220 603 CURVE SMOOTH",
"222 617 OFFCURVE",
"232 627 OFFCURVE",
"250 630 CURVE SMOOTH",
"260 632 OFFCURVE",
"281 633 OFFCURVE",
"314 633 CURVE SMOOTH",
"359 633 OFFCURVE",
"395 618 OFFCURVE",
"422 588 CURVE SMOOTH",
"448 560 OFFCURVE",
"461 525 OFFCURVE",
"461 484 CURVE SMOOTH",
"461 454 OFFCURVE",
"454 426 OFFCURVE",
"439 400 CURVE SMOOTH",
"422 368 OFFCURVE",
"394 346 OFFCURVE",
"355 331 CURVE SMOOTH",
"325 319 OFFCURVE",
"295 314 OFFCURVE",
"265 315 CURVE",
"255 297 LINE",
"265 296 OFFCURVE",
"275 295 OFFCURVE",
"285 295 CURVE SMOOTH",
"317 295 OFFCURVE",
"348 300 OFFCURVE",
"378 308 CURVE SMOOTH",
"430 323 OFFCURVE",
"470 353 OFFCURVE",
"498 396 CURVE SMOOTH",
"519 429 OFFCURVE",
"530 467 OFFCURVE",
"530 509 CURVE SMOOTH",
"530 563 OFFCURVE",
"513 603 OFFCURVE",
"478 630 CURVE SMOOTH",
"447 654 OFFCURVE",
"399 666 OFFCURVE",
"333 666 CURVE SMOOTH",
"314 666 OFFCURVE",
"289 665 OFFCURVE",
"261 663 CURVE SMOOTH",
"211 659 OFFCURVE",
"184 658 OFFCURVE",
"179 658 CURVE SMOOTH",
"111 661 OFFCURVE",
"66 664 OFFCURVE",
"45 667 CURVE",
"35 647 LINE",
"48 650 OFFCURVE",
"60 651 OFFCURVE",
"70 651 CURVE SMOOTH",
"91 651 OFFCURVE",
"107 646 OFFCURVE",
"120 635 CURVE",
"134 619 OFFCURVE",
"141 501 OFFCURVE",
"141 283 CURVE SMOOTH",
"141 163 OFFCURVE",
"137 90 OFFCURVE",
"129 63 CURVE SMOOTH",
"120 32 OFFCURVE",
"87 18 OFFCURVE",
"28 19 CURVE",
"20 -2 LINE"
);
}
);
width = 552;
}
);
leftKerningGroup = H;
leftMetricsKey = H;
note = P;
rightKerningGroup = P;
unicode = 0050;
},
{
glyphname = Thorn;
lastChange = "2021-08-12 01:25:21 +0000";
layers = (
{
background = {
paths = (
{
closed = 1;
nodes = (
"14 -189 LINE",
"108 -183 OFFCURVE",
"161 -179 OFFCURVE",
"172 -179 CURVE",
"244 -181 OFFCURVE",
"289 -184 OFFCURVE",
"307 -189 CURVE",
"318 -173 LINE",
"313 -173 OFFCURVE",
"308 -174 OFFCURVE",
"304 -174 CURVE SMOOTH",
"287 -174 OFFCURVE",
"271 -171 OFFCURVE",
"253 -165 CURVE SMOOTH",
"227 -156 OFFCURVE",
"212 -143 OFFCURVE",
"209 -125 CURVE SMOOTH",
"203 -94 OFFCURVE",
"201 -1 OFFCURVE",
"201 155 CURVE SMOOTH",
"201 183 LINE",
"202 188 OFFCURVE",
"203 193 OFFCURVE",
"203 198 CURVE SMOOTH",
"201 260 LINE SMOOTH",
"201 267 OFFCURVE",
"201 275 OFFCURVE",
"201 284 CURVE SMOOTH",
"201 305 OFFCURVE",
"201 333 OFFCURVE",
"203 366 CURVE SMOOTH",
"204 408 OFFCURVE",
"206 442 OFFCURVE",
"209 468 CURVE SMOOTH",
"211 482 OFFCURVE",
"223 491 OFFCURVE",
"245 494 CURVE SMOOTH",
"251 494 OFFCURVE",
"275 495 OFFCURVE",
"316 495 CURVE SMOOTH",
"360 495 OFFCURVE",
"396 480 OFFCURVE",
"424 449 CURVE SMOOTH",
"450 421 OFFCURVE",
"463 386 OFFCURVE",
"463 345 CURVE SMOOTH",
"463 316 OFFCURVE",
"455 288 OFFCURVE",
"441 261 CURVE SMOOTH",
"423 230 OFFCURVE",
"395 207 OFFCURVE",
"357 192 CURVE SMOOTH",
"327 181 OFFCURVE",
"297 176 OFFCURVE",
"267 177 CURVE",
"257 158 LINE",
"267 157 OFFCURVE",
"277 157 OFFCURVE",
"287 157 CURVE SMOOTH",
"319 157 OFFCURVE",
"350 161 OFFCURVE",
"380 170 CURVE SMOOTH",
"432 185 OFFCURVE",
"472 214 OFFCURVE",
"500 258 CURVE SMOOTH",
"521 291 OFFCURVE",
"532 329 OFFCURVE",
"532 371 CURVE SMOOTH",
"532 424 OFFCURVE",
"514 464 OFFCURVE",
"480 491 CURVE SMOOTH",
"449 515 OFFCURVE",
"401 528 OFFCURVE",
"335 528 CURVE SMOOTH",
"315 528 OFFCURVE",
"291 527 OFFCURVE",
"263 524 CURVE SMOOTH",
"241 523 OFFCURVE",
"222 521 OFFCURVE",
"207 520 CURVE",
"209 585 OFFCURVE",
"210 620 OFFCURVE",
"211 627 CURVE SMOOTH",
"212 637 OFFCURVE",
"213 646 OFFCURVE",
"215 655 CURVE SMOOTH",
"215 657 OFFCURVE",
"215 658 OFFCURVE",
"215 660 CURVE SMOOTH",
"215 667 OFFCURVE",
"212 670 OFFCURVE",
"204 670 CURVE SMOOTH",
"201 670 OFFCURVE",
"193 669 OFFCURVE",
"179 666 CURVE SMOOTH",
"165 663 OFFCURVE",
"154 662 OFFCURVE",
"145 662 CURVE SMOOTH",
"95 664 OFFCURVE",
"62 666 OFFCURVE",
"46 667 CURVE",
"37 648 LINE",
"50 651 OFFCURVE",
"61 652 OFFCURVE",
"71 652 CURVE SMOOTH",
"91 652 OFFCURVE",
"107 647 OFFCURVE",
"119 637 CURVE",
"124 632 OFFCURVE",
"128 588 OFFCURVE",
"132 505 CURVE SMOOTH",
"137 411 OFFCURVE",
"140 321 OFFCURVE",
"140 235 CURVE SMOOTH",
"140 89 LINE SMOOTH",
"139 -29 OFFCURVE",
"136 -100 OFFCURVE",
"130 -125 CURVE SMOOTH",
"126 -142 OFFCURVE",
"113 -155 OFFCURVE",
"92 -163 CURVE SMOOTH",
"75 -170 OFFCURVE",
"56 -173 OFFCURVE",
"36 -173 CURVE SMOOTH",
"30 -173 OFFCURVE",
"25 -173 OFFCURVE",
"21 -172 CURVE",
"14 -189 LINE"
);
}
);
};
layerId = "274E8830-0A80-4149-8BE8-CF3C4CCD3F6F";
paths = (
{
closed = 1;
nodes = (
"14 -189 LINE",
"108 -183 OFFCURVE",
"161 -179 OFFCURVE",
"172 -179 CURVE",
"244 -181 OFFCURVE",
"289 -184 OFFCURVE",
"307 -189 CURVE",
"318 -173 LINE",
"313 -173 OFFCURVE",
"308 -174 OFFCURVE",
"304 -174 CURVE SMOOTH",
"287 -174 OFFCURVE",
"271 -171 OFFCURVE",
"253 -165 CURVE SMOOTH",
"227 -156 OFFCURVE",
"212 -143 OFFCURVE",
"209 -125 CURVE SMOOTH",
"203 -94 OFFCURVE",
"201 -1 OFFCURVE",
"201 155 CURVE SMOOTH",
"201 183 LINE",
"202 188 OFFCURVE",
"203 193 OFFCURVE",
"203 198 CURVE SMOOTH",
"201 260 LINE SMOOTH",
"201 267 OFFCURVE",
"201 275 OFFCURVE",
"201 284 CURVE SMOOTH",
"201 305 OFFCURVE",
"201 333 OFFCURVE",
"203 366 CURVE SMOOTH",
"204 408 OFFCURVE",
"206 442 OFFCURVE",
"209 468 CURVE SMOOTH",
"211 482 OFFCURVE",
"223 491 OFFCURVE",
"245 494 CURVE SMOOTH",
"251 494 OFFCURVE",
"275 495 OFFCURVE",
"316 495 CURVE SMOOTH",
"360 495 OFFCURVE",
"396 480 OFFCURVE",
"424 449 CURVE SMOOTH",
"450 421 OFFCURVE",
"463 386 OFFCURVE",
"463 345 CURVE SMOOTH",
"463 316 OFFCURVE",
"455 288 OFFCURVE",
"441 261 CURVE SMOOTH",
"423 230 OFFCURVE",
"395 207 OFFCURVE",
"357 192 CURVE SMOOTH",
"327 181 OFFCURVE",
"297 176 OFFCURVE",
"267 177 CURVE",
"257 158 LINE",
"267 157 OFFCURVE",
"277 157 OFFCURVE",
"287 157 CURVE SMOOTH",
"319 157 OFFCURVE",
"350 161 OFFCURVE",
"380 170 CURVE SMOOTH",
"432 185 OFFCURVE",
"472 214 OFFCURVE",
"500 258 CURVE SMOOTH",
"521 291 OFFCURVE",
"532 329 OFFCURVE",
"532 371 CURVE SMOOTH",
"532 424 OFFCURVE",
"514 464 OFFCURVE",
"480 491 CURVE SMOOTH",
"449 515 OFFCURVE",
"401 528 OFFCURVE",
"335 528 CURVE SMOOTH",
"315 528 OFFCURVE",
"291 527 OFFCURVE",
"263 524 CURVE SMOOTH",
"241 523 OFFCURVE",
"222 521 OFFCURVE",
"207 520 CURVE",
"209 585 OFFCURVE",
"210 620 OFFCURVE",
"211 627 CURVE SMOOTH",
"212 637 OFFCURVE",
"213 646 OFFCURVE",
"215 655 CURVE SMOOTH",
"215 657 OFFCURVE",
"215 658 OFFCURVE",
"215 660 CURVE SMOOTH",
"215 667 OFFCURVE",
"212 670 OFFCURVE",
"204 670 CURVE SMOOTH",
"201 670 OFFCURVE",
"193 669 OFFCURVE",
"179 666 CURVE SMOOTH",
"165 663 OFFCURVE",
"154 662 OFFCURVE",
"145 662 CURVE SMOOTH",
"95 664 OFFCURVE",
"62 666 OFFCURVE",
"46 667 CURVE",
"37 648 LINE",
"50 651 OFFCURVE",
"61 652 OFFCURVE",
"71 652 CURVE SMOOTH",
"91 652 OFFCURVE",
"107 647 OFFCURVE",
"119 637 CURVE",
"124 632 OFFCURVE",
"128 588 OFFCURVE",
"132 505 CURVE SMOOTH",
"137 411 OFFCURVE",
"140 321 OFFCURVE",
"140 235 CURVE SMOOTH",
"140 89 LINE SMOOTH",
"139 -29 OFFCURVE",
"136 -100 OFFCURVE",
"130 -125 CURVE SMOOTH",
"126 -142 OFFCURVE",
"113 -155 OFFCURVE",
"92 -163 CURVE SMOOTH",
"75 -170 OFFCURVE",
"56 -173 OFFCURVE",
"36 -173 CURVE SMOOTH",
"30 -173 OFFCURVE",
"25 -173 OFFCURVE",
"21 -172 CURVE",
"14 -189 LINE"
);
}
);
width = 628;
}
);
leftKerningGroup = H;
note = Thorn;
rightKerningGroup = P;
unicode = 00DE;
},
{
color = 3;
glyphname = Q;
lastChange = "2021-08-18 00:28:35 +0000";
layers = (
{
background = {
paths = (
{
closed = 1;
nodes = (
"838 -212 OFFCURVE",
"887 -202 OFFCURVE",
"950 -182 CURVE",
"958 -164 LINE",
"940 -168 OFFCURVE",
"922 -170 OFFCURVE",
"904 -170 CURVE SMOOTH",
"835 -170 OFFCURVE",
"752 -135 OFFCURVE",
"657 -65 CURVE SMOOTH",
"624 -41 OFFCURVE",
"586 -18 OFFCURVE",
"544 4 CURVE",
"684 48 OFFCURVE",
"754 162 OFFCURVE",
"754 346 CURVE SMOOTH",
"754 457 OFFCURVE",
"721 541 OFFCURVE",
"656 598 CURVE SMOOTH",
"595 652 OFFCURVE",
"507 679 OFFCURVE",
"394 679 CURVE SMOOTH",
"280 679 OFFCURVE",
"193 652 OFFCURVE",
"132 597 CURVE SMOOTH",
"68 541 OFFCURVE",
"36 457 OFFCURVE",
"36 346 CURVE SMOOTH",
"37 104 OFFCURVE",
"156 -17 OFFCURVE",
"395 -17 CURVE SMOOTH",
"430 -17 OFFCURVE",
"462 -14 OFFCURVE",
"491 -9 CURVE",
"520 -29 OFFCURVE",
"541 -46 OFFCURVE",
"555 -58 CURVE SMOOTH",
"679 -166 LINE SMOOTH",
"714 -197 OFFCURVE",
"755 -212 OFFCURVE",
"802 -212 CURVE",
"802 -212 LINE"
);
},
{
closed = 1;
nodes = (
"318 14 OFFCURVE",
"250 50 OFFCURVE",
"196 122 CURVE SMOOTH",
"147 189 OFFCURVE",
"123 266 OFFCURVE",
"123 355 CURVE SMOOTH",
"123 430 OFFCURVE",
"141 493 OFFCURVE",
"178 545 CURVE SMOOTH",
"220 603 OFFCURVE",
"279 636 OFFCURVE",
"354 646 CURVE SMOOTH",
"367 647 OFFCURVE",
"380 648 OFFCURVE",
"392 648 CURVE SMOOTH",
"478 648 OFFCURVE",
"546 614 OFFCURVE",
"598 545 CURVE SMOOTH",
"644 482 OFFCURVE",
"668 407 OFFCURVE",
"668 320 CURVE SMOOTH",
"668 243 OFFCURVE",
"649 176 OFFCURVE",
"610 121 CURVE SMOOTH",
"568 60 OFFCURVE",
"510 25 OFFCURVE",
"435 16 CURVE SMOOTH",
"424 14 OFFCURVE",
"412 14 OFFCURVE",
"401 14 CURVE",
"401 14 LINE"
);
}
);
};
layerId = "274E8830-0A80-4149-8BE8-CF3C4CCD3F6F";
paths = (
{
closed = 1;
nodes = (
"838 -212 OFFCURVE",
"887 -202 OFFCURVE",
"950 -182 CURVE",
"958 -164 LINE",
"940 -168 OFFCURVE",
"922 -170 OFFCURVE",
"904 -170 CURVE SMOOTH",
"835 -170 OFFCURVE",
"752 -135 OFFCURVE",
"657 -65 CURVE SMOOTH",
"624 -41 OFFCURVE",
"586 -18 OFFCURVE",
"544 4 CURVE",
"684 48 OFFCURVE",
"754 162 OFFCURVE",
"754 346 CURVE SMOOTH",
"754 457 OFFCURVE",
"721 541 OFFCURVE",
"656 598 CURVE SMOOTH",
"595 652 OFFCURVE",
"507 679 OFFCURVE",
"394 679 CURVE SMOOTH",
"280 679 OFFCURVE",
"193 652 OFFCURVE",
"132 597 CURVE SMOOTH",
"68 541 OFFCURVE",
"36 457 OFFCURVE",
"36 346 CURVE SMOOTH",
"37 104 OFFCURVE",
"156 -17 OFFCURVE",
"395 -17 CURVE SMOOTH",
"430 -17 OFFCURVE",
"462 -14 OFFCURVE",
"491 -9 CURVE",
"520 -29 OFFCURVE",
"541 -46 OFFCURVE",
"555 -58 CURVE SMOOTH",
"679 -166 LINE SMOOTH",
"714 -197 OFFCURVE",
"755 -212 OFFCURVE",
"802 -212 CURVE",
"802 -212 LINE"
);
},
{
closed = 1;
nodes = (
"318 14 OFFCURVE",
"250 50 OFFCURVE",
"196 122 CURVE SMOOTH",
"147 189 OFFCURVE",
"123 266 OFFCURVE",
"123 355 CURVE SMOOTH",
"123 430 OFFCURVE",
"141 493 OFFCURVE",
"178 545 CURVE SMOOTH",
"220 603 OFFCURVE",
"279 636 OFFCURVE",
"354 646 CURVE SMOOTH",
"367 647 OFFCURVE",
"380 648 OFFCURVE",
"392 648 CURVE SMOOTH",
"478 648 OFFCURVE",
"546 614 OFFCURVE",
"598 545 CURVE SMOOTH",
"644 482 OFFCURVE",
"668 407 OFFCURVE",
"668 320 CURVE SMOOTH",
"668 243 OFFCURVE",
"649 176 OFFCURVE",
"610 121 CURVE SMOOTH",
"568 60 OFFCURVE",
"510 25 OFFCURVE",
"435 16 CURVE SMOOTH",
"424 14 OFFCURVE",
"412 14 OFFCURVE",
"401 14 CURVE",
"401 14 LINE"
);
}
);
width = 786;
}
);
leftKerningGroup = O;
leftMetricsKey = O;
note = Q;
rightKerningGroup = Q;
unicode = 0051;
},
{
color = 3;
glyphname = R;
lastChange = "2021-08-18 00:38:08 +0000";
layers = (
{
anchors = (
{
name = bottom;
position = "{403, 0}";
},
{
name = top;
position = "{307, 665}";
}
);
background = {
anchors = (
{
name = bottom;
position = "{403, 0}";
},
{
name = top;
position = "{307, 665}";
}
);
paths = (
{
closed = 1;
nodes = (
"698 -9 OFFCURVE",
"722 -7 OFFCURVE",
"751 -4 CURVE",
"761 14 LINE",
"701 14 OFFCURVE",
"634 54 OFFCURVE",
"558 137 CURVE SMOOTH",
"502 199 OFFCURVE",
"454 267 OFFCURVE",
"413 342 CURVE",
"441 348 OFFCURVE",
"469 367 OFFCURVE",
"496 398 CURVE SMOOTH",
"526 433 OFFCURVE",
"542 472 OFFCURVE",
"542 514 CURVE SMOOTH",
"542 573 OFFCURVE",
"522 615 OFFCURVE",
"483 639 CURVE SMOOTH",
"453 657 OFFCURVE",
"409 666 OFFCURVE",
"351 666 CURVE SMOOTH",
"333 666 OFFCURVE",
"307 665 OFFCURVE",
"271 663 CURVE SMOOTH",
"217 659 OFFCURVE",
"190 658 OFFCURVE",
"189 658 CURVE SMOOTH",
"121 661 OFFCURVE",
"77 664 OFFCURVE",
"55 667 CURVE",
"46 647 LINE",
"59 650 OFFCURVE",
"70 651 OFFCURVE",
"81 651 CURVE SMOOTH",
"101 651 OFFCURVE",
"118 646 OFFCURVE",
"130 635 CURVE",
"145 619 OFFCURVE",
"152 501 OFFCURVE",
"152 283 CURVE SMOOTH",
"152 169 OFFCURVE",
"148 96 OFFCURVE",
"140 65 CURVE SMOOTH",
"136 48 OFFCURVE",
"123 35 OFFCURVE",
"101 26 CURVE SMOOTH",
"83 19 OFFCURVE",
"64 16 OFFCURVE",
"44 16 CURVE SMOOTH",
"37 16 OFFCURVE",
"32 16 OFFCURVE",
"28 17 CURVE",
"20 -3 LINE",
"109 4 OFFCURVE",
"171 7 OFFCURVE",
"206 7 CURVE SMOOTH",
"254 7 OFFCURVE",
"297 4 OFFCURVE",
"336 -3 CURVE",
"348 19 LINE",
"281 20 OFFCURVE",
"244 32 OFFCURVE",
"234 53 CURVE",
"227 74 OFFCURVE",
"224 143 OFFCURVE",
"224 259 CURVE SMOOTH",
"224 403 LINE SMOOTH",
"224 492 OFFCURVE",
"226 559 OFFCURVE",
"231 603 CURVE SMOOTH",
"232 617 OFFCURVE",
"242 627 OFFCURVE",
"261 630 CURVE SMOOTH",
"270 632 OFFCURVE",
"291 633 OFFCURVE",
"324 633 CURVE SMOOTH",
"368 633 OFFCURVE",
"403 619 OFFCURVE",
"429 592 CURVE SMOOTH",
"454 566 OFFCURVE",
"467 535 OFFCURVE",
"467 496 CURVE SMOOTH",
"467 443 OFFCURVE",
"448 401 OFFCURVE",
"412 370 CURVE SMOOTH",
"379 343 OFFCURVE",
"336 329 OFFCURVE",
"283 329 CURVE",
"272 310 LINE",
"289 310 OFFCURVE",
"307 311 OFFCURVE",
"326 314 CURVE",
"338 304 OFFCURVE",
"349 292 OFFCURVE",
"361 277 CURVE SMOOTH",
"368 268 OFFCURVE",
"378 253 OFFCURVE",
"393 232 CURVE SMOOTH",
"494 82 LINE SMOOTH",
"535 22 OFFCURVE",
"596 -9 OFFCURVE",
"678 -9 CURVE",
"678 -9 LINE"
);
}
);
};
layerId = "274E8830-0A80-4149-8BE8-CF3C4CCD3F6F";
paths = (
{
closed = 1;
nodes = (
"698 -9 OFFCURVE",
"722 -7 OFFCURVE",
"751 -4 CURVE",
"761 14 LINE",
"701 14 OFFCURVE",
"634 54 OFFCURVE",
"558 137 CURVE SMOOTH",
"502 199 OFFCURVE",
"454 267 OFFCURVE",
"413 342 CURVE",
"441 348 OFFCURVE",
"469 367 OFFCURVE",
"496 398 CURVE SMOOTH",
"526 433 OFFCURVE",
"542 472 OFFCURVE",
"542 514 CURVE SMOOTH",
"542 573 OFFCURVE",
"522 615 OFFCURVE",
"483 639 CURVE SMOOTH",
"453 657 OFFCURVE",
"409 666 OFFCURVE",
"351 666 CURVE SMOOTH",
"333 666 OFFCURVE",
"307 665 OFFCURVE",
"271 663 CURVE SMOOTH",
"217 659 OFFCURVE",
"190 658 OFFCURVE",
"189 658 CURVE SMOOTH",
"121 661 OFFCURVE",
"77 664 OFFCURVE",
"55 667 CURVE",
"46 647 LINE",
"59 650 OFFCURVE",
"70 651 OFFCURVE",
"81 651 CURVE SMOOTH",
"101 651 OFFCURVE",
"118 646 OFFCURVE",
"130 635 CURVE",
"145 619 OFFCURVE",
"152 501 OFFCURVE",
"152 283 CURVE SMOOTH",
"152 169 OFFCURVE",
"148 96 OFFCURVE",
"140 65 CURVE SMOOTH",
"136 48 OFFCURVE",
"123 35 OFFCURVE",
"101 26 CURVE SMOOTH",
"83 19 OFFCURVE",
"64 16 OFFCURVE",
"44 16 CURVE SMOOTH",
"37 16 OFFCURVE",
"32 16 OFFCURVE",
"28 17 CURVE",
"20 -3 LINE",
"109 4 OFFCURVE",
"171 7 OFFCURVE",
"206 7 CURVE SMOOTH",
"254 7 OFFCURVE",
"297 4 OFFCURVE",
"336 -3 CURVE",
"348 19 LINE",
"281 20 OFFCURVE",
"244 32 OFFCURVE",
"234 53 CURVE",
"227 74 OFFCURVE",
"224 143 OFFCURVE",
"224 259 CURVE SMOOTH",
"224 403 LINE SMOOTH",
"224 492 OFFCURVE",
"226 559 OFFCURVE",
"231 603 CURVE SMOOTH",
"232 617 OFFCURVE",
"242 627 OFFCURVE",
"261 630 CURVE SMOOTH",
"270 632 OFFCURVE",
"291 633 OFFCURVE",
"324 633 CURVE SMOOTH",
"368 633 OFFCURVE",
"403 619 OFFCURVE",
"429 592 CURVE SMOOTH",
"454 566 OFFCURVE",
"467 535 OFFCURVE",
"467 496 CURVE SMOOTH",
"467 443 OFFCURVE",
"448 401 OFFCURVE",
"412 370 CURVE SMOOTH",
"379 343 OFFCURVE",
"336 329 OFFCURVE",
"283 329 CURVE",
"272 310 LINE",
"289 310 OFFCURVE",
"307 311 OFFCURVE",
"326 314 CURVE",
"338 304 OFFCURVE",
"349 292 OFFCURVE",
"361 277 CURVE SMOOTH",
"368 268 OFFCURVE",
"378 253 OFFCURVE",
"393 232 CURVE SMOOTH",
"494 82 LINE SMOOTH",
"535 22 OFFCURVE",
"596 -9 OFFCURVE",
"678 -9 CURVE",
"678 -9 LINE"
);
}
);
width = 753;
}
);
leftKerningGroup = H;
leftMetricsKey = H;
note = R;
rightKerningGroup = R;
unicode = 0052;
},
{
color = 3;
glyphname = S;
lastChange = "2021-08-18 00:28:35 +0000";
layers = (
{
anchors = (
{
name = bottom;
position = "{219, 0}";
},
{
name = top;
position = "{252, 670}";
}
);
background = {
anchors = (
{
name = bottom;
position = "{219, 0}";
},
{
name = top;
position = "{252, 670}";
}
);
paths = (
{
closed = 1;
nodes = (
"224 -19 OFFCURVE",
"272 -9 OFFCURVE",
"311 11 CURVE SMOOTH",
"342 26 OFFCURVE",
"366 49 OFFCURVE",
"384 79 CURVE SMOOTH",
"401 108 OFFCURVE",
"409 139 OFFCURVE",
"409 173 CURVE SMOOTH",
"409 207 OFFCURVE",
"400 238 OFFCURVE",
"383 267 CURVE SMOOTH",
"367 293 OFFCURVE",
"335 320 OFFCURVE",
"288 348 CURVE SMOOTH",
"227 385 OFFCURVE",
"190 408 OFFCURVE",
"178 419 CURVE SMOOTH",
"142 449 OFFCURVE",
"125 484 OFFCURVE",
"125 524 CURVE SMOOTH",
"125 562 OFFCURVE",
"137 593 OFFCURVE",
"162 615 CURVE SMOOTH",
"184 635 OFFCURVE",
"211 644 OFFCURVE",
"244 644 CURVE SMOOTH",
"277 644 OFFCURVE",
"305 635 OFFCURVE",
"330 616 CURVE SMOOTH",
"345 604 OFFCURVE",
"352 585 OFFCURVE",
"352 559 CURVE SMOOTH",
"352 542 OFFCURVE",
"350 528 OFFCURVE",
"346 518 CURVE",
"367 509 LINE",
"367 552 OFFCURVE",
"374 592 OFFCURVE",
"388 629 CURVE SMOOTH",
"388 630 OFFCURVE",
"388 632 OFFCURVE",
"388 633 CURVE SMOOTH",
"388 640 OFFCURVE",
"380 647 OFFCURVE",
"365 655 CURVE SMOOTH",
"341 666 OFFCURVE",
"310 672 OFFCURVE",
"271 672 CURVE SMOOTH",
"270 672 LINE SMOOTH",
"210 672 OFFCURVE",
"159 654 OFFCURVE",
"119 617 CURVE SMOOTH",
"78 580 OFFCURVE",
"57 535 OFFCURVE",
"57 481 CURVE SMOOTH",
"57 436 OFFCURVE",
"75 398 OFFCURVE",
"110 369 CURVE SMOOTH",
"113 366 OFFCURVE",
"150 344 OFFCURVE",
"219 303 CURVE SMOOTH",
"265 276 OFFCURVE",
"296 245 OFFCURVE",
"311 211 CURVE SMOOTH",
"321 188 OFFCURVE",
"326 164 OFFCURVE",
"326 137 CURVE SMOOTH",
"326 83 OFFCURVE",
"308 46 OFFCURVE",
"271 26 CURVE SMOOTH",
"252 16 OFFCURVE",
"229 10 OFFCURVE",
"203 10 CURVE SMOOTH",
"173 10 OFFCURVE",
"145 17 OFFCURVE",
"119 30 CURVE SMOOTH",
"93 43 OFFCURVE",
"77 60 OFFCURVE",
"73 78 CURVE SMOOTH",
"71 86 OFFCURVE",
"70 112 OFFCURVE",
"70 157 CURVE",
"48 149 LINE",
"48 138 OFFCURVE",
"48 126 OFFCURVE",
"48 113 CURVE SMOOTH",
"48 85 OFFCURVE",
"47 52 OFFCURVE",
"45 14 CURVE SMOOTH",
"45 9 OFFCURVE",
"47 4 OFFCURVE",
"52 1 CURVE SMOOTH",
"77 -12 OFFCURVE",
"115 -19 OFFCURVE",
"167 -19 CURVE",
"167 -19 LINE"
);
}
);
};
layerId = "274E8830-0A80-4149-8BE8-CF3C4CCD3F6F";
paths = (
{
closed = 1;
nodes = (
"224 -19 OFFCURVE",
"272 -9 OFFCURVE",
"311 11 CURVE SMOOTH",
"342 26 OFFCURVE",
"366 49 OFFCURVE",
"384 79 CURVE SMOOTH",
"401 108 OFFCURVE",
"409 139 OFFCURVE",
"409 173 CURVE SMOOTH",
"409 207 OFFCURVE",
"400 238 OFFCURVE",
"383 267 CURVE SMOOTH",
"367 293 OFFCURVE",
"335 320 OFFCURVE",
"288 348 CURVE SMOOTH",
"227 385 OFFCURVE",
"190 408 OFFCURVE",
"178 419 CURVE SMOOTH",
"142 449 OFFCURVE",
"125 484 OFFCURVE",
"125 524 CURVE SMOOTH",
"125 562 OFFCURVE",
"137 593 OFFCURVE",
"162 615 CURVE SMOOTH",
"184 635 OFFCURVE",
"211 644 OFFCURVE",
"244 644 CURVE SMOOTH",
"277 644 OFFCURVE",
"305 635 OFFCURVE",
"330 616 CURVE SMOOTH",
"345 604 OFFCURVE",
"352 585 OFFCURVE",
"352 559 CURVE SMOOTH",
"352 542 OFFCURVE",
"350 528 OFFCURVE",
"346 518 CURVE",
"367 509 LINE",
"367 552 OFFCURVE",
"374 592 OFFCURVE",
"388 629 CURVE SMOOTH",
"388 630 OFFCURVE",
"388 632 OFFCURVE",
"388 633 CURVE SMOOTH",
"388 640 OFFCURVE",
"380 647 OFFCURVE",
"365 655 CURVE SMOOTH",
"341 666 OFFCURVE",
"310 672 OFFCURVE",
"271 672 CURVE SMOOTH",
"270 672 LINE SMOOTH",
"210 672 OFFCURVE",
"159 654 OFFCURVE",
"119 617 CURVE SMOOTH",
"78 580 OFFCURVE",
"57 535 OFFCURVE",
"57 481 CURVE SMOOTH",
"57 436 OFFCURVE",
"75 398 OFFCURVE",
"110 369 CURVE SMOOTH",
"113 366 OFFCURVE",
"150 344 OFFCURVE",
"219 303 CURVE SMOOTH",
"265 276 OFFCURVE",
"296 245 OFFCURVE",
"311 211 CURVE SMOOTH",
"321 188 OFFCURVE",
"326 164 OFFCURVE",
"326 137 CURVE SMOOTH",
"326 83 OFFCURVE",
"308 46 OFFCURVE",
"271 26 CURVE SMOOTH",
"252 16 OFFCURVE",
"229 10 OFFCURVE",
"203 10 CURVE SMOOTH",
"173 10 OFFCURVE",
"145 17 OFFCURVE",
"119 30 CURVE SMOOTH",
"93 43 OFFCURVE",
"77 60 OFFCURVE",
"73 78 CURVE SMOOTH",
"71 86 OFFCURVE",
"70 112 OFFCURVE",
"70 157 CURVE",
"48 149 LINE",
"48 138 OFFCURVE",
"48 126 OFFCURVE",
"48 113 CURVE SMOOTH",
"48 85 OFFCURVE",
"47 52 OFFCURVE",
"45 14 CURVE SMOOTH",
"45 9 OFFCURVE",
"47 4 OFFCURVE",
"52 1 CURVE SMOOTH",
"77 -12 OFFCURVE",
"115 -19 OFFCURVE",
"167 -19 CURVE",
"167 -19 LINE"
);
}
);
width = 442;
}
);
leftKerningGroup = S;
note = S;
rightKerningGroup = S;
unicode = 0053;
},
{
color = 3;
glyphname = Germandbls;
lastChange = "2021-08-12 01:25:21 +0000";
layers = (
{
background = {
hints = (
{
horizontal = 1;
place = "{-3, 24}";
type = Stem;
},
{
horizontal = 1;
place = "{364, 21}";
type = Stem;
},
{
horizontal = 1;
place = "{633, 32}";
type = Stem;
},
{
place = "{143, 72}";
type = Stem;
},
{
place = "{450, 63}";
type = Stem;
},
{
place = "{524, 76}";
type = Stem;
},
{
horizontal = 1;
place = "{667, -20}";
target = down;
type = TopGhost;
}
);
paths = (
{
closed = 1;
nodes = (
"386 -14 OFFCURVE",
"409 -8 OFFCURVE",
"429 6 CURVE SMOOTH",
"432 7 OFFCURVE",
"445 18 OFFCURVE",
"468 39 CURVE SMOOTH",
"537 99 LINE SMOOTH",
"559 118 OFFCURVE",
"570 144 OFFCURVE",
"570 178 CURVE SMOOTH",
"570 284 OFFCURVE",
"464 339 OFFCURVE",
"346 374 CURVE SMOOTH",
"330 380 OFFCURVE",
"321 387 OFFCURVE",
"321 396 CURVE SMOOTH",
"321 417 OFFCURVE",
"510 536 OFFCURVE",
"510 600 CURVE SMOOTH",
"510 668 OFFCURVE",
"380 675 OFFCURVE",
"316 675 CURVE SMOOTH",
"299 675 OFFCURVE",
"285 674 OFFCURVE",
"269 673 CURVE SMOOTH",
"204 669 OFFCURVE",
"163 652 OFFCURVE",
"145 622 CURVE SMOOTH",
"132 599 OFFCURVE",
"128 590 OFFCURVE",
"128 554 CURVE SMOOTH",
"128 519 OFFCURVE",
"132 459 OFFCURVE",
"132 336 CURVE SMOOTH",
"132 74 OFFCURVE",
"111 18 OFFCURVE",
"33 18 CURVE SMOOTH",
"27 18 OFFCURVE",
"28 10 OFFCURVE",
"23 -3 CURVE",
"49 0 OFFCURVE",
"96 -1 OFFCURVE",
"124 0 CURVE SMOOTH",
"150 1 OFFCURVE",
"179 -1 OFFCURVE",
"189 7 CURVE SMOOTH",
"197 14 OFFCURVE",
"199 27 OFFCURVE",
"199 40 CURVE SMOOTH",
"199 50 OFFCURVE",
"198 60 OFFCURVE",
"198 70 CURVE SMOOTH",
"201 236 LINE SMOOTH",
"202 365 OFFCURVE",
"205 481 OFFCURVE",
"211 565 CURVE SMOOTH",
"213 595 OFFCURVE",
"223 618 OFFCURVE",
"242 634 CURVE SMOOTH",
"259 649 OFFCURVE",
"279 656 OFFCURVE",
"303 656 CURVE SMOOTH",
"335 656 OFFCURVE",
"362 648 OFFCURVE",
"385 632 CURVE SMOOTH",
"410 613 OFFCURVE",
"422 590 OFFCURVE",
"422 560 CURVE SMOOTH",
"422 513 OFFCURVE",
"328 445 OFFCURVE",
"285 406 CURVE SMOOTH",
"273 395 OFFCURVE",
"267 384 OFFCURVE",
"267 371 CURVE SMOOTH",
"267 358 OFFCURVE",
"275 346 OFFCURVE",
"292 336 CURVE",
"364 299 OFFCURVE",
"433 279 OFFCURVE",
"462 242 CURVE SMOOTH",
"481 218 OFFCURVE",
"490 187 OFFCURVE",
"490 149 CURVE SMOOTH",
"490 102 OFFCURVE",
"472 66 OFFCURVE",
"435 41 CURVE SMOOTH",
"419 30 OFFCURVE",
"401 24 OFFCURVE",
"381 24 CURVE SMOOTH",
"338 24 OFFCURVE",
"296 46 OFFCURVE",
"254 91 CURVE",
"252 93 OFFCURVE",
"250 94 OFFCURVE",
"249 94 CURVE SMOOTH",
"244 94 OFFCURVE",
"242 87 OFFCURVE",
"242 74 CURVE SMOOTH",
"242 45 OFFCURVE",
"249 25 OFFCURVE",
"263 14 CURVE SMOOTH",
"283 -1 OFFCURVE",
"311 -11 OFFCURVE",
"345 -14 CURVE SMOOTH",
"351 -14 OFFCURVE",
"356 -14 OFFCURVE",
"360 -14 CURVE",
"360 -14 LINE"
);
}
);
};
layerId = "274E8830-0A80-4149-8BE8-CF3C4CCD3F6F";
paths = (
{
closed = 1;
nodes = (
"386 -14 OFFCURVE",
"409 -8 OFFCURVE",
"429 6 CURVE SMOOTH",
"432 7 OFFCURVE",
"445 18 OFFCURVE",
"468 39 CURVE SMOOTH",
"537 99 LINE SMOOTH",
"559 118 OFFCURVE",
"570 144 OFFCURVE",
"570 178 CURVE SMOOTH",
"570 284 OFFCURVE",
"464 339 OFFCURVE",
"346 374 CURVE SMOOTH",
"330 380 OFFCURVE",
"321 387 OFFCURVE",
"321 396 CURVE SMOOTH",
"321 417 OFFCURVE",
"510 536 OFFCURVE",
"510 600 CURVE SMOOTH",
"510 668 OFFCURVE",
"380 675 OFFCURVE",
"316 675 CURVE SMOOTH",
"299 675 OFFCURVE",
"285 674 OFFCURVE",
"269 673 CURVE SMOOTH",
"204 669 OFFCURVE",
"163 652 OFFCURVE",
"145 622 CURVE SMOOTH",
"132 599 OFFCURVE",
"128 590 OFFCURVE",
"128 554 CURVE SMOOTH",
"128 519 OFFCURVE",
"132 459 OFFCURVE",
"132 336 CURVE SMOOTH",
"132 74 OFFCURVE",
"111 18 OFFCURVE",
"33 18 CURVE SMOOTH",
"27 18 OFFCURVE",
"28 10 OFFCURVE",
"23 -3 CURVE",
"49 0 OFFCURVE",
"96 -1 OFFCURVE",
"124 0 CURVE SMOOTH",
"150 1 OFFCURVE",
"179 -1 OFFCURVE",
"189 7 CURVE SMOOTH",
"197 14 OFFCURVE",
"199 27 OFFCURVE",
"199 40 CURVE SMOOTH",
"199 50 OFFCURVE",
"198 60 OFFCURVE",
"198 70 CURVE SMOOTH",
"201 236 LINE SMOOTH",
"202 365 OFFCURVE",
"205 481 OFFCURVE",
"211 565 CURVE SMOOTH",
"213 595 OFFCURVE",
"223 618 OFFCURVE",
"242 634 CURVE SMOOTH",
"259 649 OFFCURVE",
"279 656 OFFCURVE",
"303 656 CURVE SMOOTH",
"335 656 OFFCURVE",
"362 648 OFFCURVE",
"385 632 CURVE SMOOTH",
"410 613 OFFCURVE",
"422 590 OFFCURVE",
"422 560 CURVE SMOOTH",
"422 513 OFFCURVE",
"328 445 OFFCURVE",
"285 406 CURVE SMOOTH",
"273 395 OFFCURVE",
"267 384 OFFCURVE",
"267 371 CURVE SMOOTH",
"267 358 OFFCURVE",
"275 346 OFFCURVE",
"292 336 CURVE",
"364 299 OFFCURVE",
"433 279 OFFCURVE",
"462 242 CURVE SMOOTH",
"481 218 OFFCURVE",
"490 187 OFFCURVE",
"490 149 CURVE SMOOTH",
"490 102 OFFCURVE",
"472 66 OFFCURVE",
"435 41 CURVE SMOOTH",
"419 30 OFFCURVE",
"401 24 OFFCURVE",
"381 24 CURVE SMOOTH",
"338 24 OFFCURVE",
"296 46 OFFCURVE",
"254 91 CURVE",
"252 93 OFFCURVE",
"250 94 OFFCURVE",
"249 94 CURVE SMOOTH",
"244 94 OFFCURVE",
"242 87 OFFCURVE",
"242 74 CURVE SMOOTH",
"242 45 OFFCURVE",
"249 25 OFFCURVE",
"263 14 CURVE SMOOTH",
"283 -1 OFFCURVE",
"311 -11 OFFCURVE",
"345 -14 CURVE SMOOTH",
"351 -14 OFFCURVE",
"356 -14 OFFCURVE",
"360 -14 CURVE",
"360 -14 LINE"
);
}
);
width = 592;
}
);
unicode = 1E9E;
},
{
glyphname = Schwa;
lastChange = "2021-08-12 01:25:21 +0000";
layers = (
{
background = {
paths = (
{
closed = 1;
nodes = (
"400 0 OFFCURVE",
"494 46 OFFCURVE",
"540 137 CURVE SMOOTH",
"568 193 OFFCURVE",
"582 265 OFFCURVE",
"582 354 CURVE SMOOTH",
"582 364 LINE SMOOTH",
"581 469 OFFCURVE",
"563 545 OFFCURVE",
"530 593 CURVE SMOOTH",
"489 650 OFFCURVE",
"419 678 OFFCURVE",
"320 678 CURVE SMOOTH",
"174 678 OFFCURVE",
"82 659 OFFCURVE",
"42 621 CURVE SMOOTH",
"32 612 OFFCURVE",
"26 602 OFFCURVE",
"24 594 CURVE",
"25 566 OFFCURVE",
"26 543 OFFCURVE",
"28 525 CURVE",
"26 481 OFFCURVE",
"24 450 OFFCURVE",
"23 432 CURVE",
"52 445 LINE",
"52 450 OFFCURVE",
"53 456 OFFCURVE",
"54 463 CURVE SMOOTH",
"76 578 OFFCURVE",
"151 644 OFFCURVE",
"279 644 CURVE SMOOTH",
"287 644 LINE SMOOTH",
"374 642 OFFCURVE",
"447 606 OFFCURVE",
"476 535 CURVE SMOOTH",
"491 496 OFFCURVE",
"495 437 OFFCURVE",
"495 355 CURVE SMOOTH",
"495 341 OFFCURVE",
"495 326 OFFCURVE",
"495 310 CURVE",
"445 306 OFFCURVE",
"384 304 OFFCURVE",
"296 304 CURVE SMOOTH",
"285 304 OFFCURVE",
"251 302 OFFCURVE",
"194 300 CURVE SMOOTH",
"185 300 OFFCURVE",
"176 300 OFFCURVE",
"167 300 CURVE SMOOTH",
"144 300 OFFCURVE",
"122 301 OFFCURVE",
"102 304 CURVE SMOOTH",
"96 305 OFFCURVE",
"82 289 OFFCURVE",
"59 258 CURVE SMOOTH",
"41 233 OFFCURVE",
"27 216 OFFCURVE",
"20 206 CURVE",
"19 143 OFFCURVE",
"38 93 OFFCURVE",
"77 58 CURVE SMOOTH",
"119 20 OFFCURVE",
"180 0 OFFCURVE",
"260 0 CURVE",
"260 0 LINE"
);
},
{
closed = 1;
nodes = (
"194 32 OFFCURVE",
"134 80 OFFCURVE",
"111 157 CURVE SMOOTH",
"106 174 OFFCURVE",
"104 189 OFFCURVE",
"104 202 CURVE SMOOTH",
"104 230 OFFCURVE",
"118 252 OFFCURVE",
"136 255 CURVE SMOOTH",
"172 260 OFFCURVE",
"228 264 OFFCURVE",
"305 266 CURVE SMOOTH",
"333 267 OFFCURVE",
"357 267 OFFCURVE",
"378 267 CURVE SMOOTH",
"435 267 OFFCURVE",
"471 265 OFFCURVE",
"491 260 CURVE",
"490 239 OFFCURVE",
"489 218 OFFCURVE",
"488 212 CURVE SMOOTH",
"471 98 OFFCURVE",
"391 32 OFFCURVE",
"278 32 CURVE",
"278 32 LINE"
);
}
);
};
layerId = "274E8830-0A80-4149-8BE8-CF3C4CCD3F6F";
paths = (
{
closed = 1;
nodes = (
"400 0 OFFCURVE",
"494 46 OFFCURVE",
"540 137 CURVE SMOOTH",
"568 193 OFFCURVE",
"582 265 OFFCURVE",
"582 354 CURVE SMOOTH",
"582 364 LINE SMOOTH",
"581 469 OFFCURVE",
"563 545 OFFCURVE",
"530 593 CURVE SMOOTH",
"489 650 OFFCURVE",
"419 678 OFFCURVE",
"320 678 CURVE SMOOTH",
"174 678 OFFCURVE",
"82 659 OFFCURVE",
"42 621 CURVE SMOOTH",
"32 612 OFFCURVE",
"26 602 OFFCURVE",
"24 594 CURVE",
"25 566 OFFCURVE",
"26 543 OFFCURVE",
"28 525 CURVE",
"26 481 OFFCURVE",
"24 450 OFFCURVE",
"23 432 CURVE",
"52 445 LINE",
"52 450 OFFCURVE",
"53 456 OFFCURVE",
"54 463 CURVE SMOOTH",
"76 578 OFFCURVE",
"151 644 OFFCURVE",
"279 644 CURVE SMOOTH",
"287 644 LINE SMOOTH",
"374 642 OFFCURVE",
"447 606 OFFCURVE",
"476 535 CURVE SMOOTH",
"491 496 OFFCURVE",
"495 437 OFFCURVE",
"495 355 CURVE SMOOTH",
"495 341 OFFCURVE",
"495 326 OFFCURVE",
"495 310 CURVE",
"445 306 OFFCURVE",
"384 304 OFFCURVE",
"296 304 CURVE SMOOTH",
"285 304 OFFCURVE",
"251 302 OFFCURVE",
"194 300 CURVE SMOOTH",
"185 300 OFFCURVE",
"176 300 OFFCURVE",
"167 300 CURVE SMOOTH",
"144 300 OFFCURVE",
"122 301 OFFCURVE",
"102 304 CURVE SMOOTH",
"96 305 OFFCURVE",
"82 289 OFFCURVE",
"59 258 CURVE SMOOTH",
"41 233 OFFCURVE",
"27 216 OFFCURVE",
"20 206 CURVE",
"19 143 OFFCURVE",
"38 93 OFFCURVE",
"77 58 CURVE SMOOTH",
"119 20 OFFCURVE",
"180 0 OFFCURVE",
"260 0 CURVE",
"260 0 LINE"
);
},
{
closed = 1;
nodes = (
"194 32 OFFCURVE",
"134 80 OFFCURVE",
"111 157 CURVE SMOOTH",
"106 174 OFFCURVE",
"104 189 OFFCURVE",
"104 202 CURVE SMOOTH",
"104 230 OFFCURVE",
"118 252 OFFCURVE",
"136 255 CURVE SMOOTH",
"172 260 OFFCURVE",
"228 264 OFFCURVE",
"305 266 CURVE SMOOTH",
"333 267 OFFCURVE",
"357 267 OFFCURVE",
"378 267 CURVE SMOOTH",
"435 267 OFFCURVE",
"471 265 OFFCURVE",
"491 260 CURVE",
"490 239 OFFCURVE",
"489 218 OFFCURVE",
"488 212 CURVE SMOOTH",
"471 98 OFFCURVE",
"391 32 OFFCURVE",
"278 32 CURVE",
"278 32 LINE"
);
}
);
width = 602;
}
);
unicode = 018F;
},
{
color = 3;
glyphname = T;
lastChange = "2021-08-18 00:38:13 +0000";
layers = (
{
anchors = (
{
name = bottom;
position = "{287, 13}";
},
{
name = center;
position = "{305, 335}";
},
{
name = top;
position = "{297, 661}";
}
);
background = {
anchors = (
{
name = bottom;
position = "{287, 13}";
},
{
name = center;
position = "{305, 335}";
},
{
name = top;
position = "{297, 661}";
}
);
paths = (
{
closed = 1;
nodes = (
"131 -3 LINE",
"213 4 OFFCURVE",
"268 7 OFFCURVE",
"295 7 CURVE SMOOTH",
"310 7 LINE SMOOTH",
"378 7 OFFCURVE",
"424 4 OFFCURVE",
"447 -3 CURVE",
"459 20 LINE",
"452 19 OFFCURVE",
"445 19 OFFCURVE",
"439 19 CURVE SMOOTH",
"423 19 OFFCURVE",
"407 21 OFFCURVE",
"391 25 CURVE SMOOTH",
"363 33 OFFCURVE",
"347 45 OFFCURVE",
"344 64 CURVE",
"339 105 OFFCURVE",
"337 175 OFFCURVE",
"337 274 CURVE SMOOTH",
"337 407 LINE SMOOTH",
"337 530 OFFCURVE",
"340 598 OFFCURVE",
"345 614 CURVE SMOOTH",
"349 626 OFFCURVE",
"360 632 OFFCURVE",
"377 632 CURVE SMOOTH",
"479 632 OFFCURVE",
"535 623 OFFCURVE",
"544 604 CURVE SMOOTH",
"549 595 OFFCURVE",
"552 583 OFFCURVE",
"552 568 CURVE SMOOTH",
"552 553 OFFCURVE",
"549 534 OFFCURVE",
"543 512 CURVE",
"561 505 LINE",
"561 516 OFFCURVE",
"565 540 OFFCURVE",
"573 577 CURVE SMOOTH",
"581 617 OFFCURVE",
"589 648 OFFCURVE",
"597 670 CURVE",
"507 664 OFFCURVE",
"408 661 OFFCURVE",
"297 661 CURVE SMOOTH",
"209 661 OFFCURVE",
"122 664 OFFCURVE",
"34 670 CURVE",
"26 609 OFFCURVE",
"19 557 OFFCURVE",
"13 514 CURVE",
"32 506 LINE",
"35 546 OFFCURVE",
"45 579 OFFCURVE",
"61 605 CURVE SMOOTH",
"72 623 OFFCURVE",
"124 632 OFFCURVE",
"216 632 CURVE SMOOTH",
"236 632 OFFCURVE",
"247 626 OFFCURVE",
"250 616 CURVE SMOOTH",
"252 610 OFFCURVE",
"254 579 OFFCURVE",
"256 525 CURVE SMOOTH",
"258 472 OFFCURVE",
"260 433 OFFCURVE",
"260 407 CURVE SMOOTH",
"260 267 LINE SMOOTH",
"260 181 OFFCURVE",
"257 113 OFFCURVE",
"251 65 CURVE",
"244 32 OFFCURVE",
"212 16 OFFCURVE",
"157 16 CURVE SMOOTH",
"151 16 OFFCURVE",
"145 17 OFFCURVE",
"140 18 CURVE",
"131 -3 LINE"
);
}
);
};
layerId = "274E8830-0A80-4149-8BE8-CF3C4CCD3F6F";
paths = (
{
closed = 1;
nodes = (
"131 -3 LINE",
"213 4 OFFCURVE",
"268 7 OFFCURVE",
"295 7 CURVE SMOOTH",
"310 7 LINE SMOOTH",
"378 7 OFFCURVE",
"424 4 OFFCURVE",
"447 -3 CURVE",
"459 20 LINE",
"452 19 OFFCURVE",
"445 19 OFFCURVE",
"439 19 CURVE SMOOTH",
"423 19 OFFCURVE",
"407 21 OFFCURVE",
"391 25 CURVE SMOOTH",
"363 33 OFFCURVE",
"347 45 OFFCURVE",
"344 64 CURVE",
"339 105 OFFCURVE",
"337 175 OFFCURVE",
"337 274 CURVE SMOOTH",
"337 407 LINE SMOOTH",
"337 530 OFFCURVE",
"340 598 OFFCURVE",
"345 614 CURVE SMOOTH",
"349 626 OFFCURVE",
"360 632 OFFCURVE",
"377 632 CURVE SMOOTH",
"479 632 OFFCURVE",
"535 623 OFFCURVE",
"544 604 CURVE SMOOTH",
"549 595 OFFCURVE",
"552 583 OFFCURVE",
"552 568 CURVE SMOOTH",
"552 553 OFFCURVE",
"549 534 OFFCURVE",
"543 512 CURVE",
"561 505 LINE",
"561 516 OFFCURVE",
"565 540 OFFCURVE",
"573 577 CURVE SMOOTH",
"581 617 OFFCURVE",
"589 648 OFFCURVE",
"597 670 CURVE",
"507 664 OFFCURVE",
"408 661 OFFCURVE",
"297 661 CURVE SMOOTH",
"209 661 OFFCURVE",
"122 664 OFFCURVE",
"34 670 CURVE",
"26 609 OFFCURVE",
"19 557 OFFCURVE",
"13 514 CURVE",
"32 506 LINE",
"35 546 OFFCURVE",
"45 579 OFFCURVE",
"61 605 CURVE SMOOTH",
"72 623 OFFCURVE",
"124 632 OFFCURVE",
"216 632 CURVE SMOOTH",
"236 632 OFFCURVE",
"247 626 OFFCURVE",
"250 616 CURVE SMOOTH",
"252 610 OFFCURVE",
"254 579 OFFCURVE",
"256 525 CURVE SMOOTH",
"258 472 OFFCURVE",
"260 433 OFFCURVE",
"260 407 CURVE SMOOTH",
"260 267 LINE SMOOTH",
"260 181 OFFCURVE",
"257 113 OFFCURVE",
"251 65 CURVE",
"244 32 OFFCURVE",
"212 16 OFFCURVE",
"157 16 CURVE SMOOTH",
"151 16 OFFCURVE",
"145 17 OFFCURVE",
"140 18 CURVE",
"131 -3 LINE"
);
}
);
width = 609;
}
);
leftKerningGroup = T;
note = T;
rightKerningGroup = T;
unicode = 0054;
},
{
color = 3;
glyphname = U;
lastChange = "2021-08-18 00:38:22 +0000";
layers = (
{
anchors = (
{
name = bottom;
position = "{406, 0}";
},
{
name = ogonek;
position = "{510, 3}";
},
{
name = top;
position = "{406, 670}";
},
{
name = topright;
position = "{706, 670}";
}
);
background = {
anchors = (
{
name = bottom;
position = "{406, 0}";
},
{
name = ogonek;
position = "{510, 3}";
},
{
name = top;
position = "{406, 670}";
},
{
name = topright;
position = "{706, 670}";
}
);
paths = (
{
closed = 1;
nodes = (
"488 -20 OFFCURVE",
"553 0 OFFCURVE",
"603 39 CURVE SMOOTH",
"666 88 OFFCURVE",
"698 165 OFFCURVE",
"698 269 CURVE SMOOTH",
"698 476 LINE SMOOTH",
"698 556 OFFCURVE",
"704 607 OFFCURVE",
"714 629 CURVE",
"728 645 OFFCURVE",
"748 653 OFFCURVE",
"774 653 CURVE SMOOTH",
"780 653 OFFCURVE",
"785 653 OFFCURVE",
"791 652 CURVE",
"805 670 LINE",
"762 666 OFFCURVE",
"715 662 OFFCURVE",
"662 660 CURVE",
"601 663 OFFCURVE",
"558 666 OFFCURVE",
"533 669 CURVE",
"524 649 LINE",
"533 651 OFFCURVE",
"543 652 OFFCURVE",
"554 652 CURVE SMOOTH",
"560 652 OFFCURVE",
"566 652 OFFCURVE",
"573 651 CURVE SMOOTH",
"595 649 OFFCURVE",
"610 645 OFFCURVE",
"619 637 CURVE",
"640 613 OFFCURVE",
"650 539 OFFCURVE",
"651 414 CURVE SMOOTH",
"651 253 LINE SMOOTH",
"651 178 OFFCURVE",
"631 119 OFFCURVE",
"591 77 CURVE SMOOTH",
"549 34 OFFCURVE",
"488 12 OFFCURVE",
"408 12 CURVE SMOOTH",
"264 12 OFFCURVE",
"192 90 OFFCURVE",
"192 247 CURVE SMOOTH",
"192 348 OFFCURVE",
"192 398 OFFCURVE",
"191 395 CURVE",
"191 403 LINE SMOOTH",
"191 530 OFFCURVE",
"197 605 OFFCURVE",
"209 629 CURVE",
"222 645 OFFCURVE",
"242 653 OFFCURVE",
"268 653 CURVE SMOOTH",
"274 653 OFFCURVE",
"279 653 OFFCURVE",
"285 652 CURVE",
"299 670 LINE",
"257 666 OFFCURVE",
"209 662 OFFCURVE",
"157 660 CURVE",
"89 663 OFFCURVE",
"44 666 OFFCURVE",
"22 669 CURVE",
"13 649 LINE",
"26 652 OFFCURVE",
"37 653 OFFCURVE",
"48 653 CURVE SMOOTH",
"68 653 OFFCURVE",
"85 648 OFFCURVE",
"98 637 CURVE",
"112 621 OFFCURVE",
"119 538 OFFCURVE",
"119 389 CURVE SMOOTH",
"119 222 LINE SMOOTH",
"119 135 OFFCURVE",
"145 72 OFFCURVE",
"196 33 CURVE SMOOTH",
"243 -2 OFFCURVE",
"314 -20 OFFCURVE",
"409 -20 CURVE",
"409 -20 LINE"
);
}
);
};
layerId = "274E8830-0A80-4149-8BE8-CF3C4CCD3F6F";
paths = (
{
closed = 1;
nodes = (
"488 -20 OFFCURVE",
"553 0 OFFCURVE",
"603 39 CURVE SMOOTH",
"666 88 OFFCURVE",
"698 165 OFFCURVE",
"698 269 CURVE SMOOTH",
"698 476 LINE SMOOTH",
"698 556 OFFCURVE",
"704 607 OFFCURVE",
"714 629 CURVE",
"728 645 OFFCURVE",
"748 653 OFFCURVE",
"774 653 CURVE SMOOTH",
"780 653 OFFCURVE",
"785 653 OFFCURVE",
"791 652 CURVE",
"805 670 LINE",
"762 666 OFFCURVE",
"715 662 OFFCURVE",
"662 660 CURVE",
"601 663 OFFCURVE",
"558 666 OFFCURVE",
"533 669 CURVE",
"524 649 LINE",
"533 651 OFFCURVE",
"543 652 OFFCURVE",
"554 652 CURVE SMOOTH",
"560 652 OFFCURVE",
"566 652 OFFCURVE",
"573 651 CURVE SMOOTH",
"595 649 OFFCURVE",
"610 645 OFFCURVE",
"619 637 CURVE",
"640 613 OFFCURVE",
"650 539 OFFCURVE",
"651 414 CURVE SMOOTH",
"651 253 LINE SMOOTH",
"651 178 OFFCURVE",
"631 119 OFFCURVE",
"591 77 CURVE SMOOTH",
"549 34 OFFCURVE",
"488 12 OFFCURVE",
"408 12 CURVE SMOOTH",
"264 12 OFFCURVE",
"192 90 OFFCURVE",
"192 247 CURVE SMOOTH",
"192 348 OFFCURVE",
"192 398 OFFCURVE",
"191 395 CURVE",
"191 403 LINE SMOOTH",
"191 530 OFFCURVE",
"197 605 OFFCURVE",
"209 629 CURVE",
"222 645 OFFCURVE",
"242 653 OFFCURVE",
"268 653 CURVE SMOOTH",
"274 653 OFFCURVE",
"279 653 OFFCURVE",
"285 652 CURVE",
"299 670 LINE",
"257 666 OFFCURVE",
"209 662 OFFCURVE",
"157 660 CURVE",
"89 663 OFFCURVE",
"44 666 OFFCURVE",
"22 669 CURVE",
"13 649 LINE",
"26 652 OFFCURVE",
"37 653 OFFCURVE",
"48 653 CURVE SMOOTH",
"68 653 OFFCURVE",
"85 648 OFFCURVE",
"98 637 CURVE",
"112 621 OFFCURVE",
"119 538 OFFCURVE",
"119 389 CURVE SMOOTH",
"119 222 LINE SMOOTH",
"119 135 OFFCURVE",
"145 72 OFFCURVE",
"196 33 CURVE SMOOTH",
"243 -2 OFFCURVE",
"314 -20 OFFCURVE",
"409 -20 CURVE",
"409 -20 LINE"
);
}
);
width = 813;
}
);
leftKerningGroup = U;
note = U;
rightKerningGroup = U;
unicode = 0055;
},
{
color = 6;
glyphname = Uhorn;
lastChange = "2021-08-12 01:25:21 +0000";
layers = (
{
anchors = (
{
name = bottom;
position = "{412, 0}";
},
{
name = ogonek;
position = "{741, 3}";
},
{
name = top;
position = "{412, 670}";
},
{
name = topright;
position = "{711, 670}";
}
);
background = {
anchors = (
{
name = bottom;
position = "{412, 0}";
},
{
name = ogonek;
position = "{741, 3}";
},
{
name = top;
position = "{412, 670}";
},
{
name = topright;
position = "{711, 670}";
}
);
paths = (
{
closed = 1;
nodes = (
"494 -20 OFFCURVE",
"558 0 OFFCURVE",
"608 39 CURVE SMOOTH",
"672 88 OFFCURVE",
"704 165 OFFCURVE",
"704 269 CURVE SMOOTH",
"704 476 LINE SMOOTH",
"704 556 OFFCURVE",
"709 607 OFFCURVE",
"720 629 CURVE",
"734 646 OFFCURVE",
"745 656 OFFCURVE",
"770 656 CURVE SMOOTH",
"774 656 OFFCURVE",
"779 656 OFFCURVE",
"783 656 CURVE",
"796 670 LINE",
"754 666 OFFCURVE",
"720 662 OFFCURVE",
"668 660 CURVE",
"606 663 OFFCURVE",
"563 666 OFFCURVE",
"539 669 CURVE",
"529 649 LINE",
"538 651 OFFCURVE",
"548 652 OFFCURVE",
"559 652 CURVE SMOOTH",
"565 652 OFFCURVE",
"572 652 OFFCURVE",
"578 651 CURVE SMOOTH",
"600 649 OFFCURVE",
"616 645 OFFCURVE",
"624 637 CURVE",
"646 613 OFFCURVE",
"656 539 OFFCURVE",
"656 414 CURVE SMOOTH",
"656 253 LINE SMOOTH",
"656 178 OFFCURVE",
"636 119 OFFCURVE",
"597 77 CURVE SMOOTH",
"555 34 OFFCURVE",
"494 12 OFFCURVE",
"414 12 CURVE SMOOTH",
"269 12 OFFCURVE",
"197 90 OFFCURVE",
"197 247 CURVE SMOOTH",
"197 348 OFFCURVE",
"197 398 OFFCURVE",
"197 395 CURVE",
"197 403 LINE SMOOTH",
"197 530 OFFCURVE",
"203 605 OFFCURVE",
"214 629 CURVE",
"228 645 OFFCURVE",
"248 653 OFFCURVE",
"274 653 CURVE SMOOTH",
"279 653 OFFCURVE",
"285 653 OFFCURVE",
"291 652 CURVE",
"305 670 LINE",
"262 666 OFFCURVE",
"214 662 OFFCURVE",
"162 660 CURVE",
"94 663 OFFCURVE",
"50 666 OFFCURVE",
"28 669 CURVE",
"19 649 LINE",
"31 652 OFFCURVE",
"43 653 OFFCURVE",
"53 653 CURVE SMOOTH",
"74 653 OFFCURVE",
"91 648 OFFCURVE",
"103 637 CURVE",
"118 621 OFFCURVE",
"125 538 OFFCURVE",
"125 389 CURVE SMOOTH",
"125 222 LINE SMOOTH",
"125 135 OFFCURVE",
"151 72 OFFCURVE",
"202 33 CURVE SMOOTH",
"248 -2 OFFCURVE",
"319 -20 OFFCURVE",
"415 -20 CURVE",
"415 -20 LINE"
);
},
{
closed = 1;
nodes = (
"781 640 OFFCURVE",
"811 665 OFFCURVE",
"811 714 CURVE SMOOTH",
"811 734 OFFCURVE",
"805 760 OFFCURVE",
"803 766 CURVE",
"748 734 LINE",
"752 718 OFFCURVE",
"755 700 OFFCURVE",
"755 696 CURVE SMOOTH",
"755 676 OFFCURVE",
"729 658 OFFCURVE",
"675 658 CURVE",
"671 643 LINE",
"687 641 OFFCURVE",
"702 640 OFFCURVE",
"715 640 CURVE",
"715 640 LINE"
);
}
);
};
layerId = "274E8830-0A80-4149-8BE8-CF3C4CCD3F6F";
paths = (
{
closed = 1;
nodes = (
"494 -20 OFFCURVE",
"558 0 OFFCURVE",
"608 39 CURVE SMOOTH",
"672 88 OFFCURVE",
"704 165 OFFCURVE",
"704 269 CURVE SMOOTH",
"704 476 LINE SMOOTH",
"704 556 OFFCURVE",
"709 607 OFFCURVE",
"720 629 CURVE",
"734 646 OFFCURVE",
"745 656 OFFCURVE",
"770 656 CURVE SMOOTH",
"774 656 OFFCURVE",
"779 656 OFFCURVE",
"783 656 CURVE",
"796 670 LINE",
"754 666 OFFCURVE",
"720 662 OFFCURVE",
"668 660 CURVE",
"606 663 OFFCURVE",
"563 666 OFFCURVE",
"539 669 CURVE",
"529 649 LINE",
"538 651 OFFCURVE",
"548 652 OFFCURVE",
"559 652 CURVE SMOOTH",
"565 652 OFFCURVE",
"572 652 OFFCURVE",
"578 651 CURVE SMOOTH",
"600 649 OFFCURVE",
"616 645 OFFCURVE",
"624 637 CURVE",
"646 613 OFFCURVE",
"656 539 OFFCURVE",
"656 414 CURVE SMOOTH",
"656 253 LINE SMOOTH",
"656 178 OFFCURVE",
"636 119 OFFCURVE",
"597 77 CURVE SMOOTH",
"555 34 OFFCURVE",
"494 12 OFFCURVE",
"414 12 CURVE SMOOTH",
"269 12 OFFCURVE",
"197 90 OFFCURVE",
"197 247 CURVE SMOOTH",
"197 348 OFFCURVE",
"197 398 OFFCURVE",
"197 395 CURVE",
"197 403 LINE SMOOTH",
"197 530 OFFCURVE",
"203 605 OFFCURVE",
"214 629 CURVE",
"228 645 OFFCURVE",
"248 653 OFFCURVE",
"274 653 CURVE SMOOTH",
"279 653 OFFCURVE",
"285 653 OFFCURVE",
"291 652 CURVE",
"305 670 LINE",
"262 666 OFFCURVE",
"214 662 OFFCURVE",
"162 660 CURVE",
"94 663 OFFCURVE",
"50 666 OFFCURVE",
"28 669 CURVE",
"19 649 LINE",
"31 652 OFFCURVE",
"43 653 OFFCURVE",
"53 653 CURVE SMOOTH",
"74 653 OFFCURVE",
"91 648 OFFCURVE",
"103 637 CURVE",
"118 621 OFFCURVE",
"125 538 OFFCURVE",
"125 389 CURVE SMOOTH",
"125 222 LINE SMOOTH",
"125 135 OFFCURVE",
"151 72 OFFCURVE",
"202 33 CURVE SMOOTH",
"248 -2 OFFCURVE",
"319 -20 OFFCURVE",
"415 -20 CURVE",
"415 -20 LINE"
);
},
{
closed = 1;
nodes = (
"781 640 OFFCURVE",
"811 665 OFFCURVE",
"811 714 CURVE SMOOTH",
"811 734 OFFCURVE",
"805 760 OFFCURVE",
"803 766 CURVE",
"748 734 LINE",
"752 718 OFFCURVE",
"755 700 OFFCURVE",
"755 696 CURVE SMOOTH",
"755 676 OFFCURVE",
"729 658 OFFCURVE",
"675 658 CURVE",
"671 643 LINE",
"687 641 OFFCURVE",
"702 640 OFFCURVE",
"715 640 CURVE",
"715 640 LINE"
);
}
);
width = 824;
}
);
leftKerningGroup = U;
rightKerningGroup = Uhorn;
unicode = 01AF;
},
{
color = 3;
glyphname = V;
lastChange = "2021-08-18 00:38:43 +0000";
layers = (
{
background = {
paths = (
{
closed = 1;
nodes = (
"346 -28 LINE",
"360 39 OFFCURVE",
"402 156 OFFCURVE",
"472 324 CURVE SMOOTH",
"549 508 OFFCURVE",
"604 610 OFFCURVE",
"638 631 CURVE SMOOTH",
"660 644 OFFCURVE",
"682 650 OFFCURVE",
"704 650 CURVE",
"715 669 LINE",
"677 665 OFFCURVE",
"647 663 OFFCURVE",
"628 663 CURVE SMOOTH",
"588 662 OFFCURVE",
"571 661 OFFCURVE",
"578 661 CURVE SMOOTH",
"582 661 OFFCURVE",
"565 662 OFFCURVE",
"527 664 CURVE SMOOTH",
"488 665 OFFCURVE",
"464 667 OFFCURVE",
"455 669 CURVE",
"441 647 LINE",
"449 648 OFFCURVE",
"457 649 OFFCURVE",
"466 649 CURVE SMOOTH",
"508 649 OFFCURVE",
"529 637 OFFCURVE",
"529 612 CURVE SMOOTH",
"529 586 OFFCURVE",
"503 502 OFFCURVE",
"452 362 CURVE SMOOTH",
"405 234 OFFCURVE",
"370 148 OFFCURVE",
"349 104 CURVE SMOOTH",
"346 98 OFFCURVE",
"343 95 OFFCURVE",
"341 95 CURVE SMOOTH",
"338 95 OFFCURVE",
"336 98 OFFCURVE",
"332 106 CURVE SMOOTH",
"305 177 OFFCURVE",
"285 230 OFFCURVE",
"273 265 CURVE SMOOTH",
"202 452 OFFCURVE",
"166 568 OFFCURVE",
"166 614 CURVE SMOOTH",
"166 626 OFFCURVE",
"175 635 OFFCURVE",
"193 642 CURVE SMOOTH",
"206 646 OFFCURVE",
"220 649 OFFCURVE",
"234 649 CURVE SMOOTH",
"238 649 OFFCURVE",
"242 648 OFFCURVE",
"245 648 CURVE",
"258 670 LINE",
"204 664 OFFCURVE",
"156 661 OFFCURVE",
"116 661 CURVE SMOOTH",
"116 661 OFFCURVE",
"98 662 OFFCURVE",
"60 664 CURVE SMOOTH",
"19 666 OFFCURVE",
"-7 667 OFFCURVE",
"-19 669 CURVE",
"-28 649 LINE",
"-22 650 OFFCURVE",
"-14 651 OFFCURVE",
"-5 651 CURVE SMOOTH",
"24 651 OFFCURVE",
"45 645 OFFCURVE",
"58 634 CURVE SMOOTH",
"67 627 OFFCURVE",
"91 570 OFFCURVE",
"130 463 CURVE SMOOTH",
"199 266 LINE SMOOTH",
"221 207 OFFCURVE",
"238 158 OFFCURVE",
"251 120 CURVE SMOOTH",
"261 90 OFFCURVE",
"268 67 OFFCURVE",
"272 52 CURVE SMOOTH",
"276 41 OFFCURVE",
"287 26 OFFCURVE",
"303 8 CURVE SMOOTH",
"321 -12 OFFCURVE",
"333 -26 OFFCURVE",
"337 -33 CURVE",
"337 -33 LINE"
);
}
);
};
layerId = "274E8830-0A80-4149-8BE8-CF3C4CCD3F6F";
paths = (
{
closed = 1;
nodes = (
"346 -28 LINE",
"360 39 OFFCURVE",
"402 156 OFFCURVE",
"472 324 CURVE SMOOTH",
"549 508 OFFCURVE",
"604 610 OFFCURVE",
"638 631 CURVE SMOOTH",
"660 644 OFFCURVE",
"682 650 OFFCURVE",
"704 650 CURVE",
"715 669 LINE",
"677 665 OFFCURVE",
"647 663 OFFCURVE",
"628 663 CURVE SMOOTH",
"588 662 OFFCURVE",
"571 661 OFFCURVE",
"578 661 CURVE SMOOTH",
"582 661 OFFCURVE",
"565 662 OFFCURVE",
"527 664 CURVE SMOOTH",
"488 665 OFFCURVE",
"464 667 OFFCURVE",
"455 669 CURVE",
"441 647 LINE",
"449 648 OFFCURVE",
"457 649 OFFCURVE",
"466 649 CURVE SMOOTH",
"508 649 OFFCURVE",
"529 637 OFFCURVE",
"529 612 CURVE SMOOTH",
"529 586 OFFCURVE",
"503 502 OFFCURVE",
"452 362 CURVE SMOOTH",
"405 234 OFFCURVE",
"370 148 OFFCURVE",
"349 104 CURVE SMOOTH",
"346 98 OFFCURVE",
"343 95 OFFCURVE",
"341 95 CURVE SMOOTH",
"338 95 OFFCURVE",
"336 98 OFFCURVE",
"332 106 CURVE SMOOTH",
"305 177 OFFCURVE",
"285 230 OFFCURVE",
"273 265 CURVE SMOOTH",
"202 452 OFFCURVE",
"166 568 OFFCURVE",
"166 614 CURVE SMOOTH",
"166 626 OFFCURVE",
"175 635 OFFCURVE",
"193 642 CURVE SMOOTH",
"206 646 OFFCURVE",
"220 649 OFFCURVE",
"234 649 CURVE SMOOTH",
"238 649 OFFCURVE",
"242 648 OFFCURVE",
"245 648 CURVE",
"258 670 LINE",
"204 664 OFFCURVE",
"156 661 OFFCURVE",
"116 661 CURVE SMOOTH",
"116 661 OFFCURVE",
"98 662 OFFCURVE",
"60 664 CURVE SMOOTH",
"19 666 OFFCURVE",
"-7 667 OFFCURVE",
"-19 669 CURVE",
"-28 649 LINE",
"-22 650 OFFCURVE",
"-14 651 OFFCURVE",
"-5 651 CURVE SMOOTH",
"24 651 OFFCURVE",
"45 645 OFFCURVE",
"58 634 CURVE SMOOTH",
"67 627 OFFCURVE",
"91 570 OFFCURVE",
"130 463 CURVE SMOOTH",
"199 266 LINE SMOOTH",
"221 207 OFFCURVE",
"238 158 OFFCURVE",
"251 120 CURVE SMOOTH",
"261 90 OFFCURVE",
"268 67 OFFCURVE",
"272 52 CURVE SMOOTH",
"276 41 OFFCURVE",
"287 26 OFFCURVE",
"303 8 CURVE SMOOTH",
"321 -12 OFFCURVE",
"333 -26 OFFCURVE",
"337 -33 CURVE",
"337 -33 LINE"
);
}
);
width = 679;
}
);
leftKerningGroup = V;
note = V;
rightKerningGroup = V;
unicode = 0056;
},
{
color = 3;
glyphname = W;
lastChange = "2021-08-18 00:38:49 +0000";
layers = (
{
anchors = (
{
name = bottom;
position = "{504, 0}";
},
{
name = top;
position = "{504, 670}";
}
);
background = {
anchors = (
{
name = bottom;
position = "{504, 0}";
},
{
name = top;
position = "{504, 670}";
}
);
paths = (
{
closed = 1;
nodes = (
"365 -28 LINE",
"376 27 OFFCURVE",
"416 141 OFFCURVE",
"483 312 CURVE",
"500 266 LINE SMOOTH",
"521 207 OFFCURVE",
"538 158 OFFCURVE",
"551 120 CURVE SMOOTH",
"561 90 OFFCURVE",
"568 67 OFFCURVE",
"573 52 CURVE SMOOTH",
"577 41 OFFCURVE",
"587 26 OFFCURVE",
"603 8 CURVE SMOOTH",
"622 -12 OFFCURVE",
"633 -26 OFFCURVE",
"637 -33 CURVE",
"646 -28 LINE",
"660 39 OFFCURVE",
"702 156 OFFCURVE",
"772 324 CURVE SMOOTH",
"849 508 OFFCURVE",
"904 610 OFFCURVE",
"938 631 CURVE SMOOTH",
"960 644 OFFCURVE",
"982 650 OFFCURVE",
"1004 650 CURVE",
"1015 669 LINE",
"977 665 OFFCURVE",
"947 663 OFFCURVE",
"928 663 CURVE SMOOTH",
"888 662 OFFCURVE",
"871 661 OFFCURVE",
"878 661 CURVE SMOOTH",
"882 661 OFFCURVE",
"865 662 OFFCURVE",
"827 664 CURVE SMOOTH",
"788 665 OFFCURVE",
"764 667 OFFCURVE",
"755 669 CURVE",
"741 647 LINE",
"749 648 OFFCURVE",
"757 649 OFFCURVE",
"766 649 CURVE SMOOTH",
"808 649 OFFCURVE",
"829 637 OFFCURVE",
"829 612 CURVE SMOOTH",
"829 586 OFFCURVE",
"803 502 OFFCURVE",
"752 362 CURVE SMOOTH",
"705 234 OFFCURVE",
"670 148 OFFCURVE",
"649 104 CURVE SMOOTH",
"646 98 OFFCURVE",
"643 95 OFFCURVE",
"641 95 CURVE SMOOTH",
"639 95 OFFCURVE",
"636 98 OFFCURVE",
"632 106 CURVE SMOOTH",
"605 177 OFFCURVE",
"585 230 OFFCURVE",
"573 265 CURVE SMOOTH",
"562 295 OFFCURVE",
"545 343 OFFCURVE",
"524 412 CURVE",
"581 547 OFFCURVE",
"618 620 OFFCURVE",
"635 631 CURVE SMOOTH",
"650 640 OFFCURVE",
"661 644 OFFCURVE",
"668 644 CURVE",
"678 663 LINE",
"666 662 OFFCURVE",
"655 661 OFFCURVE",
"644 661 CURVE SMOOTH",
"635 661 OFFCURVE",
"627 662 OFFCURVE",
"619 662 CURVE SMOOTH",
"607 664 OFFCURVE",
"597 664 OFFCURVE",
"589 664 CURVE SMOOTH",
"575 664 OFFCURVE",
"568 662 OFFCURVE",
"568 658 CURVE SMOOTH",
"568 637 OFFCURVE",
"548 572 OFFCURVE",
"509 462 CURVE",
"478 561 OFFCURVE",
"461 625 OFFCURVE",
"458 654 CURVE SMOOTH",
"457 660 OFFCURVE",
"443 663 OFFCURVE",
"415 664 CURVE SMOOTH",
"350 664 LINE SMOOTH",
"335 664 OFFCURVE",
"326 663 OFFCURVE",
"323 663 CURVE",
"313 643 LINE",
"319 644 OFFCURVE",
"324 644 OFFCURVE",
"328 644 CURVE SMOOTH",
"340 644 OFFCURVE",
"350 641 OFFCURVE",
"358 634 CURVE SMOOTH",
"370 625 OFFCURVE",
"407 532 OFFCURVE",
"469 354 CURVE",
"420 226 OFFCURVE",
"387 143 OFFCURVE",
"368 104 CURVE SMOOTH",
"365 98 OFFCURVE",
"362 95 OFFCURVE",
"360 95 CURVE SMOOTH",
"357 95 OFFCURVE",
"354 98 OFFCURVE",
"351 106 CURVE SMOOTH",
"324 177 OFFCURVE",
"304 230 OFFCURVE",
"291 265 CURVE SMOOTH",
"220 452 OFFCURVE",
"185 568 OFFCURVE",
"185 614 CURVE SMOOTH",
"185 626 OFFCURVE",
"194 635 OFFCURVE",
"212 642 CURVE SMOOTH",
"224 646 OFFCURVE",
"238 649 OFFCURVE",
"253 649 CURVE SMOOTH",
"257 649 OFFCURVE",
"261 648 OFFCURVE",
"263 648 CURVE",
"277 670 LINE",
"222 664 OFFCURVE",
"175 661 OFFCURVE",
"134 661 CURVE SMOOTH",
"135 661 OFFCURVE",
"116 662 OFFCURVE",
"79 664 CURVE SMOOTH",
"38 666 OFFCURVE",
"12 667 OFFCURVE",
"0 669 CURVE",
"-9 649 LINE",
"-3 650 OFFCURVE",
"4 651 OFFCURVE",
"14 651 CURVE SMOOTH",
"43 651 OFFCURVE",
"64 645 OFFCURVE",
"77 634 CURVE SMOOTH",
"86 627 OFFCURVE",
"110 570 OFFCURVE",
"149 463 CURVE SMOOTH",
"218 266 LINE SMOOTH",
"240 207 OFFCURVE",
"257 158 OFFCURVE",
"270 120 CURVE SMOOTH",
"279 90 OFFCURVE",
"286 67 OFFCURVE",
"291 52 CURVE SMOOTH",
"295 41 OFFCURVE",
"305 26 OFFCURVE",
"322 8 CURVE SMOOTH",
"340 -12 OFFCURVE",
"351 -26 OFFCURVE",
"355 -33 CURVE",
"355 -33 LINE"
);
}
);
};
layerId = "274E8830-0A80-4149-8BE8-CF3C4CCD3F6F";
paths = (
{
closed = 1;
nodes = (
"365 -28 LINE",
"376 27 OFFCURVE",
"416 141 OFFCURVE",
"483 312 CURVE",
"500 266 LINE SMOOTH",
"521 207 OFFCURVE",
"538 158 OFFCURVE",
"551 120 CURVE SMOOTH",
"561 90 OFFCURVE",
"568 67 OFFCURVE",
"573 52 CURVE SMOOTH",
"577 41 OFFCURVE",
"587 26 OFFCURVE",
"603 8 CURVE SMOOTH",
"622 -12 OFFCURVE",
"633 -26 OFFCURVE",
"637 -33 CURVE",
"646 -28 LINE",
"660 39 OFFCURVE",
"702 156 OFFCURVE",
"772 324 CURVE SMOOTH",
"849 508 OFFCURVE",
"904 610 OFFCURVE",
"938 631 CURVE SMOOTH",
"960 644 OFFCURVE",
"982 650 OFFCURVE",
"1004 650 CURVE",
"1015 669 LINE",
"977 665 OFFCURVE",
"947 663 OFFCURVE",
"928 663 CURVE SMOOTH",
"888 662 OFFCURVE",
"871 661 OFFCURVE",
"878 661 CURVE SMOOTH",
"882 661 OFFCURVE",
"865 662 OFFCURVE",
"827 664 CURVE SMOOTH",
"788 665 OFFCURVE",
"764 667 OFFCURVE",
"755 669 CURVE",
"741 647 LINE",
"749 648 OFFCURVE",
"757 649 OFFCURVE",
"766 649 CURVE SMOOTH",
"808 649 OFFCURVE",
"829 637 OFFCURVE",
"829 612 CURVE SMOOTH",
"829 586 OFFCURVE",
"803 502 OFFCURVE",
"752 362 CURVE SMOOTH",
"705 234 OFFCURVE",
"670 148 OFFCURVE",
"649 104 CURVE SMOOTH",
"646 98 OFFCURVE",
"643 95 OFFCURVE",
"641 95 CURVE SMOOTH",
"639 95 OFFCURVE",
"636 98 OFFCURVE",
"632 106 CURVE SMOOTH",
"605 177 OFFCURVE",
"585 230 OFFCURVE",
"573 265 CURVE SMOOTH",
"562 295 OFFCURVE",
"545 343 OFFCURVE",
"524 412 CURVE",
"581 547 OFFCURVE",
"618 620 OFFCURVE",
"635 631 CURVE SMOOTH",
"650 640 OFFCURVE",
"661 644 OFFCURVE",
"668 644 CURVE",
"678 663 LINE",
"666 662 OFFCURVE",
"655 661 OFFCURVE",
"644 661 CURVE SMOOTH",
"635 661 OFFCURVE",
"627 662 OFFCURVE",
"619 662 CURVE SMOOTH",
"607 664 OFFCURVE",
"597 664 OFFCURVE",
"589 664 CURVE SMOOTH",
"575 664 OFFCURVE",
"568 662 OFFCURVE",
"568 658 CURVE SMOOTH",
"568 637 OFFCURVE",
"548 572 OFFCURVE",
"509 462 CURVE",
"478 561 OFFCURVE",
"461 625 OFFCURVE",
"458 654 CURVE SMOOTH",
"457 660 OFFCURVE",
"443 663 OFFCURVE",
"415 664 CURVE SMOOTH",
"350 664 LINE SMOOTH",
"335 664 OFFCURVE",
"326 663 OFFCURVE",
"323 663 CURVE",
"313 643 LINE",
"319 644 OFFCURVE",
"324 644 OFFCURVE",
"328 644 CURVE SMOOTH",
"340 644 OFFCURVE",
"350 641 OFFCURVE",
"358 634 CURVE SMOOTH",
"370 625 OFFCURVE",
"407 532 OFFCURVE",
"469 354 CURVE",
"420 226 OFFCURVE",
"387 143 OFFCURVE",
"368 104 CURVE SMOOTH",
"365 98 OFFCURVE",
"362 95 OFFCURVE",
"360 95 CURVE SMOOTH",
"357 95 OFFCURVE",
"354 98 OFFCURVE",
"351 106 CURVE SMOOTH",
"324 177 OFFCURVE",
"304 230 OFFCURVE",
"291 265 CURVE SMOOTH",
"220 452 OFFCURVE",
"185 568 OFFCURVE",
"185 614 CURVE SMOOTH",
"185 626 OFFCURVE",
"194 635 OFFCURVE",
"212 642 CURVE SMOOTH",
"224 646 OFFCURVE",
"238 649 OFFCURVE",
"253 649 CURVE SMOOTH",
"257 649 OFFCURVE",
"261 648 OFFCURVE",
"263 648 CURVE",
"277 670 LINE",
"222 664 OFFCURVE",
"175 661 OFFCURVE",
"134 661 CURVE SMOOTH",
"135 661 OFFCURVE",
"116 662 OFFCURVE",
"79 664 CURVE SMOOTH",
"38 666 OFFCURVE",
"12 667 OFFCURVE",
"0 669 CURVE",
"-9 649 LINE",
"-3 650 OFFCURVE",
"4 651 OFFCURVE",
"14 651 CURVE SMOOTH",
"43 651 OFFCURVE",
"64 645 OFFCURVE",
"77 634 CURVE SMOOTH",
"86 627 OFFCURVE",
"110 570 OFFCURVE",
"149 463 CURVE SMOOTH",
"218 266 LINE SMOOTH",
"240 207 OFFCURVE",
"257 158 OFFCURVE",
"270 120 CURVE SMOOTH",
"279 90 OFFCURVE",
"286 67 OFFCURVE",
"291 52 CURVE SMOOTH",
"295 41 OFFCURVE",
"305 26 OFFCURVE",
"322 8 CURVE SMOOTH",
"340 -12 OFFCURVE",
"351 -26 OFFCURVE",
"355 -33 CURVE",
"355 -33 LINE"
);
}
);
width = 994;
}
);
leftKerningGroup = V;
note = W;
rightKerningGroup = V;
unicode = 0057;
},
{
color = 3;
glyphname = X;
lastChange = "2021-08-18 00:39:02 +0000";
layers = (
{
background = {
paths = (
{
closed = 1;
nodes = (
"712 19 LINE",
"642 22 OFFCURVE",
"598 35 OFFCURVE",
"581 55 CURVE SMOOTH",
"534 111 OFFCURVE",
"463 211 OFFCURVE",
"368 358 CURVE",
"450 482 OFFCURVE",
"510 567 OFFCURVE",
"547 613 CURVE SMOOTH",
"559 627 OFFCURVE",
"579 637 OFFCURVE",
"608 643 CURVE",
"666 650 LINE",
"677 669 LINE",
"583 665 OFFCURVE",
"535 663 OFFCURVE",
"531 663 CURVE SMOOTH",
"521 663 OFFCURVE",
"496 664 OFFCURVE",
"457 666 CURVE SMOOTH",
"418 668 OFFCURVE",
"397 669 OFFCURVE",
"392 669 CURVE",
"382 650 LINE",
"451 650 OFFCURVE",
"486 638 OFFCURVE",
"485 616 CURVE",
"471 584 OFFCURVE",
"425 507 OFFCURVE",
"349 387 CURVE",
"270 508 OFFCURVE",
"227 584 OFFCURVE",
"219 614 CURVE SMOOTH",
"219 616 OFFCURVE",
"219 618 OFFCURVE",
"219 620 CURVE SMOOTH",
"219 639 OFFCURVE",
"239 649 OFFCURVE",
"279 649 CURVE SMOOTH",
"283 649 OFFCURVE",
"286 648 OFFCURVE",
"289 648 CURVE",
"297 670 LINE",
"244 664 OFFCURVE",
"195 661 OFFCURVE",
"151 661 CURVE SMOOTH",
"148 661 OFFCURVE",
"128 662 OFFCURVE",
"90 664 CURVE SMOOTH",
"49 666 OFFCURVE",
"22 667 OFFCURVE",
"10 669 CURVE",
"6 649 LINE",
"4 648 OFFCURVE",
"12 648 OFFCURVE",
"31 648 CURVE SMOOTH",
"60 648 OFFCURVE",
"82 644 OFFCURVE",
"96 634 CURVE SMOOTH",
"111 624 OFFCURVE",
"183 522 OFFCURVE",
"311 328 CURVE",
"232 206 OFFCURVE",
"174 120 OFFCURVE",
"137 71 CURVE SMOOTH",
"111 35 OFFCURVE",
"59 17 OFFCURVE",
"-18 17 CURVE",
"-26 -3 LINE",
"20 2 OFFCURVE",
"60 5 OFFCURVE",
"95 5 CURVE SMOOTH",
"166 5 OFFCURVE",
"219 3 OFFCURVE",
"257 -2 CURVE",
"268 21 LINE",
"265 20 OFFCURVE",
"258 20 OFFCURVE",
"245 20 CURVE SMOOTH",
"207 20 OFFCURVE",
"188 30 OFFCURVE",
"188 49 CURVE SMOOTH",
"188 51 OFFCURVE",
"188 53 OFFCURVE",
"188 55 CURVE SMOOTH",
"197 86 OFFCURVE",
"244 168 OFFCURVE",
"330 300 CURVE",
"403 188 OFFCURVE",
"451 111 OFFCURVE",
"474 69 CURVE SMOOTH",
"477 61 OFFCURVE",
"479 55 OFFCURVE",
"479 49 CURVE SMOOTH",
"479 29 OFFCURVE",
"458 19 OFFCURVE",
"415 19 CURVE",
"406 -2 LINE",
"437 2 OFFCURVE",
"486 5 OFFCURVE",
"554 6 CURVE SMOOTH",
"567 6 LINE SMOOTH",
"606 6 OFFCURVE",
"651 3 OFFCURVE",
"701 -4 CURVE",
"701 -4 LINE"
);
}
);
};
layerId = "274E8830-0A80-4149-8BE8-CF3C4CCD3F6F";
paths = (
{
closed = 1;
nodes = (
"712 19 LINE",
"642 22 OFFCURVE",
"598 35 OFFCURVE",
"581 55 CURVE SMOOTH",
"534 111 OFFCURVE",
"463 211 OFFCURVE",
"368 358 CURVE",
"450 482 OFFCURVE",
"510 567 OFFCURVE",
"547 613 CURVE SMOOTH",
"559 627 OFFCURVE",
"579 637 OFFCURVE",
"608 643 CURVE",
"666 650 LINE",
"677 669 LINE",
"583 665 OFFCURVE",
"535 663 OFFCURVE",
"531 663 CURVE SMOOTH",
"521 663 OFFCURVE",
"496 664 OFFCURVE",
"457 666 CURVE SMOOTH",
"418 668 OFFCURVE",
"397 669 OFFCURVE",
"392 669 CURVE",
"382 650 LINE",
"451 650 OFFCURVE",
"486 638 OFFCURVE",
"485 616 CURVE",
"471 584 OFFCURVE",
"425 507 OFFCURVE",
"349 387 CURVE",
"270 508 OFFCURVE",
"227 584 OFFCURVE",
"219 614 CURVE SMOOTH",
"219 616 OFFCURVE",
"219 618 OFFCURVE",
"219 620 CURVE SMOOTH",
"219 639 OFFCURVE",
"239 649 OFFCURVE",
"279 649 CURVE SMOOTH",
"283 649 OFFCURVE",
"286 648 OFFCURVE",
"289 648 CURVE",
"297 670 LINE",
"244 664 OFFCURVE",
"195 661 OFFCURVE",
"151 661 CURVE SMOOTH",
"148 661 OFFCURVE",
"128 662 OFFCURVE",
"90 664 CURVE SMOOTH",
"49 666 OFFCURVE",
"22 667 OFFCURVE",
"10 669 CURVE",
"6 649 LINE",
"4 648 OFFCURVE",
"12 648 OFFCURVE",
"31 648 CURVE SMOOTH",
"60 648 OFFCURVE",
"82 644 OFFCURVE",
"96 634 CURVE SMOOTH",
"111 624 OFFCURVE",
"183 522 OFFCURVE",
"311 328 CURVE",
"232 206 OFFCURVE",
"174 120 OFFCURVE",
"137 71 CURVE SMOOTH",
"111 35 OFFCURVE",
"59 17 OFFCURVE",
"-18 17 CURVE",
"-26 -3 LINE",
"20 2 OFFCURVE",
"60 5 OFFCURVE",
"95 5 CURVE SMOOTH",
"166 5 OFFCURVE",
"219 3 OFFCURVE",
"257 -2 CURVE",
"268 21 LINE",
"265 20 OFFCURVE",
"258 20 OFFCURVE",
"245 20 CURVE SMOOTH",
"207 20 OFFCURVE",
"188 30 OFFCURVE",
"188 49 CURVE SMOOTH",
"188 51 OFFCURVE",
"188 53 OFFCURVE",
"188 55 CURVE SMOOTH",
"197 86 OFFCURVE",
"244 168 OFFCURVE",
"330 300 CURVE",
"403 188 OFFCURVE",
"451 111 OFFCURVE",
"474 69 CURVE SMOOTH",
"477 61 OFFCURVE",
"479 55 OFFCURVE",
"479 49 CURVE SMOOTH",
"479 29 OFFCURVE",
"458 19 OFFCURVE",
"415 19 CURVE",
"406 -2 LINE",
"437 2 OFFCURVE",
"486 5 OFFCURVE",
"554 6 CURVE SMOOTH",
"567 6 LINE SMOOTH",
"606 6 OFFCURVE",
"651 3 OFFCURVE",
"701 -4 CURVE",
"701 -4 LINE"
);
}
);
width = 686;
}
);
leftKerningGroup = X;
note = X;
rightKerningGroup = X;
unicode = 0058;
},
{
color = 3;
glyphname = Y;
lastChange = "2021-08-18 00:39:22 +0000";
layers = (
{
anchors = (
{
name = bottom;
position = "{308, 0}";
},
{
name = top;
position = "{308, 670}";
},
{
name = topleft;
position = "{-39, 670}";
}
);
background = {
anchors = (
{
name = bottom;
position = "{308, 0}";
},
{
name = top;
position = "{308, 670}";
},
{
name = topleft;
position = "{-39, 670}";
}
);
paths = (
{
closed = 1;
nodes = (
"126 -3 LINE",
"209 4 OFFCURVE",
"263 7 OFFCURVE",
"291 7 CURVE SMOOTH",
"306 7 LINE SMOOTH",
"374 7 OFFCURVE",
"419 4 OFFCURVE",
"443 -3 CURVE",
"454 20 LINE",
"447 19 OFFCURVE",
"440 19 OFFCURVE",
"434 19 CURVE SMOOTH",
"417 19 OFFCURVE",
"401 21 OFFCURVE",
"385 25 CURVE SMOOTH",
"356 32 OFFCURVE",
"340 45 OFFCURVE",
"338 64 CURVE SMOOTH",
"333 103 OFFCURVE",
"331 139 OFFCURVE",
"331 173 CURVE SMOOTH",
"331 254 OFFCURVE",
"344 319 OFFCURVE",
"370 367 CURVE SMOOTH",
"432 480 OFFCURVE",
"485 562 OFFCURVE",
"528 611 CURVE SMOOTH",
"548 634 OFFCURVE",
"578 645 OFFCURVE",
"618 645 CURVE SMOOTH",
"624 645 OFFCURVE",
"631 645 OFFCURVE",
"637 644 CURVE",
"648 666 LINE",
"561 662 OFFCURVE",
"516 660 OFFCURVE",
"513 660 CURVE SMOOTH",
"499 660 OFFCURVE",
"490 659 OFFCURVE",
"488 656 CURVE SMOOTH",
"474 640 OFFCURVE",
"448 598 OFFCURVE",
"409 528 CURVE SMOOTH",
"370 456 OFFCURVE",
"337 392 OFFCURVE",
"312 336 CURVE",
"290 394 OFFCURVE",
"259 462 OFFCURVE",
"219 541 CURVE SMOOTH",
"180 621 OFFCURVE",
"156 662 OFFCURVE",
"149 662 CURVE SMOOTH",
"117 662 OFFCURVE",
"87 662 OFFCURVE",
"61 664 CURVE SMOOTH",
"9 666 OFFCURVE",
"-20 668 OFFCURVE",
"-25 669 CURVE",
"-29 649 LINE",
"-30 648 OFFCURVE",
"-23 648 OFFCURVE",
"-6 648 CURVE SMOOTH",
"30 648 OFFCURVE",
"54 644 OFFCURVE",
"66 634 CURVE SMOOTH",
"77 627 OFFCURVE",
"97 600 OFFCURVE",
"127 555 CURVE SMOOTH",
"166 496 OFFCURVE",
"199 436 OFFCURVE",
"225 373 CURVE SMOOTH",
"248 317 OFFCURVE",
"260 251 OFFCURVE",
"260 175 CURVE SMOOTH",
"260 135 OFFCURVE",
"256 98 OFFCURVE",
"249 64 CURVE SMOOTH",
"242 32 OFFCURVE",
"211 16 OFFCURVE",
"155 16 CURVE SMOOTH",
"147 16 OFFCURVE",
"141 17 OFFCURVE",
"136 18 CURVE",
"126 -3 LINE"
);
}
);
};
layerId = "274E8830-0A80-4149-8BE8-CF3C4CCD3F6F";
paths = (
{
closed = 1;
nodes = (
"126 -3 LINE",
"209 4 OFFCURVE",
"263 7 OFFCURVE",
"291 7 CURVE SMOOTH",
"306 7 LINE SMOOTH",
"374 7 OFFCURVE",
"419 4 OFFCURVE",
"443 -3 CURVE",
"454 20 LINE",
"447 19 OFFCURVE",
"440 19 OFFCURVE",
"434 19 CURVE SMOOTH",
"417 19 OFFCURVE",
"401 21 OFFCURVE",
"385 25 CURVE SMOOTH",
"356 32 OFFCURVE",
"340 45 OFFCURVE",
"338 64 CURVE SMOOTH",
"333 103 OFFCURVE",
"331 139 OFFCURVE",
"331 173 CURVE SMOOTH",
"331 254 OFFCURVE",
"344 319 OFFCURVE",
"370 367 CURVE SMOOTH",
"432 480 OFFCURVE",
"485 562 OFFCURVE",
"528 611 CURVE SMOOTH",
"548 634 OFFCURVE",
"578 645 OFFCURVE",
"618 645 CURVE SMOOTH",
"624 645 OFFCURVE",
"631 645 OFFCURVE",
"637 644 CURVE",
"648 666 LINE",
"561 662 OFFCURVE",
"516 660 OFFCURVE",
"513 660 CURVE SMOOTH",
"499 660 OFFCURVE",
"490 659 OFFCURVE",
"488 656 CURVE SMOOTH",
"474 640 OFFCURVE",
"448 598 OFFCURVE",
"409 528 CURVE SMOOTH",
"370 456 OFFCURVE",
"337 392 OFFCURVE",
"312 336 CURVE",
"290 394 OFFCURVE",
"259 462 OFFCURVE",
"219 541 CURVE SMOOTH",
"180 621 OFFCURVE",
"156 662 OFFCURVE",
"149 662 CURVE SMOOTH",
"117 662 OFFCURVE",
"87 662 OFFCURVE",
"61 664 CURVE SMOOTH",
"9 666 OFFCURVE",
"-20 668 OFFCURVE",
"-25 669 CURVE",
"-29 649 LINE",
"-30 648 OFFCURVE",
"-23 648 OFFCURVE",
"-6 648 CURVE SMOOTH",
"30 648 OFFCURVE",
"54 644 OFFCURVE",
"66 634 CURVE SMOOTH",
"77 627 OFFCURVE",
"97 600 OFFCURVE",
"127 555 CURVE SMOOTH",
"166 496 OFFCURVE",
"199 436 OFFCURVE",
"225 373 CURVE SMOOTH",
"248 317 OFFCURVE",
"260 251 OFFCURVE",
"260 175 CURVE SMOOTH",
"260 135 OFFCURVE",
"256 98 OFFCURVE",
"249 64 CURVE SMOOTH",
"242 32 OFFCURVE",
"211 16 OFFCURVE",
"155 16 CURVE SMOOTH",
"147 16 OFFCURVE",
"141 17 OFFCURVE",
"136 18 CURVE",
"126 -3 LINE"
);
}
);
width = 619;
}
);
leftKerningGroup = Y;
note = Y;
rightKerningGroup = Y;
unicode = 0059;
},
{
color = 3;
glyphname = Z;
lastChange = "2021-08-18 00:28:35 +0000";
layers = (
{
anchors = (
{
name = bottom;
position = "{297, 0}";
},
{
name = center;
position = "{297, 335}";
},
{
name = top;
position = "{297, 670}";
}
);
background = {
anchors = (
{
name = bottom;
position = "{297, 0}";
},
{
name = center;
position = "{297, 335}";
},
{
name = top;
position = "{297, 670}";
}
);
paths = (
{
closed = 1;
nodes = (
"48 -9 LINE",
"51 -9 LINE SMOOTH",
"79 -1 OFFCURVE",
"111 3 OFFCURVE",
"147 3 CURVE SMOOTH",
"157 3 LINE SMOOTH",
"323 0 OFFCURVE",
"427 -3 OFFCURVE",
"469 -6 CURVE SMOOTH",
"476 -7 OFFCURVE",
"482 -7 OFFCURVE",
"486 -7 CURVE SMOOTH",
"502 -7 OFFCURVE",
"513 -4 OFFCURVE",
"519 2 CURVE SMOOTH",
"525 8 OFFCURVE",
"529 20 OFFCURVE",
"532 37 CURVE",
"544 85 OFFCURVE",
"554 122 OFFCURVE",
"563 147 CURVE",
"549 152 LINE",
"545 137 OFFCURVE",
"538 119 OFFCURVE",
"526 98 CURVE SMOOTH",
"513 74 OFFCURVE",
"501 58 OFFCURVE",
"490 51 CURVE SMOOTH",
"471 37 OFFCURVE",
"418 30 OFFCURVE",
"333 30 CURVE SMOOTH",
"215 30 OFFCURVE",
"159 30 OFFCURVE",
"167 29 CURVE SMOOTH",
"162 30 OFFCURVE",
"159 32 OFFCURVE",
"159 35 CURVE SMOOTH",
"159 37 OFFCURVE",
"160 39 OFFCURVE",
"162 42 CURVE SMOOTH",
"204 122 OFFCURVE",
"236 185 OFFCURVE",
"259 229 CURVE",
"383 448 LINE",
"439 540 OFFCURVE",
"480 606 OFFCURVE",
"506 646 CURVE",
"502 662 LINE",
"410 658 OFFCURVE",
"359 656 OFFCURVE",
"349 656 CURVE SMOOTH",
"281 656 LINE SMOOTH",
"220 656 OFFCURVE",
"148 658 OFFCURVE",
"64 662 CURVE",
"53 647 LINE",
"55 609 OFFCURVE",
"56 576 OFFCURVE",
"56 549 CURVE SMOOTH",
"56 531 OFFCURVE",
"55 515 OFFCURVE",
"54 502 CURVE",
"77 515 LINE",
"76 520 OFFCURVE",
"76 538 OFFCURVE",
"76 570 CURVE SMOOTH",
"76 593 OFFCURVE",
"88 609 OFFCURVE",
"110 617 CURVE SMOOTH",
"128 623 OFFCURVE",
"160 627 OFFCURVE",
"208 629 CURVE SMOOTH",
"254 631 OFFCURVE",
"300 631 OFFCURVE",
"345 631 CURVE SMOOTH",
"356 631 OFFCURVE",
"368 631 OFFCURVE",
"379 631 CURVE SMOOTH",
"386 631 OFFCURVE",
"390 629 OFFCURVE",
"390 625 CURVE SMOOTH",
"390 624 OFFCURVE",
"389 622 OFFCURVE",
"388 620 CURVE SMOOTH",
"360 556 OFFCURVE",
"323 482 OFFCURVE",
"275 400 CURVE SMOOTH",
"192 255 LINE",
"164 212 OFFCURVE",
"136 169 OFFCURVE",
"109 126 CURVE SMOOTH",
"64 55 OFFCURVE",
"41 13 OFFCURVE",
"42 -1 CURVE",
"48 -9 LINE"
);
}
);
};
layerId = "274E8830-0A80-4149-8BE8-CF3C4CCD3F6F";
paths = (
{
closed = 1;
nodes = (
"48 -9 LINE",
"51 -9 LINE SMOOTH",
"79 -1 OFFCURVE",
"111 3 OFFCURVE",
"147 3 CURVE SMOOTH",
"157 3 LINE SMOOTH",
"323 0 OFFCURVE",
"427 -3 OFFCURVE",
"469 -6 CURVE SMOOTH",
"476 -7 OFFCURVE",
"482 -7 OFFCURVE",
"486 -7 CURVE SMOOTH",
"502 -7 OFFCURVE",
"513 -4 OFFCURVE",
"519 2 CURVE SMOOTH",
"525 8 OFFCURVE",
"529 20 OFFCURVE",
"532 37 CURVE",
"544 85 OFFCURVE",
"554 122 OFFCURVE",
"563 147 CURVE",
"549 152 LINE",
"545 137 OFFCURVE",
"538 119 OFFCURVE",
"526 98 CURVE SMOOTH",
"513 74 OFFCURVE",
"501 58 OFFCURVE",
"490 51 CURVE SMOOTH",
"471 37 OFFCURVE",
"418 30 OFFCURVE",
"333 30 CURVE SMOOTH",
"215 30 OFFCURVE",
"159 30 OFFCURVE",
"167 29 CURVE SMOOTH",
"162 30 OFFCURVE",
"159 32 OFFCURVE",
"159 35 CURVE SMOOTH",
"159 37 OFFCURVE",
"160 39 OFFCURVE",
"162 42 CURVE SMOOTH",
"204 122 OFFCURVE",
"236 185 OFFCURVE",
"259 229 CURVE",
"383 448 LINE",
"439 540 OFFCURVE",
"480 606 OFFCURVE",
"506 646 CURVE",
"502 662 LINE",
"410 658 OFFCURVE",
"359 656 OFFCURVE",
"349 656 CURVE SMOOTH",
"281 656 LINE SMOOTH",
"220 656 OFFCURVE",
"148 658 OFFCURVE",
"64 662 CURVE",
"53 647 LINE",
"55 609 OFFCURVE",
"56 576 OFFCURVE",
"56 549 CURVE SMOOTH",
"56 531 OFFCURVE",
"55 515 OFFCURVE",
"54 502 CURVE",
"77 515 LINE",
"76 520 OFFCURVE",
"76 538 OFFCURVE",
"76 570 CURVE SMOOTH",
"76 593 OFFCURVE",
"88 609 OFFCURVE",
"110 617 CURVE SMOOTH",
"128 623 OFFCURVE",
"160 627 OFFCURVE",
"208 629 CURVE SMOOTH",
"254 631 OFFCURVE",
"300 631 OFFCURVE",
"345 631 CURVE SMOOTH",
"356 631 OFFCURVE",
"368 631 OFFCURVE",
"379 631 CURVE SMOOTH",
"386 631 OFFCURVE",
"390 629 OFFCURVE",
"390 625 CURVE SMOOTH",
"390 624 OFFCURVE",
"389 622 OFFCURVE",
"388 620 CURVE SMOOTH",
"360 556 OFFCURVE",
"323 482 OFFCURVE",
"275 400 CURVE SMOOTH",
"192 255 LINE",
"164 212 OFFCURVE",
"136 169 OFFCURVE",
"109 126 CURVE SMOOTH",
"64 55 OFFCURVE",
"41 13 OFFCURVE",
"42 -1 CURVE",
"48 -9 LINE"
);
}
);
width = 573;
}
);
leftKerningGroup = Z;
note = Z;
rightKerningGroup = Z;
unicode = 005A;
},
{
color = 3;
glyphname = a;
lastChange = "2021-08-18 00:28:31 +0000";
layers = (
{
anchors = (
{
name = bottom;
position = "{256, 0}";
},
{
name = ogonek;
position = "{481, 3}";
},
{
name = top;
position = "{257, 478}";
}
);
background = {
anchors = (
{
name = bottom;
position = "{256, 0}";
},
{
name = ogonek;
position = "{481, 3}";
},
{
name = top;
position = "{257, 478}";
}
);
paths = (
{
closed = 1;
nodes = (
"408 -7 OFFCURVE",
"428 -6 OFFCURVE",
"455 -4 CURVE SMOOTH",
"480 -3 OFFCURVE",
"500 -2 OFFCURVE",
"514 -3 CURVE",
"526 22 LINE",
"521 20 OFFCURVE",
"513 19 OFFCURVE",
"503 19 CURVE SMOOTH",
"497 19 OFFCURVE",
"490 19 OFFCURVE",
"482 20 CURVE SMOOTH",
"451 23 OFFCURVE",
"434 35 OFFCURVE",
"429 56 CURVE SMOOTH",
"423 85 OFFCURVE",
"420 139 OFFCURVE",
"420 219 CURVE SMOOTH",
"420 234 OFFCURVE",
"420 256 OFFCURVE",
"422 286 CURVE SMOOTH",
"423 316 OFFCURVE",
"424 339 OFFCURVE",
"424 354 CURVE SMOOTH",
"424 435 OFFCURVE",
"380 476 OFFCURVE",
"293 476 CURVE SMOOTH",
"254 476 OFFCURVE",
"217 472 OFFCURVE",
"183 463 CURVE SMOOTH",
"138 451 OFFCURVE",
"106 434 OFFCURVE",
"88 411 CURVE SMOOTH",
"82 403 OFFCURVE",
"79 396 OFFCURVE",
"79 390 CURVE SMOOTH",
"79 389 OFFCURVE",
"82 377 OFFCURVE",
"88 357 CURVE SMOOTH",
"97 324 OFFCURVE",
"101 299 OFFCURVE",
"101 282 CURVE SMOOTH",
"100 277 LINE",
"116 289 LINE",
"116 292 OFFCURVE",
"115 297 OFFCURVE",
"115 302 CURVE SMOOTH",
"115 347 OFFCURVE",
"130 382 OFFCURVE",
"159 409 CURVE SMOOTH",
"186 434 OFFCURVE",
"223 446 OFFCURVE",
"269 446 CURVE SMOOTH",
"305 446 OFFCURVE",
"330 429 OFFCURVE",
"342 394 CURVE SMOOTH",
"349 374 OFFCURVE",
"352 341 OFFCURVE",
"352 295 CURVE SMOOTH",
"352 282 LINE",
"307 281 OFFCURVE",
"222 276 OFFCURVE",
"194 265 CURVE SMOOTH",
"172 256 OFFCURVE",
"153 240 OFFCURVE",
"119 212 CURVE SMOOTH",
"96 194 OFFCURVE",
"60 180 OFFCURVE",
"60 133 CURVE SMOOTH",
"60 63 OFFCURVE",
"99 -3 OFFCURVE",
"169 -3 CURVE SMOOTH",
"218 -3 OFFCURVE",
"269 19 OFFCURVE",
"324 61 CURVE SMOOTH",
"333 68 OFFCURVE",
"342 75 OFFCURVE",
"351 81 CURVE",
"350 76 OFFCURVE",
"350 71 OFFCURVE",
"350 67 CURVE SMOOTH",
"350 18 OFFCURVE",
"365 -7 OFFCURVE",
"396 -7 CURVE",
"396 -7 LINE"
);
},
{
closed = 1;
nodes = (
"159 54 OFFCURVE",
"125 98 OFFCURVE",
"125 142 CURVE SMOOTH",
"125 175 OFFCURVE",
"145 209 OFFCURVE",
"187 225 CURVE SMOOTH",
"220 237 OFFCURVE",
"273 243 OFFCURVE",
"351 246 CURVE",
"350 204 OFFCURVE",
"350 169 OFFCURVE",
"349 147 CURVE",
"345 121 OFFCURVE",
"330 99 OFFCURVE",
"305 82 CURVE SMOOTH",
"282 67 OFFCURVE",
"245 54 OFFCURVE",
"216 54 CURVE",
"216 54 LINE"
);
}
);
};
layerId = "274E8830-0A80-4149-8BE8-CF3C4CCD3F6F";
paths = (
{
closed = 1;
nodes = (
"408 -7 OFFCURVE",
"428 -6 OFFCURVE",
"455 -4 CURVE SMOOTH",
"480 -3 OFFCURVE",
"500 -2 OFFCURVE",
"514 -3 CURVE",
"526 22 LINE",
"521 20 OFFCURVE",
"513 19 OFFCURVE",
"503 19 CURVE SMOOTH",
"497 19 OFFCURVE",
"490 19 OFFCURVE",
"482 20 CURVE SMOOTH",
"451 23 OFFCURVE",
"434 35 OFFCURVE",
"429 56 CURVE SMOOTH",
"423 85 OFFCURVE",
"420 139 OFFCURVE",
"420 219 CURVE SMOOTH",
"420 234 OFFCURVE",
"420 256 OFFCURVE",
"422 286 CURVE SMOOTH",
"423 316 OFFCURVE",
"424 339 OFFCURVE",
"424 354 CURVE SMOOTH",
"424 435 OFFCURVE",
"380 476 OFFCURVE",
"293 476 CURVE SMOOTH",
"254 476 OFFCURVE",
"217 472 OFFCURVE",
"183 463 CURVE SMOOTH",
"138 451 OFFCURVE",
"106 434 OFFCURVE",
"88 411 CURVE SMOOTH",
"82 403 OFFCURVE",
"79 396 OFFCURVE",
"79 390 CURVE SMOOTH",
"79 389 OFFCURVE",
"82 377 OFFCURVE",
"88 357 CURVE SMOOTH",
"97 324 OFFCURVE",
"101 299 OFFCURVE",
"101 282 CURVE SMOOTH",
"100 277 LINE",
"116 289 LINE",
"116 292 OFFCURVE",
"115 297 OFFCURVE",
"115 302 CURVE SMOOTH",
"115 347 OFFCURVE",
"130 382 OFFCURVE",
"159 409 CURVE SMOOTH",
"186 434 OFFCURVE",
"223 446 OFFCURVE",
"269 446 CURVE SMOOTH",
"305 446 OFFCURVE",
"330 429 OFFCURVE",
"342 394 CURVE SMOOTH",
"349 374 OFFCURVE",
"352 341 OFFCURVE",
"352 295 CURVE SMOOTH",
"352 282 LINE",
"307 281 OFFCURVE",
"222 276 OFFCURVE",
"194 265 CURVE SMOOTH",
"172 256 OFFCURVE",
"153 240 OFFCURVE",
"119 212 CURVE SMOOTH",
"96 194 OFFCURVE",
"60 180 OFFCURVE",
"60 133 CURVE SMOOTH",
"60 63 OFFCURVE",
"99 -3 OFFCURVE",
"169 -3 CURVE SMOOTH",
"218 -3 OFFCURVE",
"269 19 OFFCURVE",
"324 61 CURVE SMOOTH",
"333 68 OFFCURVE",
"342 75 OFFCURVE",
"351 81 CURVE",
"350 76 OFFCURVE",
"350 71 OFFCURVE",
"350 67 CURVE SMOOTH",
"350 18 OFFCURVE",
"365 -7 OFFCURVE",
"396 -7 CURVE",
"396 -7 LINE"
);
},
{
closed = 1;
nodes = (
"159 54 OFFCURVE",
"125 98 OFFCURVE",
"125 142 CURVE SMOOTH",
"125 175 OFFCURVE",
"145 209 OFFCURVE",
"187 225 CURVE SMOOTH",
"220 237 OFFCURVE",
"273 243 OFFCURVE",
"351 246 CURVE",
"350 204 OFFCURVE",
"350 169 OFFCURVE",
"349 147 CURVE",
"345 121 OFFCURVE",
"330 99 OFFCURVE",
"305 82 CURVE SMOOTH",
"282 67 OFFCURVE",
"245 54 OFFCURVE",
"216 54 CURVE",
"216 54 LINE"
);
}
);
width = 526;
}
);
leftKerningGroup = a;
note = a;
rightKerningGroup = a;
rightMetricsKey = n;
unicode = 0061;
},
{
color = 3;
glyphname = ae;
lastChange = "2021-08-18 00:28:50 +0000";
layers = (
{
anchors = (
{
name = bottom;
position = "{371, 0}";
},
{
name = top;
position = "{371, 478}";
}
);
background = {
anchors = (
{
name = bottom;
position = "{371, 0}";
},
{
name = top;
position = "{371, 478}";
}
);
paths = (
{
closed = 1;
nodes = (
"182 -3 OFFCURVE",
"232 22 OFFCURVE",
"294 70 CURVE SMOOTH",
"300 75 OFFCURVE",
"309 81 OFFCURVE",
"321 89 CURVE SMOOTH",
"332 97 OFFCURVE",
"340 101 OFFCURVE",
"344 103 CURVE",
"365 34 OFFCURVE",
"420 0 OFFCURVE",
"508 0 CURVE SMOOTH",
"612 0 OFFCURVE",
"677 13 OFFCURVE",
"705 40 CURVE SMOOTH",
"712 47 OFFCURVE",
"716 54 OFFCURVE",
"717 60 CURVE SMOOTH",
"718 61 OFFCURVE",
"718 63 OFFCURVE",
"718 66 CURVE SMOOTH",
"718 70 OFFCURVE",
"717 76 OFFCURVE",
"717 84 CURVE SMOOTH",
"715 98 OFFCURVE",
"714 107 OFFCURVE",
"714 109 CURVE SMOOTH",
"714 120 OFFCURVE",
"715 142 OFFCURVE",
"717 175 CURVE",
"696 165 LINE",
"697 162 OFFCURVE",
"696 158 OFFCURVE",
"695 152 CURVE SMOOTH",
"680 71 OFFCURVE",
"628 30 OFFCURVE",
"539 30 CURVE SMOOTH",
"475 30 OFFCURVE",
"432 54 OFFCURVE",
"411 103 CURVE SMOOTH",
"400 129 OFFCURVE",
"394 173 OFFCURVE",
"392 237 CURVE",
"393 261 LINE",
"430 264 OFFCURVE",
"473 266 OFFCURVE",
"521 266 CURVE SMOOTH",
"528 266 OFFCURVE",
"553 267 OFFCURVE",
"594 268 CURVE SMOOTH",
"600 268 OFFCURVE",
"606 268 OFFCURVE",
"611 268 CURVE SMOOTH",
"628 268 OFFCURVE",
"645 268 OFFCURVE",
"660 266 CURVE SMOOTH",
"664 265 OFFCURVE",
"674 276 OFFCURVE",
"690 298 CURVE SMOOTH",
"708 323 OFFCURVE",
"717 336 OFFCURVE",
"717 335 CURVE SMOOTH",
"717 380 OFFCURVE",
"703 415 OFFCURVE",
"675 440 CURVE SMOOTH",
"645 468 OFFCURVE",
"602 481 OFFCURVE",
"544 481 CURVE SMOOTH",
"472 481 OFFCURVE",
"417 463 OFFCURVE",
"379 427 CURVE",
"359 460 OFFCURVE",
"321 476 OFFCURVE",
"266 476 CURVE SMOOTH",
"227 476 OFFCURVE",
"190 472 OFFCURVE",
"155 463 CURVE SMOOTH",
"110 451 OFFCURVE",
"79 434 OFFCURVE",
"61 411 CURVE SMOOTH",
"55 403 OFFCURVE",
"52 396 OFFCURVE",
"52 390 CURVE SMOOTH",
"52 389 OFFCURVE",
"55 377 OFFCURVE",
"60 357 CURVE SMOOTH",
"69 324 OFFCURVE",
"74 299 OFFCURVE",
"73 282 CURVE SMOOTH",
"73 277 LINE",
"89 289 LINE",
"88 292 OFFCURVE",
"88 297 OFFCURVE",
"88 302 CURVE SMOOTH",
"88 347 OFFCURVE",
"102 382 OFFCURVE",
"131 409 CURVE SMOOTH",
"159 434 OFFCURVE",
"196 446 OFFCURVE",
"241 446 CURVE SMOOTH",
"278 446 OFFCURVE",
"302 429 OFFCURVE",
"314 394 CURVE SMOOTH",
"321 374 OFFCURVE",
"325 341 OFFCURVE",
"325 295 CURVE SMOOTH",
"325 288 LINE",
"300 284 OFFCURVE",
"282 282 OFFCURVE",
"270 280 CURVE SMOOTH",
"226 275 OFFCURVE",
"193 268 OFFCURVE",
"172 260 CURVE SMOOTH",
"151 251 OFFCURVE",
"123 233 OFFCURVE",
"88 205 CURVE SMOOTH",
"68 189 OFFCURVE",
"53 178 OFFCURVE",
"42 170 CURVE",
"33 162 OFFCURVE",
"29 148 OFFCURVE",
"29 129 CURVE SMOOTH",
"29 96 OFFCURVE",
"39 66 OFFCURVE",
"60 39 CURVE SMOOTH",
"82 11 OFFCURVE",
"109 -3 OFFCURVE",
"142 -3 CURVE",
"142 -3 LINE"
);
},
{
closed = 1;
nodes = (
"153 59 OFFCURVE",
"120 78 OFFCURVE",
"101 115 CURVE SMOOTH",
"93 131 OFFCURVE",
"89 144 OFFCURVE",
"89 156 CURVE SMOOTH",
"89 182 OFFCURVE",
"112 203 OFFCURVE",
"157 220 CURVE SMOOTH",
"189 232 OFFCURVE",
"245 240 OFFCURVE",
"324 243 CURVE",
"323 201 OFFCURVE",
"322 169 OFFCURVE",
"321 147 CURVE",
"317 121 OFFCURVE",
"303 99 OFFCURVE",
"278 82 CURVE SMOOTH",
"255 67 OFFCURVE",
"228 59 OFFCURVE",
"199 59 CURVE",
"199 59 LINE"
);
},
{
closed = 1;
nodes = (
"435 297 OFFCURVE",
"410 299 OFFCURVE",
"395 302 CURVE",
"396 328 LINE",
"396 331 LINE SMOOTH",
"406 412 OFFCURVE",
"452 452 OFFCURVE",
"532 452 CURVE SMOOTH",
"592 452 OFFCURVE",
"631 425 OFFCURVE",
"648 370 CURVE SMOOTH",
"652 358 OFFCURVE",
"654 347 OFFCURVE",
"654 337 CURVE SMOOTH",
"654 318 OFFCURVE",
"648 308 OFFCURVE",
"635 306 CURVE SMOOTH",
"610 302 OFFCURVE",
"570 299 OFFCURVE",
"516 298 CURVE SMOOTH",
"499 297 OFFCURVE",
"484 297 OFFCURVE",
"471 297 CURVE",
"471 297 LINE"
);
}
);
};
layerId = "274E8830-0A80-4149-8BE8-CF3C4CCD3F6F";
paths = (
{
closed = 1;
nodes = (
"182 -3 OFFCURVE",
"232 22 OFFCURVE",
"294 70 CURVE SMOOTH",
"300 75 OFFCURVE",
"309 81 OFFCURVE",
"321 89 CURVE SMOOTH",
"332 97 OFFCURVE",
"340 101 OFFCURVE",
"344 103 CURVE",
"365 34 OFFCURVE",
"420 0 OFFCURVE",
"508 0 CURVE SMOOTH",
"612 0 OFFCURVE",
"677 13 OFFCURVE",
"705 40 CURVE SMOOTH",
"712 47 OFFCURVE",
"716 54 OFFCURVE",
"717 60 CURVE SMOOTH",
"718 61 OFFCURVE",
"718 63 OFFCURVE",
"718 66 CURVE SMOOTH",
"718 70 OFFCURVE",
"717 76 OFFCURVE",
"717 84 CURVE SMOOTH",
"715 98 OFFCURVE",
"714 107 OFFCURVE",
"714 109 CURVE SMOOTH",
"714 120 OFFCURVE",
"715 142 OFFCURVE",
"717 175 CURVE",
"696 165 LINE",
"697 162 OFFCURVE",
"696 158 OFFCURVE",
"695 152 CURVE SMOOTH",
"680 71 OFFCURVE",
"628 30 OFFCURVE",
"539 30 CURVE SMOOTH",
"475 30 OFFCURVE",
"432 54 OFFCURVE",
"411 103 CURVE SMOOTH",
"400 129 OFFCURVE",
"394 173 OFFCURVE",
"392 237 CURVE",
"393 261 LINE",
"430 264 OFFCURVE",
"473 266 OFFCURVE",
"521 266 CURVE SMOOTH",
"528 266 OFFCURVE",
"553 267 OFFCURVE",
"594 268 CURVE SMOOTH",
"600 268 OFFCURVE",
"606 268 OFFCURVE",
"611 268 CURVE SMOOTH",
"628 268 OFFCURVE",
"645 268 OFFCURVE",
"660 266 CURVE SMOOTH",
"664 265 OFFCURVE",
"674 276 OFFCURVE",
"690 298 CURVE SMOOTH",
"708 323 OFFCURVE",
"717 336 OFFCURVE",
"717 335 CURVE SMOOTH",
"717 380 OFFCURVE",
"703 415 OFFCURVE",
"675 440 CURVE SMOOTH",
"645 468 OFFCURVE",
"602 481 OFFCURVE",
"544 481 CURVE SMOOTH",
"472 481 OFFCURVE",
"417 463 OFFCURVE",
"379 427 CURVE",
"359 460 OFFCURVE",
"321 476 OFFCURVE",
"266 476 CURVE SMOOTH",
"227 476 OFFCURVE",
"190 472 OFFCURVE",
"155 463 CURVE SMOOTH",
"110 451 OFFCURVE",
"79 434 OFFCURVE",
"61 411 CURVE SMOOTH",
"55 403 OFFCURVE",
"52 396 OFFCURVE",
"52 390 CURVE SMOOTH",
"52 389 OFFCURVE",
"55 377 OFFCURVE",
"60 357 CURVE SMOOTH",
"69 324 OFFCURVE",
"74 299 OFFCURVE",
"73 282 CURVE SMOOTH",
"73 277 LINE",
"89 289 LINE",
"88 292 OFFCURVE",
"88 297 OFFCURVE",
"88 302 CURVE SMOOTH",
"88 347 OFFCURVE",
"102 382 OFFCURVE",
"131 409 CURVE SMOOTH",
"159 434 OFFCURVE",
"196 446 OFFCURVE",
"241 446 CURVE SMOOTH",
"278 446 OFFCURVE",
"302 429 OFFCURVE",
"314 394 CURVE SMOOTH",
"321 374 OFFCURVE",
"325 341 OFFCURVE",
"325 295 CURVE SMOOTH",
"325 288 LINE",
"300 284 OFFCURVE",
"282 282 OFFCURVE",
"270 280 CURVE SMOOTH",
"226 275 OFFCURVE",
"193 268 OFFCURVE",
"172 260 CURVE SMOOTH",
"151 251 OFFCURVE",
"123 233 OFFCURVE",
"88 205 CURVE SMOOTH",
"68 189 OFFCURVE",
"53 178 OFFCURVE",
"42 170 CURVE",
"33 162 OFFCURVE",
"29 148 OFFCURVE",
"29 129 CURVE SMOOTH",
"29 96 OFFCURVE",
"39 66 OFFCURVE",
"60 39 CURVE SMOOTH",
"82 11 OFFCURVE",
"109 -3 OFFCURVE",
"142 -3 CURVE",
"142 -3 LINE"
);
},
{
closed = 1;
nodes = (
"153 59 OFFCURVE",
"120 78 OFFCURVE",
"101 115 CURVE SMOOTH",
"93 131 OFFCURVE",
"89 144 OFFCURVE",
"89 156 CURVE SMOOTH",
"89 182 OFFCURVE",
"112 203 OFFCURVE",
"157 220 CURVE SMOOTH",
"189 232 OFFCURVE",
"245 240 OFFCURVE",
"324 243 CURVE",
"323 201 OFFCURVE",
"322 169 OFFCURVE",
"321 147 CURVE",
"317 121 OFFCURVE",
"303 99 OFFCURVE",
"278 82 CURVE SMOOTH",
"255 67 OFFCURVE",
"228 59 OFFCURVE",
"199 59 CURVE",
"199 59 LINE"
);
},
{
closed = 1;
nodes = (
"435 297 OFFCURVE",
"410 299 OFFCURVE",
"395 302 CURVE",
"396 328 LINE",
"396 331 LINE SMOOTH",
"406 412 OFFCURVE",
"452 452 OFFCURVE",
"532 452 CURVE SMOOTH",
"592 452 OFFCURVE",
"631 425 OFFCURVE",
"648 370 CURVE SMOOTH",
"652 358 OFFCURVE",
"654 347 OFFCURVE",
"654 337 CURVE SMOOTH",
"654 318 OFFCURVE",
"648 308 OFFCURVE",
"635 306 CURVE SMOOTH",
"610 302 OFFCURVE",
"570 299 OFFCURVE",
"516 298 CURVE SMOOTH",
"499 297 OFFCURVE",
"484 297 OFFCURVE",
"471 297 CURVE",
"471 297 LINE"
);
}
);
width = 741;
}
);
leftKerningGroup = a;
note = ae;
rightKerningGroup = a;
unicode = 00E6;
},
{
color = 3;
glyphname = b;
lastChange = "2021-08-18 00:33:31 +0000";
layers = (
{
background = {
paths = (
{
closed = 1;
nodes = (
"93 -9 LINE",
"112 21 OFFCURVE",
"136 42 OFFCURVE",
"162 52 CURVE",
"189 12 OFFCURVE",
"233 -8 OFFCURVE",
"293 -8 CURVE SMOOTH",
"431 -8 OFFCURVE",
"500 80 OFFCURVE",
"500 256 CURVE SMOOTH",
"500 326 OFFCURVE",
"490 377 OFFCURVE",
"471 410 CURVE SMOOTH",
"447 451 OFFCURVE",
"406 471 OFFCURVE",
"347 471 CURVE SMOOTH",
"336 471 OFFCURVE",
"324 471 OFFCURVE",
"312 469 CURVE SMOOTH",
"236 461 OFFCURVE",
"186 430 OFFCURVE",
"160 377 CURVE",
"166 528 OFFCURVE",
"172 620 OFFCURVE",
"177 651 CURVE SMOOTH",
"178 653 OFFCURVE",
"178 655 OFFCURVE",
"178 657 CURVE SMOOTH",
"178 663 OFFCURVE",
"174 666 OFFCURVE",
"167 666 CURVE SMOOTH",
"163 666 OFFCURVE",
"155 665 OFFCURVE",
"141 662 CURVE SMOOTH",
"128 660 OFFCURVE",
"117 659 OFFCURVE",
"108 659 CURVE SMOOTH",
"58 660 OFFCURVE",
"25 662 OFFCURVE",
"9 664 CURVE",
"0 645 LINE",
"12 647 OFFCURVE",
"23 649 OFFCURVE",
"34 649 CURVE SMOOTH",
"54 649 OFFCURVE",
"70 644 OFFCURVE",
"82 633 CURVE",
"97 617 OFFCURVE",
"104 497 OFFCURVE",
"104 276 CURVE SMOOTH",
"104 248 OFFCURVE",
"101 201 OFFCURVE",
"95 134 CURVE SMOOTH",
"89 61 OFFCURVE",
"84 17 OFFCURVE",
"79 1 CURVE",
"93 -9 LINE"
);
},
{
closed = 1;
nodes = (
"235 21 OFFCURVE",
"200 46 OFFCURVE",
"180 96 CURVE SMOOTH",
"166 132 OFFCURVE",
"159 178 OFFCURVE",
"159 236 CURVE SMOOTH",
"159 291 OFFCURVE",
"167 333 OFFCURVE",
"183 362 CURVE SMOOTH",
"211 410 OFFCURVE",
"251 434 OFFCURVE",
"303 434 CURVE SMOOTH",
"353 434 OFFCURVE",
"388 409 OFFCURVE",
"409 359 CURVE SMOOTH",
"423 324 OFFCURVE",
"430 277 OFFCURVE",
"430 219 CURVE SMOOTH",
"430 165 OFFCURVE",
"422 122 OFFCURVE",
"405 93 CURVE SMOOTH",
"378 45 OFFCURVE",
"338 21 OFFCURVE",
"285 21 CURVE",
"285 21 LINE"
);
}
);
};
layerId = "274E8830-0A80-4149-8BE8-CF3C4CCD3F6F";
paths = (
{
closed = 1;
nodes = (
"93 -9 LINE",
"112 21 OFFCURVE",
"136 42 OFFCURVE",
"162 52 CURVE",
"189 12 OFFCURVE",
"233 -8 OFFCURVE",
"293 -8 CURVE SMOOTH",
"431 -8 OFFCURVE",
"500 80 OFFCURVE",
"500 256 CURVE SMOOTH",
"500 326 OFFCURVE",
"490 377 OFFCURVE",
"471 410 CURVE SMOOTH",
"447 451 OFFCURVE",
"406 471 OFFCURVE",
"347 471 CURVE SMOOTH",
"336 471 OFFCURVE",
"324 471 OFFCURVE",
"312 469 CURVE SMOOTH",
"236 461 OFFCURVE",
"186 430 OFFCURVE",
"160 377 CURVE",
"166 528 OFFCURVE",
"172 620 OFFCURVE",
"177 651 CURVE SMOOTH",
"178 653 OFFCURVE",
"178 655 OFFCURVE",
"178 657 CURVE SMOOTH",
"178 663 OFFCURVE",
"174 666 OFFCURVE",
"167 666 CURVE SMOOTH",
"163 666 OFFCURVE",
"155 665 OFFCURVE",
"141 662 CURVE SMOOTH",
"128 660 OFFCURVE",
"117 659 OFFCURVE",
"108 659 CURVE SMOOTH",
"58 660 OFFCURVE",
"25 662 OFFCURVE",
"9 664 CURVE",
"0 645 LINE",
"12 647 OFFCURVE",
"23 649 OFFCURVE",
"34 649 CURVE SMOOTH",
"54 649 OFFCURVE",
"70 644 OFFCURVE",
"82 633 CURVE",
"97 617 OFFCURVE",
"104 497 OFFCURVE",
"104 276 CURVE SMOOTH",
"104 248 OFFCURVE",
"101 201 OFFCURVE",
"95 134 CURVE SMOOTH",
"89 61 OFFCURVE",
"84 17 OFFCURVE",
"79 1 CURVE",
"93 -9 LINE"
);
},
{
closed = 1;
nodes = (
"235 21 OFFCURVE",
"200 46 OFFCURVE",
"180 96 CURVE SMOOTH",
"166 132 OFFCURVE",
"159 178 OFFCURVE",
"159 236 CURVE SMOOTH",
"159 291 OFFCURVE",
"167 333 OFFCURVE",
"183 362 CURVE SMOOTH",
"211 410 OFFCURVE",
"251 434 OFFCURVE",
"303 434 CURVE SMOOTH",
"353 434 OFFCURVE",
"388 409 OFFCURVE",
"409 359 CURVE SMOOTH",
"423 324 OFFCURVE",
"430 277 OFFCURVE",
"430 219 CURVE SMOOTH",
"430 165 OFFCURVE",
"422 122 OFFCURVE",
"405 93 CURVE SMOOTH",
"378 45 OFFCURVE",
"338 21 OFFCURVE",
"285 21 CURVE",
"285 21 LINE"
);
}
);
width = 545;
}
);
leftKerningGroup = n;
note = b;
rightKerningGroup = b;
unicode = 0062;
},
{
color = 3;
glyphname = c;
lastChange = "2021-08-18 00:28:31 +0000";
layers = (
{
anchors = (
{
name = bottom;
position = "{235, 0}";
},
{
name = top;
position = "{272, 478}";
}
);
background = {
anchors = (
{
name = bottom;
position = "{235, 0}";
},
{
name = top;
position = "{272, 478}";
}
);
paths = (
{
closed = 1;
nodes = (
"345 -10 OFFCURVE",
"400 1 OFFCURVE",
"421 23 CURVE",
"432 86 LINE",
"383 44 OFFCURVE",
"331 23 OFFCURVE",
"278 23 CURVE SMOOTH",
"210 23 OFFCURVE",
"166 48 OFFCURVE",
"145 98 CURVE SMOOTH",
"129 133 OFFCURVE",
"122 182 OFFCURVE",
"122 243 CURVE SMOOTH",
"122 265 OFFCURVE",
"123 286 OFFCURVE",
"125 306 CURVE SMOOTH",
"130 349 OFFCURVE",
"145 384 OFFCURVE",
"170 411 CURVE SMOOTH",
"198 440 OFFCURVE",
"235 456 OFFCURVE",
"282 458 CURVE SMOOTH",
"285 458 OFFCURVE",
"288 458 OFFCURVE",
"291 458 CURVE SMOOTH",
"323 458 OFFCURVE",
"347 451 OFFCURVE",
"365 437 CURVE SMOOTH",
"387 421 OFFCURVE",
"399 399 OFFCURVE",
"401 373 CURVE SMOOTH",
"401 360 OFFCURVE",
"402 349 OFFCURVE",
"402 341 CURVE SMOOTH",
"402 332 OFFCURVE",
"401 326 OFFCURVE",
"400 323 CURVE",
"423 334 LINE",
"421 359 OFFCURVE",
"420 380 OFFCURVE",
"420 397 CURVE SMOOTH",
"420 414 OFFCURVE",
"421 427 OFFCURVE",
"423 438 CURVE SMOOTH",
"423 438 OFFCURVE",
"423 439 OFFCURVE",
"423 441 CURVE SMOOTH",
"423 449 OFFCURVE",
"417 457 OFFCURVE",
"404 463 CURVE SMOOTH",
"374 477 OFFCURVE",
"336 484 OFFCURVE",
"290 484 CURVE SMOOTH",
"278 484 OFFCURVE",
"265 484 OFFCURVE",
"251 483 CURVE SMOOTH",
"165 476 OFFCURVE",
"108 444 OFFCURVE",
"79 385 CURVE SMOOTH",
"60 346 OFFCURVE",
"50 291 OFFCURVE",
"50 220 CURVE SMOOTH",
"50 119 OFFCURVE",
"70 53 OFFCURVE",
"109 23 CURVE SMOOTH",
"137 1 OFFCURVE",
"186 -10 OFFCURVE",
"254 -10 CURVE",
"254 -10 LINE"
);
}
);
};
layerId = "274E8830-0A80-4149-8BE8-CF3C4CCD3F6F";
paths = (
{
closed = 1;
nodes = (
"345 -10 OFFCURVE",
"400 1 OFFCURVE",
"421 23 CURVE",
"432 86 LINE",
"383 44 OFFCURVE",
"331 23 OFFCURVE",
"278 23 CURVE SMOOTH",
"210 23 OFFCURVE",
"166 48 OFFCURVE",
"145 98 CURVE SMOOTH",
"129 133 OFFCURVE",
"122 182 OFFCURVE",
"122 243 CURVE SMOOTH",
"122 265 OFFCURVE",
"123 286 OFFCURVE",
"125 306 CURVE SMOOTH",
"130 349 OFFCURVE",
"145 384 OFFCURVE",
"170 411 CURVE SMOOTH",
"198 440 OFFCURVE",
"235 456 OFFCURVE",
"282 458 CURVE SMOOTH",
"285 458 OFFCURVE",
"288 458 OFFCURVE",
"291 458 CURVE SMOOTH",
"323 458 OFFCURVE",
"347 451 OFFCURVE",
"365 437 CURVE SMOOTH",
"387 421 OFFCURVE",
"399 399 OFFCURVE",
"401 373 CURVE SMOOTH",
"401 360 OFFCURVE",
"402 349 OFFCURVE",
"402 341 CURVE SMOOTH",
"402 332 OFFCURVE",
"401 326 OFFCURVE",
"400 323 CURVE",
"423 334 LINE",
"421 359 OFFCURVE",
"420 380 OFFCURVE",
"420 397 CURVE SMOOTH",
"420 414 OFFCURVE",
"421 427 OFFCURVE",
"423 438 CURVE SMOOTH",
"423 438 OFFCURVE",
"423 439 OFFCURVE",
"423 441 CURVE SMOOTH",
"423 449 OFFCURVE",
"417 457 OFFCURVE",
"404 463 CURVE SMOOTH",
"374 477 OFFCURVE",
"336 484 OFFCURVE",
"290 484 CURVE SMOOTH",
"278 484 OFFCURVE",
"265 484 OFFCURVE",
"251 483 CURVE SMOOTH",
"165 476 OFFCURVE",
"108 444 OFFCURVE",
"79 385 CURVE SMOOTH",
"60 346 OFFCURVE",
"50 291 OFFCURVE",
"50 220 CURVE SMOOTH",
"50 119 OFFCURVE",
"70 53 OFFCURVE",
"109 23 CURVE SMOOTH",
"137 1 OFFCURVE",
"186 -10 OFFCURVE",
"254 -10 CURVE",
"254 -10 LINE"
);
}
);
width = 480;
}
);
leftKerningGroup = c;
note = c;
rightKerningGroup = c;
unicode = 0063;
},
